<?xml version="1.0" standalone="no"?>
<!DOCTYPE svg PUBLIC "-//W3C//DTD SVG 1.1//EN" "http://www.w3.org/Graphics/SVG/1.1/DTD/svg11.dtd" >
<svg xmlns="http://www.w3.org/2000/svg">
<metadata>
Created by FontForge 20120731 at Thu Jun 20 16:38:42 2013

Copyright (c) 2010 by Leftloft. All rights reserved.
</metadata>
<defs>
<font id="LFT_EticaDisplay_Heavy" horiz-adv-x="500" >
  <font-face 
    font-family="LFT Etica Display Hv"
    font-weight="900"
    font-stretch="normal"
    units-per-em="1000"
    panose-1="2 0 5 3 4 0 0 2 0 4"
    ascent="730"
    descent="-270"
    x-height="533"
    cap-height="720"
    bbox="-251 -282 2268.17 986"
    underline-thickness="50"
    underline-position="-50"
    stemh="217"
    stemv="254"
    unicode-range="U+0020-FB04"
  />
<missing-glyph horiz-adv-x="160" 
 />
    <glyph glyph-name="ff" unicode="ff" horiz-adv-x="715" 
d="M74 0v374h-70v125l70 26v10c0 128 64 196 200 196c33 0 74 -6 102 -13l-10 -151c-9 3 -15 3 -24 3c-23 0 -24 -14 -24 -27v-10h75c0 129 66 200 205 200c51 0 87 -4 127 -15l-11 -155c-17 5 -33 8 -46 8c-25 0 -31 -14 -31 -27v-11h69v-159h-69v-374h-244v374h-75v-374
h-244z" />
    <glyph glyph-name="fi" unicode="fi" horiz-adv-x="670" 
d="M393 0v374h-75v-374h-244v374h-70v125l70 26v11c0 133 60 197 200 197c33 0 57 -4 93 -11v-154c-9 3 -14 3 -23 3c-23 0 -26 -14 -26 -27v-11h319v-533h-244zM408 656c0 69 58 102 116 102c57 0 118 -33 118 -102c0 -68 -61 -100 -118 -100c-58 0 -116 32 -116 100z" />
    <glyph glyph-name="fl" unicode="fl" horiz-adv-x="680" 
d="M647 0h-244v374h-85v-374h-244v374h-70v125l70 26v11c0 133 60 197 200 197c27 0 58 -4 93 -11v-154c-9 3 -14 3 -23 3c-23 0 -26 -14 -26 -27v-11h85v187h244v-720z" />
    <glyph glyph-name="tt" unicode="tt" horiz-adv-x="760" 
d="M747 374h-83v-176c0 -19 6 -29 30 -29c15 0 28 2 40 5l20 -162c-56 -19 -103 -25 -160 -25c-125 0 -174 71 -174 164v223h-98v-173c0 -27 13 -35 30 -35c11 0 23 3 34 6l18 -160c-56 -19 -101 -25 -158 -25c-116 0 -168 71 -168 164v223h-74v117l80 40l9 166h229v-164
h104l9 164h229v-164h83v-159z" />
    <glyph glyph-name="ffi" unicode="ffi" horiz-adv-x="993" 
d="M397 0v374h-79v-374h-244v374h-70v125l70 26v11c0 128 64 197 200 197c36 0 70 -5 106 -13l-13 -152c-9 3 -14 3 -23 3c-23 0 -26 -14 -26 -27v-11h79v3c0 133 60 197 200 197c33 0 57 -4 93 -11v-154c-9 3 -14 3 -23 3c-23 0 -26 -14 -26 -27v-11h319v-533h-244v374h-75
v-374h-244zM731 656c0 69 58 102 116 102c57 0 118 -33 118 -102c0 -68 -61 -100 -118 -100c-58 0 -116 32 -116 100z" />
    <glyph glyph-name="ffl" unicode="ffl" horiz-adv-x="1001" 
d="M395 0v374h-77v-374h-244v374h-70v125l70 26v11c0 128 64 197 200 197c36 0 80 -5 116 -13l-23 -152c-9 3 -14 3 -23 3c-23 0 -26 -14 -26 -27v-11h77v3c0 133 60 197 200 197c27 0 58 -4 93 -11v-154c-9 3 -14 3 -23 3c-23 0 -26 -14 -26 -27v-11h85v187h244v-720h-244
v374h-85v-374h-244z" />
    <glyph glyph-name=".notdef" horiz-adv-x="160" 
 />
    <glyph glyph-name=".notdef" horiz-adv-x="160" 
 />
    <glyph glyph-name=".null" horiz-adv-x="0" 
 />
    <glyph glyph-name="CR" horiz-adv-x="0" 
 />
    <glyph glyph-name="space" unicode=" " horiz-adv-x="130" 
 />
    <glyph glyph-name="numbersign" unicode="#" horiz-adv-x="707" 
d="M318 363l-26 -79h85l26 79h-85zM685 363h-133l-27 -79h94v-144h-140l-54 -142l-137 35l40 107h-81l-56 -142l-137 35l40 107h-72v144h122l27 79h-82v144h130l56 151l139 -29l-44 -122h82l57 151l138 -29l-44 -122h82v-144z" />
    <glyph glyph-name="ampersand" unicode="&#x26;" horiz-adv-x="774" 
d="M327 543c0 -15 14 -33 33 -48c29 20 38 35 38 51s-12 28 -36 28c-27 0 -35 -18 -35 -31zM321 167c23 0 45 9 64 28l-88 94c-23 -15 -38 -36 -38 -67c0 -29 19 -55 62 -55zM588 -27l-81 88c-74 -66 -137 -81 -220 -81c-148 0 -252 79 -252 214c0 105 67 175 136 215
c-39 44 -56 81 -56 128c0 104 76 196 243 196c132 0 232 -53 232 -180c0 -83 -52 -125 -100 -160l43 -44l93 90l130 -125l-98 -94l94 -100z" />
    <glyph glyph-name="ampersand.alt" horiz-adv-x="768" 
d="M321 167c23 0 45 9 64 28l-88 94c-23 -15 -38 -36 -38 -67c0 -29 19 -55 62 -55zM598 519h-182c0 35 -3 56 -38 56c-27 0 -34 -19 -34 -32c0 -15 12 -31 29 -46l110 -104l92 86l134 -129l-92 -88l135 -142l-164 -142l-80 82c-75 -67 -138 -80 -221 -80
c-148 0 -252 79 -252 214c0 105 67 175 136 215c-39 44 -56 81 -56 128c0 104 76 196 251 196c148 0 240 -55 232 -214z" />
    <glyph glyph-name="asterisk" unicode="*" horiz-adv-x="477" 
d="M341 323l-101 88l-99 -91l-85 67l62 91l-104 53l37 98l108 -26l25 117h100l24 -117l120 25l34 -92l-95 -53l58 -93z" />
    <glyph glyph-name="comma" unicode="," horiz-adv-x="275" 
d="M19 88c0 64 44 107 113 107c84 0 123 -56 123 -135c0 -113 -60 -196 -179 -249l-50 78c70 41 82 75 90 108c-53 -3 -97 32 -97 91z" />
    <glyph glyph-name="hyphen" unicode="-" horiz-adv-x="318" 
d="M23 184v183h271v-183h-271z" />
    <glyph glyph-name="period" unicode="." horiz-adv-x="265" 
d="M15 98c0 68 45 109 118 109c72 0 117 -41 117 -109c0 -65 -43 -111 -116 -111c-76 0 -119 46 -119 111z" />
    <glyph glyph-name="colon" unicode=":" horiz-adv-x="265" 
d="M15 98c0 68 45 109 118 109c72 0 117 -41 117 -109c0 -65 -43 -111 -116 -111c-76 0 -119 46 -119 111zM15 417c0 68 45 109 118 109c72 0 117 -41 117 -109c0 -65 -43 -111 -116 -111c-76 0 -119 46 -119 111z" />
    <glyph glyph-name="semicolon" unicode=";" horiz-adv-x="271" 
d="M19 88c0 64 44 107 113 107c84 0 123 -56 123 -135c0 -113 -60 -196 -179 -249l-50 78c70 41 82 75 90 108c-53 -3 -97 32 -97 91zM17 417c0 68 45 109 118 109c72 0 117 -41 117 -109c0 -65 -43 -111 -116 -111c-76 0 -119 46 -119 111z" />
    <glyph glyph-name="question" unicode="?" horiz-adv-x="595" 
d="M199 233v43c0 128 128 173 128 229c0 20 -15 29 -34 29c-31 0 -43 -11 -43 -54h-224c0 195 135 252 292 252c135 0 253 -52 253 -196c0 -155 -148 -202 -148 -277v-26h-224zM197 91c0 64 42 103 111 103c68 0 110 -39 110 -103c0 -61 -40 -104 -109 -104
c-72 0 -112 43 -112 104z" />
    <glyph glyph-name="exclam" unicode="!" horiz-adv-x="313" 
d="M65 233l-20 257v230h223v-230l-22 -257h-181zM47 91c0 64 42 103 111 103c68 0 110 -39 110 -103c0 -61 -40 -104 -109 -104c-72 0 -112 43 -112 104z" />
    <glyph glyph-name="exclamdown" unicode="&#xa1;" horiz-adv-x="313" 
d="M45 42l20 257h181l22 -257v-230h-223v230zM47 441c0 61 40 104 112 104c69 0 109 -43 109 -104c0 -64 -42 -103 -110 -103c-69 0 -111 39 -111 103z" />
    <glyph glyph-name="questiondown" unicode="&#xbf;" horiz-adv-x="595" 
d="M398 299v-43c0 -128 -128 -173 -128 -229c0 -20 15 -29 34 -29c31 0 43 11 43 54h224c0 -195 -135 -252 -292 -252c-135 0 -253 52 -253 196c0 155 148 202 148 277v26h224zM400 441c0 -64 -42 -103 -111 -103c-68 0 -110 39 -110 103c0 61 40 104 109 104
c72 0 112 -43 112 -104z" />
    <glyph glyph-name="at" unicode="@" horiz-adv-x="970" 
d="M523 199l38 136c-11 3 -22 5 -41 5c-82 0 -131 -81 -131 -160c0 -39 20 -65 52 -65c37 0 67 32 82 84zM704 395l-53 -203c-7 -27 -11 -41 -11 -49c0 -11 11 -17 24 -17c81 0 122 98 122 181c0 149 -97 234 -261 234c-219 0 -344 -152 -344 -352c0 -189 124 -289 310 -289
c93 0 203 23 290 90l57 -85c-105 -83 -230 -114 -342 -114c-261 0 -436 135 -436 399c0 267 192 461 468 461c221 0 381 -137 381 -332c0 -218 -158 -310 -278 -310c-48 0 -89 23 -105 63c-36 -44 -77 -61 -122 -61c-93 0 -136 67 -136 157c0 172 116 274 262 274
c67 0 123 -20 174 -47z" />
    <glyph glyph-name="A" unicode="A" horiz-adv-x="756" 
d="M232 720h291l243 -720h-279l-24 95h-184l-24 -95h-265zM324 268h96l-43 206z" />
    <glyph glyph-name="B" unicode="B" horiz-adv-x="681" 
d="M35 0v720h337c145 0 271 -52 271 -191c0 -77 -41 -135 -114 -152v-2c93 -19 138 -91 138 -165c0 -168 -123 -210 -354 -210h-278zM361 295h-72v-94h73c28 0 46 19 46 47c0 31 -19 47 -47 47zM353 519h-64v-79h63c28 0 46 14 46 39s-17 40 -45 40z" />
    <glyph glyph-name="C" unicode="C" horiz-adv-x="705" 
d="M583 280l102 -167c-100 -89 -204 -128 -321 -128c-222 0 -344 144 -344 369c0 226 127 381 355 381c179 0 307 -82 318 -311h-248c-5 57 -24 82 -72 82c-49 0 -86 -36 -86 -151c0 -101 41 -141 109 -141c71 0 128 27 187 66z" />
    <glyph glyph-name="D" unicode="D" horiz-adv-x="727" 
d="M339 503h-50v-286h50c67 0 101 43 101 140s-34 146 -101 146zM35 720h314c245 0 358 -160 358 -352c0 -248 -122 -368 -399 -368h-273v720z" />
    <glyph glyph-name="E" unicode="E" horiz-adv-x="595" 
d="M35 0v720h534v-217h-280v-57h254v-169h-254v-60h281v-217h-535z" />
    <glyph glyph-name="F" unicode="F" horiz-adv-x="584" 
d="M35 0v720h534v-217h-280v-78h244v-191h-244v-234h-254z" />
    <glyph glyph-name="G" unicode="G" horiz-adv-x="716" 
d="M379 243v159h309v-307c-92 -83 -198 -110 -317 -110c-257 0 -351 183 -351 368c0 217 109 382 356 382c207 0 299 -101 315 -282h-253c-8 41 -26 57 -65 57c-52 0 -86 -41 -86 -152c0 -92 18 -162 97 -162c33 0 59 7 80 20v27h-85z" />
    <glyph glyph-name="H" unicode="H" horiz-adv-x="726" 
d="M35 0v720h254v-263h148v263h254v-720h-254v240h-148v-240h-254z" />
    <glyph glyph-name="I" unicode="I" horiz-adv-x="324" 
d="M35 0v720h254v-720h-254z" />
    <glyph glyph-name="J" unicode="J" horiz-adv-x="441" 
d="M411 720v-486c0 -169 -83 -247 -222 -247c-76 0 -134 7 -179 19l10 198c19 -4 47 -8 74 -8c47 0 62 14 62 65v459h255z" />
    <glyph glyph-name="J.alt" horiz-adv-x="451" 
d="M421 720v-473c0 -171 -82 -247 -261 -247h-140v223h79c56 0 67 17 67 65v432h255z" />
    <glyph glyph-name="K" unicode="K" horiz-adv-x="724" 
d="M35 0v720h254v-262h26l127 262h283l-190 -356l199 -364h-289l-129 252h-27v-252h-254z" />
    <glyph glyph-name="L" unicode="L" horiz-adv-x="580" 
d="M35 720h254v-511h271v-209h-525v720z" />
    <glyph glyph-name="M" unicode="M" horiz-adv-x="894" 
d="M871 0h-235l-9 331h-4l-82 -331h-178l-86 329h-5l-10 -329h-239l67 720h247l111 -435h5l112 435h240z" />
    <glyph glyph-name="N" unicode="N" horiz-adv-x="734" 
d="M35 0v720h217l197 -310v310h250v-720h-217l-197 286v-286h-250z" />
    <glyph glyph-name="O" unicode="O" horiz-adv-x="800" 
d="M287 357c0 -75 28 -143 113 -143s113 69 113 143s-28 149 -113 149s-113 -77 -113 -149zM20 357c0 217 136 378 380 378s380 -157 380 -378c0 -215 -138 -372 -382 -372c-245 0 -378 157 -378 372z" />
    <glyph glyph-name="P" unicode="P" horiz-adv-x="661" 
d="M339 498h-50v-118h45c39 0 57 24 57 60s-17 58 -52 58zM35 0v720h326c169 0 281 -97 281 -264c0 -172 -96 -273 -287 -273h-66v-183h-254z" />
    <glyph glyph-name="Q" unicode="Q" horiz-adv-x="800" 
d="M20 357c0 217 136 378 380 378s380 -157 380 -378c0 -180 -97 -320 -272 -360v-142h-212v141c-179 37 -276 178 -276 361zM287 357c0 -75 28 -143 113 -143s113 69 113 143s-28 149 -113 149s-113 -77 -113 -149z" />
    <glyph glyph-name="Q.alt" horiz-adv-x="800" 
d="M709 -107l-276 96c-11 0 -22 -1 -33 -1c-244 0 -380 154 -380 369c0 217 135 378 386 378c244 0 374 -161 374 -346c0 -130 -50 -209 -112 -260l1 -7l122 -43zM287 359c0 -78 29 -154 117 -154c81 0 109 66 109 145c0 84 -28 156 -113 156s-113 -72 -113 -147z" />
    <glyph glyph-name="R" unicode="R" horiz-adv-x="689" 
d="M35 720h323c191 0 294 -101 294 -251c0 -96 -32 -159 -96 -202l138 -267h-260l-98 208c-16 -3 -27 -3 -40 -3h-7v-205h-254v720zM344 498h-55v-111h53c35 0 56 21 56 56s-19 55 -54 55z" />
    <glyph glyph-name="S" unicode="S" horiz-adv-x="641" 
d="M0 122l120 153c68 -45 151 -84 206 -84c27 0 31 9 31 20c0 18 -17 25 -118 54c-132 37 -206 102 -206 229c0 165 134 241 293 241c99 0 207 -39 288 -99l-97 -162c-53 32 -122 59 -173 59c-27 0 -35 -7 -35 -18c0 -17 7 -22 127 -59c127 -40 185 -93 185 -214
c0 -164 -110 -257 -286 -257c-136 0 -255 53 -335 137z" />
    <glyph glyph-name="T" unicode="T" horiz-adv-x="660" 
d="M203 0v495h-193v225h640v-225h-193v-495h-254z" />
    <glyph glyph-name="U" unicode="U" horiz-adv-x="705" 
d="M30 720h254v-439c0 -55 28 -72 67 -72c37 0 70 17 70 72v439h254v-438c0 -201 -124 -297 -324 -297c-211 0 -321 94 -321 297v438z" />
    <glyph glyph-name="V" unicode="V" horiz-adv-x="702" 
d="M202 0l-212 720h261l102 -455l104 455h255l-214 -720h-296z" />
    <glyph glyph-name="W" unicode="W" horiz-adv-x="934" 
d="M146 0l-156 720h261l48 -395h5l51 395h222l52 -397h5l47 397h263l-158 -720h-250l-69 389h-4l-68 -389h-249z" />
    <glyph glyph-name="X" unicode="X" horiz-adv-x="740" 
d="M-10 0l226 361l-214 359h276l91 -171l94 171h287l-243 -359l229 -361h-294l-85 153l-82 -153h-285z" />
    <glyph glyph-name="Y" unicode="Y" horiz-adv-x="747" 
d="M240 0v237l-250 483h277l101 -254l105 254h284l-263 -482v-238h-254z" />
    <glyph glyph-name="Z" unicode="Z" horiz-adv-x="669" 
d="M15 0v158l249 345h-245v217h630v-90l-287 -413h286v-217h-633z" />
    <glyph glyph-name="a" unicode="a" horiz-adv-x="578" 
d="M306 159v36c-6 3 -15 4 -27 4c-23 0 -38 -9 -38 -34c0 -24 14 -32 35 -32c19 0 30 11 30 26zM550 328v-328h-196l-22 46c-31 -36 -87 -59 -139 -59c-93 0 -180 48 -180 164c0 105 84 158 236 158c24 0 41 0 57 -3v26c0 27 -16 41 -49 41c-63 0 -120 -14 -177 -30l-44 151
c73 28 166 51 246 51c183 0 268 -64 268 -217z" />
    <glyph glyph-name="b" unicode="b" horiz-adv-x="645" 
d="M277 346v-164c15 -11 29 -14 46 -14c31 0 49 27 49 95s-13 101 -48 101c-15 0 -35 -7 -47 -18zM219 0h-186v720h244v-215c29 23 72 40 131 40c104 0 222 -67 222 -272c0 -189 -81 -286 -228 -286c-76 0 -124 28 -160 65z" />
    <glyph glyph-name="c" unicode="c" horiz-adv-x="576" 
d="M500 214l51 -148c-55 -37 -144 -79 -252 -79c-152 0 -284 85 -284 273c0 157 107 285 295 285c152 0 255 -70 255 -241h-200c-1 43 -12 60 -43 60c-29 0 -49 -24 -49 -95c0 -72 26 -96 73 -96c41 0 97 18 154 41z" />
    <glyph glyph-name="d" unicode="d" horiz-adv-x="640" 
d="M400 0l-17 57c-29 -45 -82 -70 -147 -70c-151 0 -221 94 -221 278c0 201 122 280 237 280c39 0 83 -10 116 -35v210h244v-720h-212zM367 184v162c-11 12 -29 18 -44 18c-36 0 -50 -36 -50 -97c0 -67 15 -99 52 -99c15 0 31 4 42 16z" />
    <glyph glyph-name="e" unicode="e" horiz-adv-x="590" 
d="M501 183l42 -141c-68 -35 -141 -55 -241 -55c-184 0 -287 111 -287 273c0 173 113 285 294 285c167 0 268 -81 268 -245c0 -22 -3 -64 -6 -82h-298c3 -29 15 -61 64 -61c43 0 91 7 164 26zM273 322h73c0 41 -12 62 -35 62c-25 0 -38 -21 -38 -62z" />
    <glyph glyph-name="f" unicode="f" horiz-adv-x="396" 
d="M74 0v374h-70v125l70 26v10c0 133 65 197 205 197c51 0 87 -4 127 -15l-11 -155c-17 5 -33 8 -46 8c-25 0 -31 -14 -31 -27v-10h69v-159h-69v-374h-244z" />
    <glyph glyph-name="g" unicode="g" horiz-adv-x="640" 
d="M612 533v-462c0 -210 -92 -281 -278 -281c-85 0 -180 19 -233 36l33 153c44 -11 107 -21 163 -21c59 0 80 19 80 70v46c-36 -47 -91 -61 -139 -61c-120 0 -223 46 -223 249c0 176 90 283 234 283c61 0 112 -21 147 -54l18 42h198zM367 209v137c-12 11 -25 18 -44 18
c-37 0 -50 -27 -50 -91c0 -60 16 -80 53 -80c16 0 30 5 41 16z" />
    <glyph glyph-name="h" unicode="h" horiz-adv-x="621" 
d="M33 720h244v-224c35 31 86 49 142 49c96 0 174 -57 174 -169v-376h-245v314c0 40 -11 49 -31 49c-14 0 -27 -5 -40 -16v-347h-244v720z" />
    <glyph glyph-name="i" unicode="i" horiz-adv-x="310" 
d="M25 664c0 69 56 102 129 102c76 0 131 -33 131 -102c0 -68 -54 -100 -131 -100c-72 0 -129 32 -129 100zM277 533v-533h-244v533h244z" />
    <glyph glyph-name="j" unicode="j" horiz-adv-x="310" 
d="M277 533v-544c0 -133 -65 -197 -205 -197c-48 0 -88 5 -121 15l11 154c13 -3 26 -4 38 -4c25 0 33 7 33 34v542h244zM28 664c0 69 56 102 129 102c76 0 131 -33 131 -102c0 -68 -54 -100 -131 -100c-72 0 -129 32 -129 100z" />
    <glyph glyph-name="j.alt" horiz-adv-x="304" 
d="M274 533v-514c0 -159 -55 -223 -247 -223h-78v189h30c48 0 51 18 51 50v498h244zM25 664c0 69 56 102 129 102c76 0 131 -33 131 -102c0 -68 -54 -100 -131 -100c-72 0 -129 32 -129 100z" />
    <glyph glyph-name="k" unicode="k" horiz-adv-x="632" 
d="M277 720v-339h18l64 152h260l-124 -243l147 -290h-268l-86 192h-11v-192h-244v720h244z" />
    <glyph glyph-name="l" unicode="l" horiz-adv-x="310" 
d="M277 0h-244v720h244v-720z" />
    <glyph glyph-name="m" unicode="m" horiz-adv-x="888" 
d="M33 0v533h245c105 0 152 -27 171 -78c43 53 112 90 200 90c131 0 211 -60 211 -225v-320h-239v324c0 27 -10 40 -31 40c-9 0 -19 -3 -28 -9v-355h-228v315c0 31 -10 43 -33 43h-29v-358h-239z" />
    <glyph glyph-name="m.alt" horiz-adv-x="889" 
d="M33 533h198l23 -48c29 28 76 60 147 60c57 0 105 -21 136 -62c35 28 87 62 163 62c88 0 161 -56 161 -173v-372h-244v323c0 32 -4 41 -21 41c-11 0 -20 -4 -27 -8v-356h-244v323c0 32 -3 41 -22 41c-9 0 -19 -4 -26 -8v-356h-244v533z" />
    <glyph glyph-name="n" unicode="n" horiz-adv-x="612" 
d="M33 533h198l23 -48c29 28 86 60 150 60c101 0 180 -56 180 -173v-372h-244v319c0 36 -8 45 -28 45c-13 0 -22 -5 -35 -16v-348h-244v533z" />
    <glyph glyph-name="o" unicode="o" horiz-adv-x="645" 
d="M273 267c0 -68 16 -98 51 -98c31 0 48 30 48 98s-16 97 -48 97c-35 0 -51 -29 -51 -97zM15 267c0 195 148 278 309 278c167 0 306 -83 306 -278s-146 -280 -318 -280c-167 0 -297 85 -297 280z" />
    <glyph glyph-name="p" unicode="p" horiz-adv-x="645" 
d="M277 346v-166c13 -7 27 -11 41 -11c35 0 52 26 52 94s-15 98 -48 98c-16 0 -31 -5 -45 -15zM277 -200h-244v733h197l28 -45c47 43 91 57 150 57c103 0 220 -67 220 -272c0 -189 -78 -285 -223 -285c-60 0 -101 20 -128 37v-225z" />
    <glyph glyph-name="q" unicode="q" horiz-adv-x="640" 
d="M366 -200v228c-23 -21 -60 -40 -120 -40c-154 0 -231 92 -231 277c0 201 122 280 242 280c38 0 92 -6 140 -48l36 36h179v-733h-246zM367 184v162c-11 12 -29 18 -44 18c-36 0 -50 -36 -50 -97s13 -99 50 -99c15 0 33 5 44 16z" />
    <glyph glyph-name="r" unicode="r" horiz-adv-x="419" 
d="M220 533l30 -62c25 43 59 74 102 74c27 0 46 -6 65 -15l-14 -201c-27 7 -35 8 -62 8c-21 0 -48 -9 -64 -25v-312h-244v533h187z" />
    <glyph glyph-name="s" unicode="s" horiz-adv-x="540" 
d="M0 94l100 119c51 -37 120 -63 149 -63c13 0 19 5 19 15c0 11 -16 14 -67 31c-100 34 -170 68 -170 170c0 122 107 179 246 179c92 0 181 -28 245 -75l-79 -125c-48 24 -102 46 -132 46c-20 0 -23 -6 -23 -13c0 -10 15 -18 81 -39c107 -35 156 -78 156 -164
c0 -123 -90 -188 -245 -188c-109 0 -203 36 -280 107z" />
    <glyph glyph-name="t" unicode="t" horiz-adv-x="418" 
d="M405 374h-83v-176c0 -19 6 -29 30 -29c15 0 28 2 40 5l20 -162c-56 -19 -103 -25 -160 -25c-125 0 -174 71 -174 164v223h-74v117l80 40l9 166h229v-164h83v-159z" />
    <glyph glyph-name="u" unicode="u" horiz-adv-x="614" 
d="M586 0h-193l-31 55c-35 -45 -82 -68 -150 -68c-112 0 -179 61 -179 174v372h245v-328c0 -24 9 -36 28 -36c13 0 29 7 36 16v348h244v-533z" />
    <glyph glyph-name="v" unicode="v" horiz-adv-x="587" 
d="M-10 533h244l62 -301h4l65 301h232l-172 -533h-262z" />
    <glyph glyph-name="w" unicode="w" horiz-adv-x="850" 
d="M618 533h242l-152 -533h-247l-29 228h-5l-32 -228h-252l-153 533h242l46 -289h4l29 289h229l39 -289h4z" />
    <glyph glyph-name="x" unicode="x" horiz-adv-x="619" 
d="M-10 0l166 262l-161 271h264l52 -113l60 113h257l-170 -271l171 -262h-259l-62 117l-60 -117h-258z" />
    <glyph glyph-name="y" unicode="y" horiz-adv-x="599" 
d="M89 -200v177h74c29 0 32 10 32 25v16l-205 515h254l58 -286h4l52 286h251l-190 -493v-67c0 -115 -62 -173 -185 -173h-145z" />
    <glyph glyph-name="y.alt" horiz-adv-x="599" 
d="M369 532h229l-190 -529c-59 -165 -117 -212 -242 -212c-61 0 -106 5 -133 12l21 159c17 -3 37 -4 64 -4c32 0 48 9 60 44l3 9l-180 521h230l67 -309h4z" />
    <glyph glyph-name="z" unicode="z" 
d="M23 0v145l150 212h-147v176h455v-92l-172 -266h174v-175h-460z" />
    <glyph glyph-name="bracketleft" unicode="[" horiz-adv-x="402" 
d="M358 -125h-314v845h314v-174h-89v-499h89v-172z" />
    <glyph glyph-name="bracketright" unicode="]" horiz-adv-x="402" 
d="M358 -125h-314v172h89v499h-89v174h314v-845z" />
    <glyph glyph-name="parenleft" unicode="(" horiz-adv-x="401" 
d="M210 749l171 -83c-93 -132 -115 -210 -115 -354c0 -114 31 -208 130 -355l-152 -106c-111 98 -211 262 -211 445c0 181 62 325 177 453z" />
    <glyph glyph-name="parenright" unicode=")" horiz-adv-x="401" 
d="M20 666l171 83c115 -128 177 -272 177 -453c0 -183 -100 -347 -211 -445l-152 106c99 147 130 241 130 355c0 145 -24 220 -115 354z" />
    <glyph glyph-name="braceleft" unicode="{" horiz-adv-x="474" 
d="M429 557h-50c-38 0 -42 -15 -42 -94c0 -39 -1 -67 -4 -90c-7 -43 -32 -66 -73 -83c71 -21 77 -54 77 -149c0 -91 1 -104 62 -104h30v-162h-66c-185 0 -244 29 -244 186v105c0 37 -14 43 -42 43h-42v157h32c46 0 52 16 52 94v76c0 141 72 184 244 184h66v-163z" />
    <glyph glyph-name="braceright" unicode="}" horiz-adv-x="474" 
d="M95 557h-50v163h66c172 0 244 -43 244 -184v-76c0 -78 6 -94 52 -94h32v-157h-42c-28 0 -42 -6 -42 -43v-105c0 -157 -59 -186 -244 -186h-66v162h30c61 0 62 13 62 104c0 95 6 128 77 149c-41 17 -66 40 -73 83c-3 23 -4 51 -4 90c0 79 -4 94 -42 94z" />
    <glyph glyph-name="backslash" unicode="\" horiz-adv-x="446" 
d="M215 739l232 -831h-192l-233 831h193z" />
    <glyph glyph-name="slash" unicode="/" horiz-adv-x="447" 
d="M8 -92l232 831h193l-233 -831h-192z" />
    <glyph glyph-name="brokenbar" unicode="&#xa6;" 
d="M353 230v-430h-206v430h206zM353 720v-430h-206v430h206z" />
    <glyph glyph-name="bar" unicode="|" 
d="M353 720v-920h-206v920h206z" />
    <glyph glyph-name="asciicircum" unicode="^" horiz-adv-x="739" 
d="M427 693l226 -241l-114 -92l-169 172l-175 -173l-120 94l232 240h120z" />
    <glyph glyph-name="underscore" unicode="_" horiz-adv-x="470" 
d="M-5 -244v160h482v-160h-482z" />
    <glyph glyph-name="asciitilde" unicode="~" horiz-adv-x="807" 
d="M674 398l53 -128c-57 -39 -120 -63 -197 -63c-47 0 -88 12 -135 23l-13 3c-40 11 -74 20 -105 20c-39 0 -86 -15 -143 -46l-54 128c57 39 120 63 197 63c87 0 184 -46 253 -46c7 0 16 1 24 2c35 5 73 19 120 44z" />
    <glyph glyph-name="zero" unicode="0" horiz-adv-x="633" 
d="M260 350c0 -109 9 -159 56 -159c44 0 58 45 58 164c0 108 -8 163 -57 163c-48 0 -57 -52 -57 -168zM22 350c0 252 109 370 300 370s289 -122 289 -355c0 -259 -106 -378 -299 -378s-290 121 -290 363z" />
    <glyph glyph-name="one" unicode="1" horiz-adv-x="556" 
d="M61 0v181h124v248c-42 -13 -86 -16 -133 -10l-28 157c77 23 157 73 208 133h189v-528h115v-181h-475z" />
    <glyph glyph-name="two" unicode="2" horiz-adv-x="577" 
d="M34 0v141l199 214c49 53 71 83 71 116c0 31 -20 42 -52 42c-47 0 -102 -33 -153 -69l-95 147c75 75 175 129 283 129c142 0 256 -66 256 -216c0 -87 -37 -136 -111 -213l-94 -98h222v-193h-526z" />
    <glyph glyph-name="three" unicode="3" horiz-adv-x="585" 
d="M9 87l64 148c49 -27 116 -51 167 -51c41 0 77 11 77 51c0 36 -32 46 -77 46c-25 0 -54 -3 -75 -7l-5 153c77 3 136 22 136 62c0 25 -20 38 -53 38c-47 0 -90 -15 -130 -35l-85 144c81 55 157 84 264 84c132 0 224 -66 224 -177c0 -80 -50 -140 -133 -171
c92 -11 154 -66 154 -167c0 -153 -122 -218 -277 -218c-88 0 -186 33 -251 100z" />
    <glyph glyph-name="four" unicode="4" horiz-adv-x="657" 
d="M231 307h110v191zM341 0v129h-311v175l251 405h278v-402h78v-178h-78v-129h-218z" />
    <glyph glyph-name="five" unicode="5" horiz-adv-x="560" 
d="M33 272l34 437h427l-13 -186h-254l-7 -77c24 15 60 27 116 27c111 0 198 -72 198 -225c0 -176 -127 -261 -276 -261c-93 0 -191 36 -248 99l63 147c65 -32 107 -49 163 -49c32 0 74 18 74 75c0 43 -21 63 -57 63c-19 0 -38 -6 -49 -17l-4 -33h-167z" />
    <glyph glyph-name="six" unicode="6" horiz-adv-x="604" 
d="M29 336c0 220 102 384 303 384c69 0 136 -14 216 -54l-55 -149c-39 17 -93 25 -133 25c-64 0 -111 -45 -114 -129c32 28 82 51 141 51c100 0 196 -58 196 -207c0 -200 -131 -270 -268 -270c-202 0 -286 149 -286 349zM310 179c36 0 53 23 53 66c0 36 -15 59 -51 59
c-19 0 -43 -10 -56 -27c0 -52 5 -98 54 -98z" />
    <glyph glyph-name="seven" unicode="7" horiz-adv-x="533" 
d="M528 571l-221 -571h-247v21l221 495h-261v193h508v-138z" />
    <glyph glyph-name="eight" unicode="8" horiz-adv-x="604" 
d="M229 216c0 -27 14 -48 61 -48c27 0 48 15 48 38c0 37 -41 56 -82 75c-15 -16 -27 -44 -27 -65zM273 519c0 -23 21 -40 62 -64c13 17 25 42 25 63c0 25 -23 37 -46 37c-24 0 -41 -15 -41 -36zM24 187c0 97 62 154 104 177c-37 21 -88 74 -88 149c0 120 99 207 262 207
c164 0 258 -71 258 -186c0 -76 -52 -127 -81 -151c51 -35 106 -85 106 -175c0 -147 -114 -221 -283 -221c-171 0 -278 69 -278 200z" />
    <glyph glyph-name="nine" unicode="9" horiz-adv-x="604" 
d="M575 394c0 -229 -102 -408 -294 -408c-79 0 -146 14 -225 50l51 154c41 -16 98 -29 140 -29c71 0 96 51 104 130c-32 -28 -76 -45 -128 -45c-113 0 -202 70 -202 210c0 190 135 264 268 264c195 0 286 -118 286 -326zM294 529c-36 0 -54 -19 -54 -57c0 -36 16 -57 52 -57
c19 0 43 10 56 27c3 39 -9 87 -54 87z" />
    <glyph glyph-name="dollar" unicode="$" horiz-adv-x="568" 
d="M212 -88v95c-81 16 -151 55 -207 115l104 132c62 -41 134 -79 181 -79c21 0 32 6 32 19c0 17 -15 28 -116 60c-117 37 -183 100 -183 212c0 124 82 189 190 210v84h162v-87c60 -15 119 -40 163 -77l-80 -140c-49 28 -104 54 -155 54c-30 0 -45 -8 -45 -23
c0 -20 14 -30 121 -65c115 -37 176 -89 176 -204c0 -117 -67 -189 -180 -212v-94h-163z" />
    <glyph glyph-name="Euro" unicode="&#x20ac;" horiz-adv-x="637" 
d="M-2 284l11 147h64c24 165 130 289 309 289c87 0 170 -29 242 -89l-82 -137c-45 28 -98 42 -141 42c-59 0 -90 -45 -101 -105h203l-10 -147h-196c11 -63 48 -101 107 -101c45 0 105 20 153 48l71 -143c-91 -71 -170 -101 -263 -101c-160 0 -277 120 -296 297h-71z" />
    <glyph glyph-name="cent" unicode="&#xa2;" horiz-adv-x="566" 
d="M219 -17v105c-112 27 -207 117 -207 264c0 135 75 234 208 263v104h162v-102c124 -23 173 -102 169 -222h-186c0 40 -16 60 -49 60c-43 0 -63 -36 -63 -99c0 -72 34 -103 82 -103c51 0 92 14 155 49l57 -134c-44 -35 -100 -64 -165 -79v-106h-163z" />
    <glyph glyph-name="sterling" unicode="&#xa3;" horiz-adv-x="565" 
d="M331 243c0 -17 -10 -44 -23 -57h238v-186h-515v165l76 16c19 13 28 40 28 63c0 19 -7 45 -12 57h-92v135h50c-9 15 -25 53 -25 100c0 104 85 184 244 184c95 0 191 -39 255 -98l-87 -137c-44 32 -85 48 -132 48c-44 0 -59 -19 -59 -46c0 -15 6 -39 13 -51h127v-135h-98
c7 -15 12 -42 12 -58z" />
    <glyph glyph-name="yen" unicode="&#xa5;" horiz-adv-x="633" 
d="M591 384v-167h-167v-217h-224v217h-156v167h104l-163 325h238l90 -218l96 218h239l-170 -325h113z" />
    <glyph glyph-name="florin" unicode="&#x192;" horiz-adv-x="515" 
d="M-19 -32h38c27 0 40 12 47 43l59 268h-83v154h115l11 64c24 132 63 212 219 212h114v-173h-65c-27 0 -38 -16 -43 -44l-10 -59h84v-154h-115l-59 -277c-24 -109 -74 -202 -222 -202h-90v168z" />
    <glyph glyph-name="section" unicode="&#xa7;" horiz-adv-x="542" 
d="M38 83l72 117c40 -27 106 -59 146 -59c21 0 28 5 28 16s-11 16 -51 31l-76 29c-67 26 -101 69 -101 128c0 51 22 81 57 108c-43 31 -60 62 -60 107c0 114 106 173 220 173c92 0 174 -23 234 -74l-59 -117c-68 31 -118 40 -150 40c-21 0 -32 -5 -32 -16
c0 -13 12 -20 88 -47c121 -46 144 -77 144 -137c0 -51 -30 -87 -73 -110c57 -31 82 -65 82 -116c0 -126 -115 -168 -215 -168c-89 0 -193 31 -254 95zM253 395c-8 -12 -12 -22 -12 -29c0 -13 9 -23 50 -38c7 11 13 19 13 31c0 11 -17 23 -51 36z" />
    <glyph glyph-name="copyright" unicode="&#xa9;" horiz-adv-x="810" 
d="M526 299l46 -75c-49 -44 -103 -63 -171 -63c-108 0 -174 84 -174 197c0 117 68 202 185 202c87 0 155 -47 162 -152h-107c-4 35 -17 54 -56 54c-41 0 -68 -34 -68 -103c0 -68 31 -98 74 -98s77 19 109 38zM405 645c-155 0 -280 -112 -280 -285c0 -175 116 -285 280 -285
c155 0 282 128 282 285c0 167 -109 285 -282 285zM405 720c222 0 360 -141 360 -356c0 -212 -163 -364 -360 -364c-194 0 -360 126 -360 360c0 217 163 360 360 360z" />
    <glyph glyph-name="registered" unicode="&#xae;" horiz-adv-x="424" 
d="M138 635h75c51 0 76 -26 76 -63c0 -23 -10 -39 -30 -50l40 -69h-55l-32 60c-3 -1 -8 -1 -15 -1h-10v-59h-49v182zM212 594h-25v-46h24c19 0 27 10 27 23s-7 23 -26 23zM212 684c-76 0 -138 -56 -138 -140c0 -92 54 -142 138 -142c77 0 137 63 137 141
c0 89 -60 141 -137 141zM212 735c107 0 192 -75 192 -192c0 -107 -85 -192 -192 -192c-111 0 -192 67 -192 192c0 113 85 192 192 192z" />
    <glyph glyph-name="trademark" unicode="&#x2122;" horiz-adv-x="675" 
d="M645 443h-89l-11 139l-37 -139h-68l-39 139l-11 -139h-91l30 277h100l43 -150l44 150h100zM106 443v192h-81v85h260v-85h-82v-192h-97z" />
    <glyph glyph-name="ordfeminine" unicode="&#xaa;" horiz-adv-x="510" 
d="M287 374v47c-7 3 -18 4 -27 4c-35 0 -47 -14 -47 -35c0 -23 12 -34 35 -34s39 13 39 18zM455 511v-247h-140l-11 40c-25 -28 -70 -49 -114 -49c-75 0 -140 35 -140 118c0 77 59 127 167 127c23 0 47 -2 70 -6v21c0 24 -20 33 -48 33c-49 0 -94 -9 -138 -22l-32 103
c53 21 124 39 185 39c133 0 201 -45 201 -157z" />
    <glyph glyph-name="ordmasculine" unicode="&#xba;" horiz-adv-x="534" 
d="M219 461c0 -60 19 -81 50 -81c27 0 47 21 47 81c0 61 -20 82 -47 82c-31 0 -50 -21 -50 -82zM40 461c0 145 111 207 229 207c117 0 225 -62 225 -207c0 -144 -114 -206 -225 -206c-132 0 -229 62 -229 206z" />
    <glyph glyph-name="guillemotleft" unicode="&#xab;" horiz-adv-x="592" 
d="M582 367l-99 -105l98 -103l-116 -108l-176 175v70l175 176zM313 367l-99 -105l98 -103l-116 -108l-176 175v70l175 176z" />
    <glyph glyph-name="guillemotright" unicode="&#xbb;" horiz-adv-x="592" 
d="M378 262l-99 105l118 105l175 -176v-70l-176 -175l-116 108zM109 262l-99 105l118 105l175 -176v-70l-176 -175l-116 108z" />
    <glyph glyph-name="guilsinglleft" unicode="&#x2039;" horiz-adv-x="323" 
d="M313 367l-99 -105l98 -103l-116 -108l-176 175v70l175 176z" />
    <glyph glyph-name="guilsinglright" unicode="&#x203a;" horiz-adv-x="323" 
d="M109 262l-99 105l118 105l175 -176v-70l-176 -175l-116 108z" />
    <glyph glyph-name="quoteleft" unicode="&#x2018;" horiz-adv-x="244" 
d="M227 546c0 -51 -41 -90 -98 -90c-71 0 -109 48 -109 115c0 99 64 164 172 184l25 -70c-53 -17 -65 -35 -74 -62c15 3 34 -1 45 -6c28 -15 39 -40 39 -71z" />
    <glyph glyph-name="quoteright" unicode="&#x2019;" horiz-adv-x="250" 
d="M23 635c0 51 41 90 98 90c71 0 109 -48 109 -115c0 -99 -64 -164 -172 -184l-25 70c53 17 65 35 74 62c-15 -3 -34 1 -45 6c-28 15 -39 40 -39 71z" />
    <glyph glyph-name="quotesinglbase" unicode="&#x201a;" horiz-adv-x="250" 
d="M23 62c0 51 41 90 98 90c71 0 109 -48 109 -115c0 -99 -64 -164 -172 -184l-25 70c53 17 65 35 74 62c-15 -3 -34 1 -45 6c-28 15 -39 40 -39 71z" />
    <glyph glyph-name="quotedblleft" unicode="&#x201c;" horiz-adv-x="470" 
d="M227 546c0 -51 -41 -90 -98 -90c-71 0 -109 48 -109 115c0 99 64 164 172 184l25 -70c-53 -17 -65 -35 -74 -62c15 3 34 -1 45 -6c28 -15 39 -40 39 -71zM453 546c0 -51 -41 -90 -98 -90c-71 0 -109 48 -109 115c0 99 64 164 172 184l25 -70c-53 -17 -65 -35 -74 -62
c15 3 34 -1 45 -6c28 -15 39 -40 39 -71z" />
    <glyph glyph-name="quotedblright" unicode="&#x201d;" horiz-adv-x="476" 
d="M249 635c0 51 41 90 98 90c71 0 109 -48 109 -115c0 -99 -64 -164 -172 -184l-25 70c53 17 65 35 74 62c-15 -3 -34 1 -45 6c-28 15 -39 40 -39 71zM23 635c0 51 41 90 98 90c71 0 109 -48 109 -115c0 -99 -64 -164 -172 -184l-25 70c53 17 65 35 74 62
c-15 -3 -34 1 -45 6c-28 15 -39 40 -39 71z" />
    <glyph glyph-name="quotedblbase" unicode="&#x201e;" horiz-adv-x="478" 
d="M251 62c0 51 41 90 98 90c71 0 109 -48 109 -115c0 -99 -64 -164 -172 -184l-25 70c53 17 65 35 74 62c-15 -3 -34 1 -45 6c-28 15 -39 40 -39 71zM23 62c0 51 41 90 98 90c71 0 109 -48 109 -115c0 -99 -64 -164 -172 -184l-25 70c53 17 65 35 74 62c-15 -3 -34 1 -45 6
c-28 15 -39 40 -39 71z" />
    <glyph glyph-name="dagger" unicode="&#x2020;" horiz-adv-x="501" 
d="M358 -105h-216v446h-117v192h117v187h216v-187h118v-192h-118v-446z" />
    <glyph glyph-name="daggerdbl" unicode="&#x2021;" horiz-adv-x="502" 
d="M360 -105h-217v182h-118v192h118v72h-118v192h118v187h217v-187h117v-192h-117v-72h117v-192h-117v-182z" />
    <glyph glyph-name="bullet" unicode="&#x2022;" 
d="M84 312c0 93 76 165 166 165c88 0 166 -72 166 -165c0 -91 -76 -167 -167 -167c-96 0 -165 81 -165 167z" />
    <glyph glyph-name="ellipsis" unicode="&#x2026;" horiz-adv-x="1000" 
d="M390 98c0 68 45 109 118 109c72 0 117 -41 117 -109c0 -65 -43 -111 -116 -111c-76 0 -119 46 -119 111zM78 98c0 68 45 109 118 109c72 0 117 -41 117 -109c0 -65 -43 -111 -116 -111c-76 0 -119 46 -119 111zM708 98c0 68 45 109 118 109c72 0 117 -41 117 -109
c0 -65 -43 -111 -116 -111c-76 0 -119 46 -119 111z" />
    <glyph glyph-name="paragraph" unicode="&#xb6;" horiz-adv-x="582" 
d="M547 720v-720h-137v603h-52v-603h-138v303c-136 19 -200 93 -200 209c0 124 93 208 250 208h277z" />
    <glyph glyph-name="periodcentered" unicode="&#xb7;" horiz-adv-x="357" 
d="M61 325c0 68 45 109 118 109c72 0 117 -41 117 -109c0 -65 -43 -111 -116 -111c-76 0 -119 46 -119 111z" />
    <glyph glyph-name="uni00AD" unicode="&#xad;" horiz-adv-x="318" 
d="M23 184v183h271v-183h-271z" />
    <glyph glyph-name="endash" unicode="&#x2013;" 
d="M0 180v152h500v-152h-500z" />
    <glyph glyph-name="emdash" unicode="&#x2014;" horiz-adv-x="1000" 
d="M0 179v151h1000v-151h-1000z" />
    <glyph glyph-name="hyphen.case" horiz-adv-x="318" 
d="M23 246v183h271v-183h-271z" />
    <glyph glyph-name="Agrave" unicode="&#xc0;" horiz-adv-x="756" 
d="M232 720h291l243 -720h-279l-24 95h-184l-24 -95h-265zM324 268h96l-43 206zM309 982l206 -124l-63 -108l-217 96z" />
    <glyph glyph-name="Aacute" unicode="&#xc1;" horiz-adv-x="756" 
d="M232 720h291l243 -720h-279l-24 95h-184l-24 -95h-265zM324 268h96l-43 206zM235 858l206 124l74 -136l-217 -96z" />
    <glyph glyph-name="Acircumflex" unicode="&#xc2;" horiz-adv-x="756" 
d="M232 720h291l243 -720h-279l-24 95h-184l-24 -95h-265zM324 268h96l-43 206zM313 939h121l126 -119l-89 -73l-98 66l-98 -67l-88 75z" />
    <glyph glyph-name="Atilde" unicode="&#xc3;" horiz-adv-x="756" 
d="M232 720h291l243 -720h-279l-24 95h-184l-24 -95h-265zM324 268h96l-43 206zM479 947l107 -43c-16 -78 -49 -142 -117 -142c-56 0 -110 29 -136 29c-17 0 -26 -7 -41 -36l-104 46c21 72 55 139 119 139c54 0 102 -28 133 -28c23 0 28 12 39 35z" />
    <glyph glyph-name="Adieresis" unicode="&#xc4;" horiz-adv-x="756" 
d="M232 720h291l243 -720h-279l-24 95h-184l-24 -95h-265zM324 268h96l-43 206zM400 848c0 51 38 92 107 92c76 0 106 -41 106 -92c0 -53 -40 -89 -105 -89c-72 0 -108 33 -108 89zM138 848c0 51 38 92 107 92c76 0 106 -41 106 -92c0 -53 -40 -89 -105 -89
c-72 0 -108 33 -108 89z" />
    <glyph glyph-name="Aring" unicode="&#xc5;" horiz-adv-x="756" 
d="M227 753c0 91 67 139 151 139c83 0 150 -45 150 -133c0 -13 -2 -26 -5 -39l243 -720h-279l-24 95h-184l-24 -95h-265l241 717c-3 10 -4 22 -4 36zM324 268h96l-43 206zM337 759c0 -26 14 -39 41 -39c23 0 40 14 40 39c0 27 -17 38 -40 38c-27 0 -41 -13 -41 -38z" />
    <glyph glyph-name="AE" unicode="&#xc6;" horiz-adv-x="1008" 
d="M448 0v147h-143l-52 -147h-263l312 720h680v-217h-280v-57h254v-169h-254v-60h281v-217h-535zM359 320h89v188h-17z" />
    <glyph glyph-name="Ccedilla" unicode="&#xc7;" horiz-adv-x="705" 
d="M269 -233l15 83c19 -4 44 -9 67 -9c29 0 38 6 38 21c0 20 -18 25 -58 25h-25l19 103c-197 16 -305 151 -305 364c0 226 127 379 355 379c179 0 307 -82 318 -311h-248c-5 57 -24 82 -72 82c-49 0 -86 -35 -86 -149c0 -101 41 -138 109 -138c71 0 128 27 187 66l102 -167
c-88 -79 -177 -117 -277 -126l-5 -36c63 -5 104 -30 104 -91c0 -67 -42 -114 -131 -114c-45 0 -84 9 -107 18z" />
    <glyph glyph-name="Egrave" unicode="&#xc8;" horiz-adv-x="595" 
d="M35 0v720h534v-217h-280v-57h254v-169h-254v-60h281v-217h-535zM226 983l206 -124l-63 -108l-217 96z" />
    <glyph glyph-name="Eacute" unicode="&#xc9;" horiz-adv-x="595" 
d="M35 0v720h534v-217h-280v-57h254v-169h-254v-60h281v-217h-535zM168 859l206 124l74 -136l-217 -96z" />
    <glyph glyph-name="Ecircumflex" unicode="&#xca;" horiz-adv-x="595" 
d="M35 0v720h534v-217h-280v-57h254v-169h-254v-60h281v-217h-535zM243 940h121l126 -119l-89 -73l-98 66l-98 -67l-88 75z" />
    <glyph glyph-name="Edieresis" unicode="&#xcb;" horiz-adv-x="595" 
d="M35 0v720h534v-217h-280v-57h254v-169h-254v-60h281v-217h-535zM317 849c0 51 38 92 107 92c76 0 106 -41 106 -92c0 -53 -40 -89 -105 -89c-72 0 -108 33 -108 89zM55 849c0 51 38 92 107 92c76 0 106 -41 106 -92c0 -53 -40 -89 -105 -89c-72 0 -108 33 -108 89z" />
    <glyph glyph-name="Igrave" unicode="&#xcc;" horiz-adv-x="324" 
d="M35 0v720h254v-720h-254zM93 982l206 -124l-63 -108l-217 96z" />
    <glyph glyph-name="Iacute" unicode="&#xcd;" horiz-adv-x="324" 
d="M35 0v720h254v-720h-254zM19 858l206 124l74 -136l-217 -96z" />
    <glyph glyph-name="Icircumflex" unicode="&#xce;" horiz-adv-x="324" 
d="M35 0v720h254v-720h-254zM100 939h121l126 -119l-89 -73l-98 66l-98 -67l-88 75z" />
    <glyph glyph-name="Idieresis" unicode="&#xcf;" horiz-adv-x="324" 
d="M35 0v720h254v-720h-254zM184 848c0 51 38 92 107 92c76 0 106 -41 106 -92c0 -53 -40 -89 -105 -89c-72 0 -108 33 -108 89zM-78 848c0 51 38 92 107 92c76 0 106 -41 106 -92c0 -53 -40 -89 -105 -89c-72 0 -108 33 -108 89z" />
    <glyph glyph-name="Eth" unicode="&#xd0;" horiz-adv-x="780" 
d="M20 278v154h68v288h314c245 0 358 -160 358 -352c0 -248 -122 -368 -399 -368h-273v278h-68zM392 503h-50v-71h89v-154h-89v-61h50c67 0 101 43 101 140s-34 146 -101 146z" />
    <glyph glyph-name="Ntilde" unicode="&#xd1;" horiz-adv-x="734" 
d="M35 0v720h217l197 -310v310h250v-720h-217l-197 286v-286h-250zM467 947l107 -43c-16 -78 -49 -142 -117 -142c-56 0 -110 29 -136 29c-17 0 -26 -7 -41 -36l-104 46c21 72 55 139 119 139c54 0 102 -28 133 -28c23 0 28 12 39 35z" />
    <glyph glyph-name="Ograve" unicode="&#xd2;" horiz-adv-x="800" 
d="M287 357c0 -75 28 -143 113 -143s113 69 113 143s-28 149 -113 149s-113 -77 -113 -149zM20 357c0 217 136 378 380 378s380 -157 380 -378c0 -215 -138 -372 -382 -372c-245 0 -378 157 -378 372zM335 982l206 -124l-63 -108l-217 96z" />
    <glyph glyph-name="Oacute" unicode="&#xd3;" horiz-adv-x="800" 
d="M287 357c0 -75 28 -143 113 -143s113 69 113 143s-28 149 -113 149s-113 -77 -113 -149zM20 357c0 217 136 378 380 378s380 -157 380 -378c0 -215 -138 -372 -382 -372c-245 0 -378 157 -378 372zM261 858l206 124l74 -136l-217 -96z" />
    <glyph glyph-name="Ocircumflex" unicode="&#xd4;" horiz-adv-x="800" 
d="M287 357c0 -75 28 -143 113 -143s113 69 113 143s-28 149 -113 149s-113 -77 -113 -149zM20 357c0 217 136 378 380 378s380 -157 380 -378c0 -215 -138 -372 -382 -372c-245 0 -378 157 -378 372zM345 939h121l126 -119l-89 -73l-98 66l-98 -67l-88 75z" />
    <glyph glyph-name="Otilde" unicode="&#xd5;" horiz-adv-x="800" 
d="M287 357c0 -75 28 -143 113 -143s113 69 113 143s-28 149 -113 149s-113 -77 -113 -149zM20 357c0 217 136 378 380 378s380 -157 380 -378c0 -215 -138 -372 -382 -372c-245 0 -378 157 -378 372zM514 947l107 -43c-16 -78 -49 -142 -117 -142c-56 0 -110 29 -136 29
c-17 0 -26 -7 -41 -36l-104 46c21 72 55 139 119 139c54 0 102 -28 133 -28c23 0 28 12 39 35z" />
    <glyph glyph-name="Odieresis" unicode="&#xd6;" horiz-adv-x="800" 
d="M287 357c0 -75 28 -143 113 -143s113 69 113 143s-28 149 -113 149s-113 -77 -113 -149zM20 357c0 217 136 378 380 378s380 -157 380 -378c0 -215 -138 -372 -382 -372c-245 0 -378 157 -378 372zM426 848c0 51 38 92 107 92c76 0 106 -41 106 -92
c0 -53 -40 -89 -105 -89c-72 0 -108 33 -108 89zM164 848c0 51 38 92 107 92c76 0 106 -41 106 -92c0 -53 -40 -89 -105 -89c-72 0 -108 33 -108 89z" />
    <glyph glyph-name="Oslash" unicode="&#xd8;" horiz-adv-x="799" 
d="M19 357c0 217 136 376 380 376c8 0 17 0 25 -1l24 62h206l-44 -113c111 -64 169 -181 169 -324c0 -215 -136 -369 -380 -369c-15 0 -27 1 -42 2l-26 -69h-205l48 125c-101 64 -155 174 -155 311zM286 357c0 -67 28 -140 113 -140s113 73 113 140c0 68 -28 147 -113 147
s-113 -79 -113 -147z" />
    <glyph glyph-name="Ugrave" unicode="&#xd9;" horiz-adv-x="705" 
d="M30 720h254v-439c0 -55 28 -72 67 -72c37 0 70 17 70 72v439h254v-438c0 -201 -124 -297 -324 -297c-211 0 -321 94 -321 297v438zM287 982l206 -124l-63 -108l-217 96z" />
    <glyph glyph-name="Uacute" unicode="&#xda;" horiz-adv-x="705" 
d="M30 720h254v-439c0 -55 28 -72 67 -72c37 0 70 17 70 72v439h254v-438c0 -201 -124 -297 -324 -297c-211 0 -321 94 -321 297v438zM213 858l206 124l74 -136l-217 -96z" />
    <glyph glyph-name="Ucircumflex" unicode="&#xdb;" horiz-adv-x="705" 
d="M30 720h254v-439c0 -55 28 -72 67 -72c37 0 70 17 70 72v439h254v-438c0 -201 -124 -297 -324 -297c-211 0 -321 94 -321 297v438zM297 939h121l126 -119l-89 -73l-98 66l-98 -67l-88 75z" />
    <glyph glyph-name="Udieresis" unicode="&#xdc;" horiz-adv-x="705" 
d="M30 720h254v-439c0 -55 28 -72 67 -72c37 0 70 17 70 72v439h254v-438c0 -201 -124 -297 -324 -297c-211 0 -321 94 -321 297v438zM378 848c0 51 38 92 107 92c76 0 106 -41 106 -92c0 -53 -40 -89 -105 -89c-72 0 -108 33 -108 89zM116 848c0 51 38 92 107 92
c76 0 106 -41 106 -92c0 -53 -40 -89 -105 -89c-72 0 -108 33 -108 89z" />
    <glyph glyph-name="Yacute" unicode="&#xdd;" horiz-adv-x="747" 
d="M240 0v237l-250 483h277l101 -254l105 254h284l-263 -482v-238h-254zM244 858l206 124l74 -136l-217 -96z" />
    <glyph glyph-name="Thorn" unicode="&#xde;" horiz-adv-x="661" 
d="M32 0v720h254v-76h72c160 0 281 -84 281 -264c0 -172 -96 -273 -287 -273h-66v-107h-254zM336 422h-50v-118h50c35 0 52 24 52 63c0 37 -17 55 -52 55z" />
    <glyph glyph-name="germandbls" unicode="&#xdf;" horiz-adv-x="711" 
d="M78 0v374h-74v117l74 38c5 157 153 197 290 197c160 0 278 -64 278 -199c0 -81 -45 -133 -100 -156c93 -25 155 -87 155 -178c0 -136 -102 -206 -206 -206c-57 0 -114 18 -157 50l43 158c13 -6 27 -9 44 -9c24 0 36 11 36 34c0 34 -37 50 -111 48v179c43 0 64 18 64 54
c0 35 -17 47 -45 47c-29 0 -48 -15 -48 -62v-486h-243z" />
    <glyph glyph-name="agrave" unicode="&#xe0;" horiz-adv-x="578" 
d="M306 159v36c-6 3 -15 4 -27 4c-23 0 -38 -9 -38 -34c0 -24 14 -32 35 -32c19 0 30 11 30 26zM550 328v-328h-196l-22 46c-31 -36 -87 -59 -139 -59c-93 0 -180 48 -180 164c0 105 84 158 236 158c24 0 41 0 57 -3v26c0 27 -16 41 -49 41c-63 0 -120 -14 -177 -30l-44 151
c73 28 166 51 246 51c183 0 268 -64 268 -217zM233 828l189 -171l-85 -93l-204 138z" />
    <glyph glyph-name="aacute" unicode="&#xe1;" horiz-adv-x="578" 
d="M306 159v36c-6 3 -15 4 -27 4c-23 0 -38 -9 -38 -34c0 -24 14 -32 35 -32c19 0 30 11 30 26zM550 328v-328h-196l-22 46c-31 -36 -87 -59 -139 -59c-93 0 -180 48 -180 164c0 105 84 158 236 158c24 0 41 0 57 -3v26c0 27 -16 41 -49 41c-63 0 -120 -14 -177 -30l-44 151
c73 28 166 51 246 51c183 0 268 -64 268 -217zM141 657l188 172l101 -125l-203 -140z" />
    <glyph glyph-name="acircumflex" unicode="&#xe2;" horiz-adv-x="578" 
d="M306 159v36c-6 3 -15 4 -27 4c-23 0 -38 -9 -38 -34c0 -24 14 -32 35 -32c19 0 30 11 30 26zM550 328v-328h-196l-22 46c-31 -36 -87 -59 -139 -59c-93 0 -180 48 -180 164c0 105 84 158 236 158c24 0 41 0 57 -3v26c0 27 -16 41 -49 41c-63 0 -120 -14 -177 -30l-44 151
c73 28 166 51 246 51c183 0 268 -64 268 -217zM226 780h121l126 -144l-97 -73l-90 71l-90 -72l-96 75z" />
    <glyph glyph-name="atilde" unicode="&#xe3;" horiz-adv-x="578" 
d="M306 159v36c-6 3 -15 4 -27 4c-23 0 -38 -9 -38 -34c0 -24 14 -32 35 -32c19 0 30 11 30 26zM550 328v-328h-196l-22 46c-31 -36 -87 -59 -139 -59c-93 0 -180 48 -180 164c0 105 84 158 236 158c24 0 41 0 57 -3v26c0 27 -16 41 -49 41c-63 0 -120 -14 -177 -30l-44 151
c73 28 166 51 246 51c183 0 268 -64 268 -217zM383 771l107 -43c-16 -78 -49 -142 -117 -142c-56 0 -110 29 -136 29c-17 0 -26 -7 -41 -36l-104 46c21 72 55 139 119 139c54 0 102 -28 133 -28c23 0 28 12 39 35z" />
    <glyph glyph-name="adieresis" unicode="&#xe4;" horiz-adv-x="578" 
d="M306 159v36c-6 3 -15 4 -27 4c-23 0 -38 -9 -38 -34c0 -24 14 -32 35 -32c19 0 30 11 30 26zM550 328v-328h-196l-22 46c-31 -36 -87 -59 -139 -59c-93 0 -180 48 -180 164c0 105 84 158 236 158c24 0 41 0 57 -3v26c0 27 -16 41 -49 41c-63 0 -120 -14 -177 -30l-44 151
c73 28 166 51 246 51c183 0 268 -64 268 -217zM310 668c0 51 38 92 107 92c76 0 106 -41 106 -92c0 -53 -40 -89 -105 -89c-72 0 -108 33 -108 89zM48 668c0 51 38 92 107 92c76 0 106 -41 106 -92c0 -53 -40 -89 -105 -89c-72 0 -108 33 -108 89z" />
    <glyph glyph-name="aring" unicode="&#xe5;" horiz-adv-x="578" 
d="M306 159v36c-6 3 -15 4 -27 4c-23 0 -38 -9 -38 -34c0 -24 14 -32 35 -32c19 0 30 11 30 26zM550 328v-328h-196l-22 46c-31 -36 -87 -59 -139 -59c-93 0 -180 48 -180 164c0 105 84 158 236 158c24 0 41 0 57 -3v26c0 27 -16 41 -49 41c-63 0 -120 -14 -177 -30l-44 151
c73 28 166 51 246 51c183 0 268 -64 268 -217zM261 679c0 -21 11 -31 33 -31c17 0 31 11 31 31c0 21 -12 30 -31 30c-22 0 -33 -10 -33 -30zM174 674c0 72 53 110 120 110c65 0 118 -36 118 -105c0 -68 -53 -107 -118 -107c-73 0 -120 34 -120 102z" />
    <glyph glyph-name="ae" unicode="&#xe6;" horiz-adv-x="877" 
d="M788 183l42 -141c-68 -35 -141 -55 -224 -55c-88 0 -171 30 -204 63c-47 -40 -96 -63 -179 -63c-109 0 -210 48 -210 181c0 96 77 155 204 155c29 0 59 -3 89 -9v18c0 29 -20 38 -47 38c-63 0 -122 -11 -179 -27l-44 151c73 28 166 51 246 51c64 0 115 -17 150 -60
c45 40 106 60 183 60c148 0 249 -81 249 -245c0 -22 -3 -64 -6 -82h-298c3 -29 15 -61 64 -61c43 0 91 7 164 26zM283 133c16 0 31 9 38 14c-7 20 -13 42 -16 65c-5 3 -14 4 -25 4c-19 0 -35 -12 -35 -37s11 -46 38 -46zM560 322h73c0 44 -10 62 -35 62
c-24 0 -38 -18 -38 -62z" />
    <glyph glyph-name="ccedilla" unicode="&#xe7;" horiz-adv-x="576" 
d="M200 -223l15 83c19 -4 44 -9 67 -9c29 0 38 6 38 21c0 20 -18 25 -58 25h-25l17 93c-133 16 -239 99 -239 270c0 157 107 285 295 285c152 0 255 -70 255 -241h-200c-1 43 -12 60 -43 60c-29 0 -49 -24 -49 -95c0 -72 26 -96 73 -96c41 0 97 18 154 41l51 -148
c-49 -33 -122 -69 -214 -77l-3 -25c63 -5 104 -30 104 -91c0 -67 -42 -114 -131 -114c-45 0 -84 9 -107 18z" />
    <glyph glyph-name="egrave" unicode="&#xe8;" horiz-adv-x="590" 
d="M501 183l42 -141c-68 -35 -141 -55 -241 -55c-184 0 -287 111 -287 273c0 173 113 285 294 285c167 0 268 -81 268 -245c0 -22 -3 -64 -6 -82h-298c3 -29 15 -61 64 -61c43 0 91 7 164 26zM273 322h73c0 41 -12 62 -35 62c-25 0 -38 -21 -38 -62zM241 828l189 -171
l-85 -93l-204 138z" />
    <glyph glyph-name="eacute" unicode="&#xe9;" horiz-adv-x="590" 
d="M501 183l42 -141c-68 -35 -141 -55 -241 -55c-184 0 -287 111 -287 273c0 173 113 285 294 285c167 0 268 -81 268 -245c0 -22 -3 -64 -6 -82h-298c3 -29 15 -61 64 -61c43 0 91 7 164 26zM273 322h73c0 41 -12 62 -35 62c-25 0 -38 -21 -38 -62zM165 657l188 172
l101 -125l-203 -140z" />
    <glyph glyph-name="ecircumflex" unicode="&#xea;" horiz-adv-x="590" 
d="M501 183l42 -141c-68 -35 -141 -55 -241 -55c-184 0 -287 111 -287 273c0 173 113 285 294 285c167 0 268 -81 268 -245c0 -22 -3 -64 -6 -82h-298c3 -29 15 -61 64 -61c43 0 91 7 164 26zM273 322h73c0 41 -12 62 -35 62c-25 0 -38 -21 -38 -62zM246 780h121l126 -144
l-97 -73l-90 71l-90 -72l-96 75z" />
    <glyph glyph-name="edieresis" unicode="&#xeb;" horiz-adv-x="590" 
d="M501 183l42 -141c-68 -35 -141 -55 -241 -55c-184 0 -287 111 -287 273c0 173 113 285 294 285c167 0 268 -81 268 -245c0 -22 -3 -64 -6 -82h-298c3 -29 15 -61 64 -61c43 0 91 7 164 26zM273 322h73c0 41 -12 62 -35 62c-25 0 -38 -21 -38 -62zM330 668
c0 51 38 92 107 92c76 0 106 -41 106 -92c0 -53 -40 -89 -105 -89c-72 0 -108 33 -108 89zM68 668c0 51 38 92 107 92c76 0 106 -41 106 -92c0 -53 -40 -89 -105 -89c-72 0 -108 33 -108 89z" />
    <glyph glyph-name="igrave" unicode="&#xec;" horiz-adv-x="310" 
d="M277 533v-533h-244v533h244zM95 828l189 -171l-85 -93l-204 138z" />
    <glyph glyph-name="iacute" unicode="&#xed;" horiz-adv-x="310" 
d="M277 533v-533h-244v533h244zM1 657l188 172l101 -125l-203 -140z" />
    <glyph glyph-name="icircumflex" unicode="&#xee;" horiz-adv-x="310" 
d="M277 533v-533h-244v533h244zM89 780h121l126 -144l-97 -73l-90 71l-90 -72l-96 75z" />
    <glyph glyph-name="idieresis" unicode="&#xef;" horiz-adv-x="310" 
d="M277 533v-533h-244v533h244zM173 668c0 51 38 92 107 92c76 0 106 -41 106 -92c0 -53 -40 -89 -105 -89c-72 0 -108 33 -108 89zM-89 668c0 51 38 92 107 92c76 0 106 -41 106 -92c0 -53 -40 -89 -105 -89c-72 0 -108 33 -108 89z" />
    <glyph glyph-name="eth" unicode="&#xf0;" horiz-adv-x="584" 
d="M569 314c0 -208 -91 -326 -286 -326c-133 0 -268 61 -268 250c0 140 89 221 201 221c53 0 100 -18 132 -46c-27 101 -139 126 -257 142l54 171c79 -3 142 -16 198 -39l83 72l117 -126l-57 -49c60 -73 83 -167 83 -270zM288 179c49 0 59 37 54 96c-13 17 -37 27 -56 27
c-36 0 -52 -23 -52 -59c0 -39 18 -64 54 -64z" />
    <glyph glyph-name="ntilde" unicode="&#xf1;" horiz-adv-x="612" 
d="M33 533h198l23 -48c29 28 86 60 150 60c101 0 180 -56 180 -173v-372h-244v319c0 36 -8 45 -28 45c-13 0 -22 -5 -35 -16v-348h-244v533zM407 771l107 -43c-16 -78 -49 -142 -117 -142c-56 0 -110 29 -136 29c-17 0 -26 -7 -41 -36l-104 46c21 72 55 139 119 139
c54 0 102 -28 133 -28c23 0 28 12 39 35z" />
    <glyph glyph-name="ograve" unicode="&#xf2;" horiz-adv-x="645" 
d="M273 267c0 -68 16 -98 51 -98c31 0 48 30 48 98s-16 97 -48 97c-35 0 -51 -29 -51 -97zM15 267c0 195 148 278 309 278c167 0 306 -83 306 -278s-146 -280 -318 -280c-167 0 -297 85 -297 280zM269 828l189 -171l-85 -93l-204 138z" />
    <glyph glyph-name="oacute" unicode="&#xf3;" horiz-adv-x="645" 
d="M273 267c0 -68 16 -98 51 -98c31 0 48 30 48 98s-16 97 -48 97c-35 0 -51 -29 -51 -97zM15 267c0 195 148 278 309 278c167 0 306 -83 306 -278s-146 -280 -318 -280c-167 0 -297 85 -297 280zM187 657l188 172l101 -125l-203 -140z" />
    <glyph glyph-name="ocircumflex" unicode="&#xf4;" horiz-adv-x="645" 
d="M273 267c0 -68 16 -98 51 -98c31 0 48 30 48 98s-16 97 -48 97c-35 0 -51 -29 -51 -97zM15 267c0 195 148 278 309 278c167 0 306 -83 306 -278s-146 -280 -318 -280c-167 0 -297 85 -297 280zM263 780h121l126 -144l-97 -73l-90 71l-90 -72l-96 75z" />
    <glyph glyph-name="otilde" unicode="&#xf5;" horiz-adv-x="645" 
d="M273 267c0 -68 16 -98 51 -98c31 0 48 30 48 98s-16 97 -48 97c-35 0 -51 -29 -51 -97zM15 267c0 195 148 278 309 278c167 0 306 -83 306 -278s-146 -280 -318 -280c-167 0 -297 85 -297 280zM420 771l107 -43c-16 -78 -49 -142 -117 -142c-56 0 -110 29 -136 29
c-17 0 -26 -7 -41 -36l-104 46c21 72 55 139 119 139c54 0 102 -28 133 -28c23 0 28 12 39 35z" />
    <glyph glyph-name="odieresis" unicode="&#xf6;" horiz-adv-x="645" 
d="M273 267c0 -68 16 -98 51 -98c31 0 48 30 48 98s-16 97 -48 97c-35 0 -51 -29 -51 -97zM15 267c0 195 148 278 309 278c167 0 306 -83 306 -278s-146 -280 -318 -280c-167 0 -297 85 -297 280zM347 668c0 51 38 92 107 92c76 0 106 -41 106 -92c0 -53 -40 -89 -105 -89
c-72 0 -108 33 -108 89zM85 668c0 51 38 92 107 92c76 0 106 -41 106 -92c0 -53 -40 -89 -105 -89c-72 0 -108 33 -108 89z" />
    <glyph glyph-name="oslash" unicode="&#xf8;" horiz-adv-x="645" 
d="M15 267c0 195 148 278 309 278h3l22 61h183l-37 -99c81 -43 135 -119 135 -240c0 -188 -135 -275 -299 -280l-25 -67h-182l36 96c-88 40 -145 120 -145 251zM273 267c0 -68 16 -98 51 -98c31 0 48 30 48 98s-16 97 -48 97c-35 0 -51 -29 -51 -97z" />
    <glyph glyph-name="ugrave" unicode="&#xf9;" horiz-adv-x="614" 
d="M586 0h-193l-31 55c-35 -45 -82 -68 -150 -68c-112 0 -179 61 -179 174v372h245v-328c0 -24 9 -36 28 -36c13 0 29 7 36 16v348h244v-533zM256 828l189 -171l-85 -93l-204 138z" />
    <glyph glyph-name="uacute" unicode="&#xfa;" horiz-adv-x="614" 
d="M586 0h-193l-31 55c-35 -45 -82 -68 -150 -68c-112 0 -179 61 -179 174v372h245v-328c0 -24 9 -36 28 -36c13 0 29 7 36 16v348h244v-533zM174 657l188 172l101 -125l-203 -140z" />
    <glyph glyph-name="ucircumflex" unicode="&#xfb;" horiz-adv-x="614" 
d="M586 0h-193l-31 55c-35 -45 -82 -68 -150 -68c-112 0 -179 61 -179 174v372h245v-328c0 -24 9 -36 28 -36c13 0 29 7 36 16v348h244v-533zM250 780h121l126 -144l-97 -73l-90 71l-90 -72l-96 75z" />
    <glyph glyph-name="udieresis" unicode="&#xfc;" horiz-adv-x="614" 
d="M586 0h-193l-31 55c-35 -45 -82 -68 -150 -68c-112 0 -179 61 -179 174v372h245v-328c0 -24 9 -36 28 -36c13 0 29 7 36 16v348h244v-533zM334 668c0 51 38 92 107 92c76 0 106 -41 106 -92c0 -53 -40 -89 -105 -89c-72 0 -108 33 -108 89zM72 668c0 51 38 92 107 92
c76 0 106 -41 106 -92c0 -53 -40 -89 -105 -89c-72 0 -108 33 -108 89z" />
    <glyph glyph-name="yacute" unicode="&#xfd;" horiz-adv-x="599" 
d="M89 -200v177h74c29 0 32 10 32 25v16l-205 515h254l58 -286h4l52 286h251l-190 -493v-67c0 -115 -62 -173 -185 -173h-145zM170 657l188 172l101 -125l-203 -140z" />
    <glyph glyph-name="thorn" unicode="&#xfe;" horiz-adv-x="645" 
d="M277 346v-166c13 -7 27 -11 41 -11c35 0 52 26 52 94s-15 98 -48 98c-16 0 -31 -5 -45 -15zM277 -200h-244v920h238v-232c35 31 90 57 157 57c95 0 200 -67 200 -272c0 -189 -78 -285 -223 -285c-60 0 -101 20 -128 37v-225z" />
    <glyph glyph-name="ydieresis" unicode="&#xff;" horiz-adv-x="599" 
d="M89 -200v177h74c29 0 32 10 32 25v16l-205 515h254l58 -286h4l52 286h251l-190 -493v-67c0 -115 -62 -173 -185 -173h-145zM327 668c0 51 38 92 107 92c76 0 106 -41 106 -92c0 -53 -40 -89 -105 -89c-72 0 -108 33 -108 89zM65 668c0 51 38 92 107 92
c76 0 106 -41 106 -92c0 -53 -40 -89 -105 -89c-72 0 -108 33 -108 89z" />
    <glyph glyph-name="Amacron" unicode="&#x100;" horiz-adv-x="756" 
d="M232 720h291l243 -720h-279l-24 95h-184l-24 -95h-265zM324 268h96l-43 206zM223 769v143h301v-143h-301z" />
    <glyph glyph-name="amacron" unicode="&#x101;" horiz-adv-x="578" 
d="M306 159v36c-6 3 -15 4 -27 4c-23 0 -38 -9 -38 -34c0 -24 14 -32 35 -32c19 0 30 11 30 26zM550 328v-328h-196l-22 46c-31 -36 -87 -59 -139 -59c-93 0 -180 48 -180 164c0 105 84 158 236 158c24 0 41 0 57 -3v26c0 27 -16 41 -49 41c-63 0 -120 -14 -177 -30l-44 151
c73 28 166 51 246 51c183 0 268 -64 268 -217zM131 587v143h301v-143h-301z" />
    <glyph glyph-name="Abreve" unicode="&#x102;" horiz-adv-x="756" 
d="M232 720h291l243 -720h-279l-24 95h-184l-24 -95h-265zM324 268h96l-43 206zM374 868c36 0 44 16 51 49l131 -18c-9 -92 -63 -142 -182 -142c-120 0 -173 46 -185 142l134 19c7 -35 18 -50 51 -50z" />
    <glyph glyph-name="abreve" unicode="&#x103;" horiz-adv-x="578" 
d="M306 159v36c-6 3 -15 4 -27 4c-23 0 -38 -9 -38 -34c0 -24 14 -32 35 -32c19 0 30 11 30 26zM550 328v-328h-196l-22 46c-31 -36 -87 -59 -139 -59c-93 0 -180 48 -180 164c0 105 84 158 236 158c24 0 41 0 57 -3v26c0 27 -16 41 -49 41c-63 0 -120 -14 -177 -30l-44 151
c73 28 166 51 246 51c183 0 268 -64 268 -217zM285 693c36 0 44 20 51 56l131 -18c-8 -91 -64 -154 -182 -154c-120 0 -173 58 -185 154l134 19c7 -39 18 -57 51 -57z" />
    <glyph glyph-name="Aogonek" unicode="&#x104;" horiz-adv-x="756" 
d="M232 720h291l243 -720h-58c-36 -40 -62 -85 -62 -105c0 -13 7 -19 21 -19c13 0 24 1 47 8l26 -94c-31 -15 -84 -36 -140 -36c-92 0 -124 49 -124 97c0 57 37 104 88 149h-77l-24 95h-184l-24 -95h-265zM324 268h96l-43 206z" />
    <glyph glyph-name="aogonek" unicode="&#x105;" horiz-adv-x="578" 
d="M550 328v-328c-44 -35 -76 -81 -76 -105c0 -13 7 -19 21 -19c13 0 24 1 47 8l26 -94c-31 -15 -84 -36 -140 -36c-92 0 -124 49 -124 97c0 57 37 104 88 149h-38l-22 46c-31 -36 -87 -59 -139 -59c-93 0 -180 48 -180 164c0 105 84 158 236 158c24 0 41 0 57 -3v26
c0 27 -16 41 -49 41c-63 0 -120 -14 -177 -30l-44 151c73 28 166 51 246 51c183 0 268 -64 268 -217zM306 159v36c-6 3 -15 4 -27 4c-23 0 -38 -9 -38 -34c0 -24 14 -32 35 -32c19 0 30 11 30 26z" />
    <glyph glyph-name="Cacute" unicode="&#x106;" horiz-adv-x="705" 
d="M583 280l102 -167c-100 -89 -204 -128 -321 -128c-222 0 -344 144 -344 369c0 226 127 381 355 381c179 0 307 -82 318 -311h-248c-5 57 -24 82 -72 82c-49 0 -86 -36 -86 -151c0 -101 41 -141 109 -141c71 0 128 27 187 66zM233 858l206 124l74 -136l-217 -96z" />
    <glyph glyph-name="cacute" unicode="&#x107;" horiz-adv-x="576" 
d="M500 214l51 -148c-55 -37 -144 -79 -252 -79c-152 0 -284 85 -284 273c0 157 107 285 295 285c152 0 255 -70 255 -241h-200c-1 43 -12 60 -43 60c-29 0 -49 -24 -49 -95c0 -72 26 -96 73 -96c41 0 97 18 154 41zM167 657l188 172l101 -125l-203 -140z" />
    <glyph glyph-name="Ccircumflex" unicode="&#x108;" horiz-adv-x="705" 
d="M583 280l102 -167c-100 -89 -204 -128 -321 -128c-222 0 -344 144 -344 369c0 226 127 381 355 381c179 0 307 -82 318 -311h-248c-5 57 -24 82 -72 82c-49 0 -86 -36 -86 -151c0 -101 41 -141 109 -141c71 0 128 27 187 66zM314 939h121l126 -119l-89 -73l-98 66
l-98 -67l-88 75z" />
    <glyph glyph-name="ccircumflex" unicode="&#x109;" horiz-adv-x="576" 
d="M500 214l51 -148c-55 -37 -144 -79 -252 -79c-152 0 -284 85 -284 273c0 157 107 285 295 285c152 0 255 -70 255 -241h-200c-1 43 -12 60 -43 60c-29 0 -49 -24 -49 -95c0 -72 26 -96 73 -96c41 0 97 18 154 41zM243 780h121l126 -144l-97 -73l-90 71l-90 -72l-96 75z
" />
    <glyph glyph-name="Cdotaccent" unicode="&#x10a;" horiz-adv-x="705" 
d="M583 280l102 -167c-100 -89 -204 -128 -321 -128c-222 0 -344 144 -344 369c0 226 127 381 355 381c179 0 307 -82 318 -311h-248c-5 57 -24 82 -72 82c-49 0 -86 -36 -86 -151c0 -101 41 -141 109 -141c71 0 128 27 187 66zM242 856c0 69 56 102 129 102
c76 0 131 -33 131 -102c0 -68 -54 -100 -131 -100c-72 0 -129 32 -129 100z" />
    <glyph glyph-name="cdotaccent" unicode="&#x10b;" horiz-adv-x="576" 
d="M500 214l51 -148c-55 -37 -144 -79 -252 -79c-152 0 -284 85 -284 273c0 157 107 285 295 285c152 0 255 -70 255 -241h-200c-1 43 -12 60 -43 60c-29 0 -49 -24 -49 -95c0 -72 26 -96 73 -96c41 0 97 18 154 41zM179 664c0 69 56 102 129 102c76 0 131 -33 131 -102
c0 -68 -54 -100 -131 -100c-72 0 -129 32 -129 100z" />
    <glyph glyph-name="Ccaron" unicode="&#x10c;" horiz-adv-x="705" 
d="M583 280l102 -167c-100 -89 -204 -128 -321 -128c-222 0 -344 144 -344 369c0 226 127 381 355 381c179 0 307 -82 318 -311h-248c-5 57 -24 82 -72 82c-49 0 -86 -36 -86 -151c0 -101 41 -141 109 -141c71 0 128 27 187 66zM437 759h-121l-126 119l89 73l98 -66l98 67
l88 -75z" />
    <glyph glyph-name="ccaron" unicode="&#x10d;" horiz-adv-x="576" 
d="M500 214l51 -148c-55 -37 -144 -79 -252 -79c-152 0 -284 85 -284 273c0 157 107 285 295 285c152 0 255 -70 255 -241h-200c-1 43 -12 60 -43 60c-29 0 -49 -24 -49 -95c0 -72 26 -96 73 -96c41 0 97 18 154 41zM361 576h-121l-126 144l97 73l90 -71l90 72l96 -75z" />
    <glyph glyph-name="Dcaron" unicode="&#x10e;" horiz-adv-x="727" 
d="M339 503h-50v-286h50c67 0 101 43 101 140s-34 146 -101 146zM35 720h314c245 0 358 -160 358 -352c0 -248 -122 -368 -399 -368h-273v720zM356 759h-121l-126 119l89 73l98 -66l98 67l88 -75z" />
    <glyph glyph-name="dcaron" unicode="&#x10f;" horiz-adv-x="822" 
d="M400 0l-17 57c-29 -45 -82 -70 -147 -70c-151 0 -221 94 -221 278c0 201 122 280 237 280c39 0 83 -10 116 -35v210h244v-720h-212zM367 184v162c-11 12 -29 18 -44 18c-36 0 -50 -36 -50 -97c0 -67 15 -99 52 -99c15 0 31 4 42 16zM645 498l24 222h173l-53 -222h-144z
" />
    <glyph glyph-name="Dcroat" unicode="&#x110;" horiz-adv-x="780" 
d="M20 278v154h68v288h314c245 0 358 -160 358 -352c0 -248 -122 -368 -399 -368h-273v278h-68zM392 503h-50v-71h89v-154h-89v-61h50c67 0 101 43 101 140s-34 146 -101 146z" />
    <glyph glyph-name="dcroat" unicode="&#x111;" horiz-adv-x="641" 
d="M237 551v123h132v46h244v-46h45v-123h-45v-551h-212l-17 57c-29 -47 -77 -69 -137 -69c-156 0 -231 83 -231 267c0 188 122 260 237 260c39 0 83 -10 116 -35v71h-132zM368 184v132c-11 12 -29 18 -44 18c-36 0 -50 -24 -50 -81s13 -85 50 -85c15 0 33 4 44 16z" />
    <glyph glyph-name="Emacron" unicode="&#x112;" horiz-adv-x="595" 
d="M35 0v720h534v-217h-280v-57h254v-169h-254v-60h281v-217h-535zM153 770v143h301v-143h-301z" />
    <glyph glyph-name="emacron" unicode="&#x113;" horiz-adv-x="590" 
d="M501 183l42 -141c-68 -35 -141 -55 -241 -55c-184 0 -287 111 -287 273c0 173 113 285 294 285c167 0 268 -81 268 -245c0 -22 -3 -64 -6 -82h-298c3 -29 15 -61 64 -61c43 0 91 7 164 26zM273 322h73c0 41 -12 62 -35 62c-25 0 -38 -21 -38 -62zM160 587v143h301v-143
h-301z" />
    <glyph glyph-name="Ebreve" unicode="&#x114;" horiz-adv-x="595" 
d="M35 0v720h534v-217h-280v-57h254v-169h-254v-60h281v-217h-535zM298 869c36 0 44 16 51 49l131 -18c-9 -92 -63 -142 -182 -142c-120 0 -173 46 -185 142l134 19c7 -35 18 -50 51 -50z" />
    <glyph glyph-name="ebreve" unicode="&#x115;" horiz-adv-x="590" 
d="M501 183l42 -141c-68 -35 -141 -55 -241 -55c-184 0 -287 111 -287 273c0 173 113 285 294 285c167 0 268 -81 268 -245c0 -22 -3 -64 -6 -82h-298c3 -29 15 -61 64 -61c43 0 91 7 164 26zM273 322h73c0 41 -12 62 -35 62c-25 0 -38 -21 -38 -62zM316 693
c36 0 44 20 51 56l131 -18c-8 -91 -64 -154 -182 -154c-120 0 -173 58 -185 154l134 19c7 -39 18 -57 51 -57z" />
    <glyph glyph-name="Edotaccent" unicode="&#x116;" horiz-adv-x="595" 
d="M35 0v720h534v-217h-280v-57h254v-169h-254v-60h281v-217h-535zM171 857c0 69 56 102 129 102c76 0 131 -33 131 -102c0 -68 -54 -100 -131 -100c-72 0 -129 32 -129 100z" />
    <glyph glyph-name="edotaccent" unicode="&#x117;" horiz-adv-x="590" 
d="M501 183l42 -141c-68 -35 -141 -55 -241 -55c-184 0 -287 111 -287 273c0 173 113 285 294 285c167 0 268 -81 268 -245c0 -22 -3 -64 -6 -82h-298c3 -29 15 -61 64 -61c43 0 91 7 164 26zM273 322h73c0 41 -12 62 -35 62c-25 0 -38 -21 -38 -62zM181 664
c0 69 56 102 129 102c76 0 131 -33 131 -102c0 -68 -54 -100 -131 -100c-72 0 -129 32 -129 100z" />
    <glyph glyph-name="Eogonek" unicode="&#x118;" horiz-adv-x="595" 
d="M35 0v720h534v-217h-280v-57h254v-169h-254v-60h281v-217h-40c-36 -40 -62 -85 -62 -105c0 -13 7 -19 21 -19c13 0 24 1 47 8l26 -94c-31 -15 -84 -36 -140 -36c-92 0 -124 49 -124 97c0 57 37 104 88 149h-351z" />
    <glyph glyph-name="eogonek" unicode="&#x119;" horiz-adv-x="590" 
d="M501 183l42 -141c-27 -15 -51 -26 -76 -43c-59 -40 -76 -83 -76 -104c0 -13 7 -19 21 -19c13 0 24 1 47 8l26 -94c-31 -15 -84 -36 -140 -36c-92 0 -124 49 -124 97c0 52 30 95 74 136c-180 3 -280 114 -280 273c0 173 113 285 294 285c167 0 268 -81 268 -245
c0 -22 -3 -64 -6 -82h-298c3 -29 15 -61 64 -61c43 0 91 7 164 26zM273 322h73c0 41 -12 62 -35 62c-25 0 -38 -21 -38 -62z" />
    <glyph glyph-name="Ecaron" unicode="&#x11a;" horiz-adv-x="595" 
d="M35 0v720h534v-217h-280v-57h254v-169h-254v-60h281v-217h-535zM362 760h-121l-126 119l89 73l98 -66l98 67l88 -75z" />
    <glyph glyph-name="ecaron" unicode="&#x11b;" horiz-adv-x="590" 
d="M501 183l42 -141c-68 -35 -141 -55 -241 -55c-184 0 -287 111 -287 273c0 173 113 285 294 285c167 0 268 -81 268 -245c0 -22 -3 -64 -6 -82h-298c3 -29 15 -61 64 -61c43 0 91 7 164 26zM273 322h73c0 41 -12 62 -35 62c-25 0 -38 -21 -38 -62zM373 576h-121l-126 144
l97 73l90 -71l90 72l96 -75z" />
    <glyph glyph-name="Gcircumflex" unicode="&#x11c;" horiz-adv-x="716" 
d="M379 243v159h309v-307c-92 -83 -198 -110 -317 -110c-257 0 -351 183 -351 368c0 217 109 382 356 382c207 0 299 -101 315 -282h-253c-8 41 -26 57 -65 57c-52 0 -86 -41 -86 -152c0 -92 18 -162 97 -162c33 0 59 7 80 20v27h-85zM312 939h121l126 -119l-89 -73l-98 66
l-98 -67l-88 75z" />
    <glyph glyph-name="gcircumflex" unicode="&#x11d;" horiz-adv-x="640" 
d="M612 533v-462c0 -210 -92 -281 -278 -281c-85 0 -180 19 -233 36l33 153c44 -11 107 -21 163 -21c59 0 80 19 80 70v46c-36 -47 -91 -61 -139 -61c-120 0 -223 46 -223 249c0 176 90 283 234 283c61 0 112 -21 147 -54l18 42h198zM367 209v137c-12 11 -25 18 -44 18
c-37 0 -50 -27 -50 -91c0 -60 16 -80 53 -80c16 0 30 5 41 16zM257 780h121l126 -144l-97 -73l-90 71l-90 -72l-96 75z" />
    <glyph glyph-name="Gbreve" unicode="&#x11e;" horiz-adv-x="716" 
d="M379 243v159h309v-307c-92 -83 -198 -110 -317 -110c-257 0 -351 183 -351 368c0 217 109 382 356 382c207 0 299 -101 315 -282h-253c-8 41 -26 57 -65 57c-52 0 -86 -41 -86 -152c0 -92 18 -162 97 -162c33 0 59 7 80 20v27h-85zM367 868c36 0 44 16 51 49l131 -18
c-9 -92 -63 -142 -182 -142c-120 0 -173 46 -185 142l134 19c7 -35 18 -50 51 -50z" />
    <glyph glyph-name="gbreve" unicode="&#x11f;" horiz-adv-x="640" 
d="M612 533v-462c0 -210 -92 -281 -278 -281c-85 0 -180 19 -233 36l33 153c44 -11 107 -21 163 -21c59 0 80 19 80 70v46c-36 -47 -91 -61 -139 -61c-120 0 -223 46 -223 249c0 176 90 283 234 283c61 0 112 -21 147 -54l18 42h198zM367 209v137c-12 11 -25 18 -44 18
c-37 0 -50 -27 -50 -91c0 -60 16 -80 53 -80c16 0 30 5 41 16zM322 693c36 0 44 20 51 56l131 -18c-8 -91 -64 -154 -182 -154c-120 0 -173 58 -185 154l134 19c7 -39 18 -57 51 -57z" />
    <glyph glyph-name="Gdotaccent" unicode="&#x120;" horiz-adv-x="716" 
d="M379 243v159h309v-307c-92 -83 -198 -110 -317 -110c-257 0 -351 183 -351 368c0 217 109 382 356 382c207 0 299 -101 315 -282h-253c-8 41 -26 57 -65 57c-52 0 -86 -41 -86 -152c0 -92 18 -162 97 -162c33 0 59 7 80 20v27h-85zM247 856c0 69 56 102 129 102
c76 0 131 -33 131 -102c0 -68 -54 -100 -131 -100c-72 0 -129 32 -129 100z" />
    <glyph glyph-name="gdotaccent" unicode="&#x121;" horiz-adv-x="640" 
d="M612 533v-462c0 -210 -92 -281 -278 -281c-85 0 -180 19 -233 36l33 153c44 -11 107 -21 163 -21c59 0 80 19 80 70v46c-36 -47 -91 -61 -139 -61c-120 0 -223 46 -223 249c0 176 90 283 234 283c61 0 112 -21 147 -54l18 42h198zM367 209v137c-12 11 -25 18 -44 18
c-37 0 -50 -27 -50 -91c0 -60 16 -80 53 -80c16 0 30 5 41 16zM183 664c0 69 56 102 129 102c76 0 131 -33 131 -102c0 -68 -54 -100 -131 -100c-72 0 -129 32 -129 100z" />
    <glyph glyph-name="Gcommaaccent" unicode="&#x122;" horiz-adv-x="716" 
d="M379 243v159h309v-307c-92 -83 -198 -110 -317 -110c-257 0 -351 183 -351 368c0 217 109 382 356 382c207 0 299 -101 315 -282h-253c-8 41 -26 57 -65 57c-52 0 -86 -41 -86 -152c0 -92 18 -162 97 -162c33 0 59 7 80 20v27h-85zM268 -238l42 200l163 -39l-71 -194z
" />
    <glyph glyph-name="gcommaaccent" unicode="&#x123;" horiz-adv-x="640" 
d="M612 533v-462c0 -210 -92 -281 -278 -281c-85 0 -180 19 -233 36l33 153c44 -11 107 -21 163 -21c59 0 80 19 80 70v46c-36 -47 -91 -61 -139 -61c-120 0 -223 46 -223 249c0 176 90 283 234 283c61 0 112 -21 147 -54l18 42h198zM367 209v137c-12 11 -25 18 -44 18
c-37 0 -50 -27 -50 -91c0 -60 16 -80 53 -80c16 0 30 5 41 16zM431 765l-42 -200l-164 38l71 194z" />
    <glyph glyph-name="Hcircumflex" unicode="&#x124;" horiz-adv-x="726" 
d="M35 0v720h254v-263h148v263h254v-720h-254v240h-148v-240h-254zM307 939h121l126 -119l-89 -73l-98 66l-98 -67l-88 75z" />
    <glyph glyph-name="hcircumflex" unicode="&#x125;" horiz-adv-x="621" 
d="M33 720h244v-224c35 31 86 49 142 49c96 0 174 -57 174 -169v-376h-245v314c0 40 -11 49 -31 49c-14 0 -27 -5 -40 -16v-347h-244v720zM93 936h121l126 -119l-89 -73l-98 66l-98 -67l-88 75z" />
    <glyph glyph-name="Hbar" unicode="&#x126;" horiz-adv-x="791" 
d="M10 501v143h58v76h254v-76h148v76h254v-76h57v-143h-57v-501h-254v240h-148v-240h-254v501h-58zM322 457h148v44h-148v-44z" />
    <glyph glyph-name="hbar" unicode="&#x127;" horiz-adv-x="621" 
d="M33 720h244v-46h121v-123h-121v-95c35 31 86 49 142 49c96 0 174 -57 174 -169v-336h-245v274c0 40 -12 50 -32 50c-13 0 -26 -6 -39 -17v-307h-244v551h-56v123h56v46z" />
    <glyph glyph-name="Itilde" unicode="&#x128;" horiz-adv-x="324" 
d="M35 0v720h254v-720h-254zM260 947l107 -43c-16 -78 -49 -142 -117 -142c-56 0 -110 29 -136 29c-17 0 -26 -7 -41 -36l-104 46c21 72 55 139 119 139c54 0 102 -28 133 -28c23 0 28 12 39 35z" />
    <glyph glyph-name="itilde" unicode="&#x129;" horiz-adv-x="310" 
d="M277 533v-533h-244v533h244zM246 771l107 -43c-16 -78 -49 -142 -117 -142c-56 0 -110 29 -136 29c-17 0 -26 -7 -41 -36l-104 46c21 72 55 139 119 139c54 0 102 -28 133 -28c23 0 28 12 39 35z" />
    <glyph glyph-name="Imacron" unicode="&#x12a;" horiz-adv-x="324" 
d="M35 0v720h254v-720h-254zM7 769v143h301v-143h-301z" />
    <glyph glyph-name="imacron" unicode="&#x12b;" horiz-adv-x="310" 
d="M277 533v-533h-244v533h244zM-2 587v143h301v-143h-301z" />
    <glyph glyph-name="Ibreve" unicode="&#x12c;" horiz-adv-x="324" 
d="M35 0v720h254v-720h-254zM158 868c36 0 44 16 51 49l131 -18c-9 -92 -63 -142 -182 -142c-120 0 -173 46 -185 142l134 19c7 -35 18 -50 51 -50z" />
    <glyph glyph-name="ibreve" unicode="&#x12d;" horiz-adv-x="310" 
d="M277 533v-533h-244v533h244zM149 693c36 0 44 20 51 56l131 -18c-8 -91 -64 -154 -182 -154c-120 0 -173 58 -185 154l134 19c7 -39 18 -57 51 -57z" />
    <glyph glyph-name="Iogonek" unicode="&#x12e;" horiz-adv-x="324" 
d="M35 0v720h254v-720h-41c-36 -40 -62 -85 -62 -105c0 -13 7 -19 21 -19c13 0 24 1 47 8l26 -94c-31 -15 -84 -36 -140 -36c-92 0 -124 49 -124 97c0 57 37 104 88 149h-69z" />
    <glyph glyph-name="iogonek" unicode="&#x12f;" horiz-adv-x="309" 
d="M277 533v-533c-60 -36 -91 -85 -91 -105c0 -13 7 -19 21 -19c13 0 24 1 47 8l26 -94c-31 -15 -84 -36 -140 -36c-92 0 -124 49 -124 97c0 57 37 104 88 149h-71v533h244zM25 664c0 69 56 102 129 102c76 0 131 -33 131 -102c0 -68 -54 -100 -131 -100
c-72 0 -129 32 -129 100z" />
    <glyph glyph-name="Idotaccent" unicode="&#x130;" horiz-adv-x="324" 
d="M35 0v720h254v-720h-254zM28 856c0 69 56 102 129 102c76 0 131 -33 131 -102c0 -68 -54 -100 -131 -100c-72 0 -129 32 -129 100z" />
    <glyph glyph-name="dotlessi" unicode="&#x131;" horiz-adv-x="310" 
d="M277 533v-533h-244v533h244z" />
    <glyph glyph-name="IJ" unicode="&#x132;" horiz-adv-x="769" 
d="M35 0v720h254v-720h-254zM739 720v-486c0 -169 -83 -247 -222 -247c-76 0 -134 7 -179 19l10 198c19 -4 47 -8 74 -8c47 0 62 14 62 65v459h255z" />
    <glyph glyph-name="ij" unicode="&#x133;" horiz-adv-x="619" 
d="M25 664c0 69 56 102 129 102c76 0 131 -33 131 -102c0 -68 -54 -100 -131 -100c-72 0 -129 32 -129 100zM277 533v-533h-244v533h244zM586 533v-544c0 -133 -65 -197 -205 -197c-48 0 -88 5 -121 15l11 154c13 -3 26 -4 38 -4c25 0 33 7 33 34v542h244zM337 664
c0 69 56 102 129 102c76 0 131 -33 131 -102c0 -68 -54 -100 -131 -100c-72 0 -129 32 -129 100z" />
    <glyph glyph-name="Jcircumflex" unicode="&#x134;" horiz-adv-x="441" 
d="M411 720v-486c0 -169 -83 -247 -222 -247c-76 0 -134 7 -179 19l10 198c19 -4 47 -8 74 -8c47 0 62 14 62 65v459h255zM222 939h121l126 -119l-89 -73l-98 66l-98 -67l-88 75z" />
    <glyph glyph-name="jcircumflex" unicode="&#x135;" horiz-adv-x="310" 
d="M277 533v-544c0 -133 -65 -197 -205 -197c-48 0 -88 5 -121 15l11 154c13 -3 26 -4 38 -4c25 0 33 7 33 34v542h244zM85 780h121l126 -144l-97 -73l-90 71l-90 -72l-96 75z" />
    <glyph glyph-name="Kcommaaccent" unicode="&#x136;" horiz-adv-x="721" 
d="M32 0v720h254v-262h26l127 262h283l-190 -356l199 -364h-289l-129 252h-27v-252h-254zM245 -238l42 200l163 -39l-71 -194z" />
    <glyph glyph-name="kcommaaccent" unicode="&#x137;" horiz-adv-x="632" 
d="M277 720v-339h18l64 152h260l-124 -243l147 -290h-268l-86 192h-11v-192h-244v720h244zM213 -238l42 200l163 -39l-71 -194z" />
    <glyph glyph-name="kgreenlandic" unicode="&#x138;" horiz-adv-x="628" 
d="M270 533v-162h18l80 162h247l-140 -254l167 -279h-250l-111 182h-11v-182h-244v533h244z" />
    <glyph glyph-name="Lacute" unicode="&#x139;" horiz-adv-x="580" 
d="M35 720h254v-511h271v-209h-525v720zM19 858l206 124l74 -136l-217 -96z" />
    <glyph glyph-name="lacute" unicode="&#x13a;" horiz-adv-x="310" 
d="M277 0h-244v720h244v-720zM6 858l206 124l74 -136l-217 -96z" />
    <glyph glyph-name="Lcommaaccent" unicode="&#x13b;" horiz-adv-x="580" 
d="M35 720h254v-511h271v-209h-525v720zM172 -238l42 200l163 -39l-71 -194z" />
    <glyph glyph-name="lcommaaccent" unicode="&#x13c;" horiz-adv-x="310" 
d="M277 0h-244v720h244v-720zM34 -238l42 200l163 -39l-71 -194z" />
    <glyph glyph-name="Lcaron" unicode="&#x13d;" horiz-adv-x="580" 
d="M35 720h254v-511h271v-209h-525v720zM347 498l24 222h173l-53 -222h-144z" />
    <glyph glyph-name="lcaron" unicode="&#x13e;" horiz-adv-x="489" 
d="M277 0h-244v720h244v-720zM312 498l24 222h173l-53 -222h-144z" />
    <glyph glyph-name="Ldot" unicode="&#x13f;" horiz-adv-x="580" 
d="M35 720h254v-511h271v-209h-525v720zM321 387c0 69 56 102 129 102c76 0 131 -33 131 -102c0 -68 -54 -100 -131 -100c-72 0 -129 32 -129 100z" />
    <glyph glyph-name="ldot" unicode="&#x140;" horiz-adv-x="557" 
d="M277 0h-244v720h244v-720zM300 350c0 69 56 102 129 102c76 0 131 -33 131 -102c0 -68 -54 -100 -131 -100c-72 0 -129 32 -129 100z" />
    <glyph glyph-name="Lslash" unicode="&#x141;" horiz-adv-x="595" 
d="M50 720h254v-237l157 57v-166l-157 -56v-109h271v-209h-525v240l-49 -19v166l49 19v314z" />
    <glyph glyph-name="lslash" unicode="&#x142;" horiz-adv-x="410" 
d="M20 193v186l64 29v312h244v-233l62 28v-186l-62 -28v-301h-244v222z" />
    <glyph glyph-name="Nacute" unicode="&#x143;" horiz-adv-x="734" 
d="M35 0v720h217l197 -310v310h250v-720h-217l-197 286v-286h-250zM230 858l206 124l74 -136l-217 -96z" />
    <glyph glyph-name="nacute" unicode="&#x144;" horiz-adv-x="612" 
d="M33 533h198l23 -48c29 28 86 60 150 60c101 0 180 -56 180 -173v-372h-244v319c0 36 -8 45 -28 45c-13 0 -22 -5 -35 -16v-348h-244v533zM172 657l188 172l101 -125l-203 -140z" />
    <glyph glyph-name="Ncommaaccent" unicode="&#x145;" horiz-adv-x="734" 
d="M35 0v720h217l197 -310v310h250v-720h-217l-197 286v-286h-250zM260 -238l42 200l163 -39l-71 -194z" />
    <glyph glyph-name="ncommaaccent" unicode="&#x146;" horiz-adv-x="612" 
d="M33 533h198l23 -48c29 28 86 60 150 60c101 0 180 -56 180 -173v-372h-244v319c0 36 -8 45 -28 45c-13 0 -22 -5 -35 -16v-348h-244v533zM197 -238l42 200l163 -39l-71 -194z" />
    <glyph glyph-name="Ncaron" unicode="&#x147;" horiz-adv-x="734" 
d="M35 0v720h217l197 -310v310h250v-720h-217l-197 286v-286h-250zM425 759h-121l-126 119l89 73l98 -66l98 67l88 -75z" />
    <glyph glyph-name="ncaron" unicode="&#x148;" horiz-adv-x="612" 
d="M33 533h198l23 -48c29 28 86 60 150 60c101 0 180 -56 180 -173v-372h-244v319c0 36 -8 45 -28 45c-13 0 -22 -5 -35 -16v-348h-244v533zM367 576h-121l-126 144l97 73l90 -71l90 72l96 -75z" />
    <glyph glyph-name="napostrophe" unicode="&#x149;" horiz-adv-x="713" 
d="M134 533h198l23 -48c29 28 86 60 150 60c101 0 180 -56 180 -173v-372h-244v319c0 36 -8 45 -28 45c-13 0 -22 -5 -35 -16v-348h-244v533zM-17 657c0 43 33 76 80 76c57 0 88 -41 88 -97c0 -83 -51 -137 -139 -154l-21 59c44 15 53 29 60 52c-11 -3 -27 1 -36 5
c-23 12 -32 35 -32 59z" />
    <glyph glyph-name="Eng" unicode="&#x14a;" horiz-adv-x="734" 
d="M35 0v720h217l197 -310v310h250v-727c0 -133 -76 -197 -205 -197c-68 0 -118 8 -151 19l11 154c13 -4 35 -8 55 -8c33 0 46 17 46 57v21l-170 247v-286h-250z" />
    <glyph glyph-name="eng" unicode="&#x14b;" horiz-adv-x="612" 
d="M33 533h198l23 -48c29 28 86 60 150 60c101 0 180 -56 180 -173v-379c0 -133 -65 -197 -205 -197c-48 0 -88 5 -121 15l11 154c13 -3 26 -4 38 -4c25 0 33 7 33 34v324c0 36 -8 45 -28 45c-13 0 -22 -5 -35 -16v-348h-244v533z" />
    <glyph glyph-name="Omacron" unicode="&#x14c;" horiz-adv-x="800" 
d="M287 357c0 -75 28 -143 113 -143s113 69 113 143s-28 149 -113 149s-113 -77 -113 -149zM20 357c0 217 136 378 380 378s380 -157 380 -378c0 -215 -138 -372 -382 -372c-245 0 -378 157 -378 372zM249 769v143h301v-143h-301z" />
    <glyph glyph-name="omacron" unicode="&#x14d;" horiz-adv-x="645" 
d="M273 267c0 -68 16 -98 51 -98c31 0 48 30 48 98s-16 97 -48 97c-35 0 -51 -29 -51 -97zM15 267c0 195 148 278 309 278c167 0 306 -83 306 -278s-146 -280 -318 -280c-167 0 -297 85 -297 280zM173 587v143h301v-143h-301z" />
    <glyph glyph-name="Obreve" unicode="&#x14e;" horiz-adv-x="800" 
d="M287 357c0 -75 28 -143 113 -143s113 69 113 143s-28 149 -113 149s-113 -77 -113 -149zM20 357c0 217 136 378 380 378s380 -157 380 -378c0 -215 -138 -372 -382 -372c-245 0 -378 157 -378 372zM400 868c36 0 44 16 51 49l131 -18c-9 -92 -63 -142 -182 -142
c-120 0 -173 46 -185 142l134 19c7 -35 18 -50 51 -50z" />
    <glyph glyph-name="obreve" unicode="&#x14f;" horiz-adv-x="645" 
d="M273 267c0 -68 16 -98 51 -98c31 0 48 30 48 98s-16 97 -48 97c-35 0 -51 -29 -51 -97zM15 267c0 195 148 278 309 278c167 0 306 -83 306 -278s-146 -280 -318 -280c-167 0 -297 85 -297 280zM323 693c36 0 44 20 51 56l131 -18c-8 -91 -64 -154 -182 -154
c-120 0 -173 58 -185 154l134 19c7 -39 18 -57 51 -57z" />
    <glyph glyph-name="Ohungarumlaut" unicode="&#x150;" horiz-adv-x="800" 
d="M287 357c0 -75 28 -143 113 -143s113 69 113 143s-28 149 -113 149s-113 -77 -113 -149zM20 357c0 217 136 378 380 378s380 -157 380 -378c0 -215 -138 -372 -382 -372c-245 0 -378 157 -378 372zM338 986l116 -71l-135 -168l-93 63zM535 973l108 -78l-140 -149l-90 65z
" />
    <glyph glyph-name="ohungarumlaut" unicode="&#x151;" horiz-adv-x="645" 
d="M273 267c0 -68 16 -98 51 -98c31 0 48 30 48 98s-16 97 -48 97c-35 0 -51 -29 -51 -97zM15 267c0 195 148 278 309 278c167 0 306 -83 306 -278s-146 -280 -318 -280c-167 0 -297 85 -297 280zM273 806l109 -77l-128 -162l-93 63zM466 793l108 -78l-137 -151l-90 65z" />
    <glyph glyph-name="OE" unicode="&#x152;" horiz-adv-x="1073" 
d="M534 0v38c-39 -35 -106 -50 -166 -50c-225 0 -348 154 -348 369c0 217 135 376 360 376c59 0 120 -17 156 -49v36h511v-217h-280v-57h254v-169h-254v-60h281v-217h-514zM287 357c0 -67 28 -140 113 -140c80 0 113 66 113 140c0 79 -28 147 -113 147s-113 -79 -113 -147z
" />
    <glyph glyph-name="oe" unicode="&#x153;" horiz-adv-x="939" 
d="M15 260c0 194 139 285 274 285c93 0 157 -33 197 -93c45 64 114 93 202 93c151 0 238 -105 238 -245c0 -44 -3 -67 -6 -82h-298c4 -37 23 -61 68 -61c39 0 87 7 160 26l42 -141c-69 -37 -129 -54 -220 -54c-73 0 -158 31 -192 65c-45 -39 -108 -65 -197 -65
c-140 0 -268 77 -268 272zM268 265c0 -73 20 -96 51 -96c29 0 48 23 48 91c0 76 -19 104 -48 104c-31 0 -51 -30 -51 -99zM622 322h73c0 45 -11 62 -35 62c-25 0 -37 -21 -38 -62z" />
    <glyph glyph-name="Racute" unicode="&#x154;" horiz-adv-x="689" 
d="M35 720h323c191 0 294 -101 294 -251c0 -96 -32 -159 -96 -202l138 -267h-260l-98 208c-16 -3 -27 -3 -40 -3h-7v-205h-254v720zM344 498h-55v-111h53c35 0 56 21 56 56s-19 55 -54 55zM168 858l206 124l74 -136l-217 -96z" />
    <glyph glyph-name="racute" unicode="&#x155;" horiz-adv-x="419" 
d="M220 533l30 -62c25 43 59 74 102 74c27 0 46 -6 65 -15l-14 -201c-27 7 -35 8 -62 8c-21 0 -48 -9 -64 -25v-312h-244v533h187zM94 657l188 172l101 -125l-203 -140z" />
    <glyph glyph-name="Rcommaaccent" unicode="&#x156;" horiz-adv-x="689" 
d="M35 720h323c191 0 294 -101 294 -251c0 -96 -32 -159 -96 -202l138 -267h-260l-98 208c-16 -3 -27 -3 -40 -3h-7v-205h-254v720zM344 498h-55v-111h53c35 0 56 21 56 56s-19 55 -54 55zM231 -238l42 200l163 -39l-71 -194z" />
    <glyph glyph-name="rcommaaccent" unicode="&#x157;" horiz-adv-x="419" 
d="M220 533l30 -62c25 43 59 74 102 74c27 0 46 -6 65 -15l-14 -201c-27 7 -35 8 -62 8c-21 0 -48 -9 -64 -25v-312h-244v533h187zM32 -238l42 200l163 -39l-71 -194z" />
    <glyph glyph-name="Rcaron" unicode="&#x158;" horiz-adv-x="689" 
d="M35 720h323c191 0 294 -101 294 -251c0 -96 -32 -159 -96 -202l138 -267h-260l-98 208c-16 -3 -27 -3 -40 -3h-7v-205h-254v720zM344 498h-55v-111h53c35 0 56 21 56 56s-19 55 -54 55zM361 759h-121l-126 119l89 73l98 -66l98 67l88 -75z" />
    <glyph glyph-name="rcaron" unicode="&#x159;" horiz-adv-x="419" 
d="M220 533l30 -62c25 43 59 74 102 74c27 0 46 -6 65 -15l-14 -201c-27 7 -35 8 -62 8c-21 0 -48 -9 -64 -25v-312h-244v533h187zM290 576h-121l-126 144l97 73l90 -71l90 72l96 -75z" />
    <glyph glyph-name="Sacute" unicode="&#x15a;" horiz-adv-x="641" 
d="M0 122l120 153c68 -45 151 -84 206 -84c27 0 31 9 31 20c0 18 -17 25 -118 54c-132 37 -206 102 -206 229c0 165 134 241 293 241c99 0 207 -39 288 -99l-97 -162c-53 32 -122 59 -173 59c-27 0 -35 -7 -35 -18c0 -17 7 -22 127 -59c127 -40 185 -93 185 -214
c0 -164 -110 -257 -286 -257c-136 0 -255 53 -335 137zM211 858l206 124l74 -136l-217 -96z" />
    <glyph glyph-name="sacute" unicode="&#x15b;" horiz-adv-x="540" 
d="M0 94l100 119c51 -37 120 -63 149 -63c13 0 19 5 19 15c0 11 -16 14 -67 31c-100 34 -170 68 -170 170c0 122 107 179 246 179c92 0 181 -28 245 -75l-79 -125c-48 24 -102 46 -132 46c-20 0 -23 -6 -23 -13c0 -10 15 -18 81 -39c107 -35 156 -78 156 -164
c0 -123 -90 -188 -245 -188c-109 0 -203 36 -280 107zM149 657l188 172l101 -125l-203 -140z" />
    <glyph glyph-name="Scircumflex" unicode="&#x15c;" horiz-adv-x="641" 
d="M0 122l120 153c68 -45 151 -84 206 -84c27 0 31 9 31 20c0 18 -17 25 -118 54c-132 37 -206 102 -206 229c0 165 134 241 293 241c99 0 207 -39 288 -99l-97 -162c-53 32 -122 59 -173 59c-27 0 -35 -7 -35 -18c0 -17 7 -22 127 -59c127 -40 185 -93 185 -214
c0 -164 -110 -257 -286 -257c-136 0 -255 53 -335 137zM270 939h121l126 -119l-89 -73l-98 66l-98 -67l-88 75z" />
    <glyph glyph-name="scircumflex" unicode="&#x15d;" horiz-adv-x="540" 
d="M0 94l100 119c51 -37 120 -63 149 -63c13 0 19 5 19 15c0 11 -16 14 -67 31c-100 34 -170 68 -170 170c0 122 107 179 246 179c92 0 181 -28 245 -75l-79 -125c-48 24 -102 46 -132 46c-20 0 -23 -6 -23 -13c0 -10 15 -18 81 -39c107 -35 156 -78 156 -164
c0 -123 -90 -188 -245 -188c-109 0 -203 36 -280 107zM217 780h121l126 -144l-97 -73l-90 71l-90 -72l-96 75z" />
    <glyph glyph-name="Scedilla" unicode="&#x15e;" horiz-adv-x="641" 
d="M210 -223l15 83c19 -4 44 -9 67 -9c29 0 38 6 38 21c0 20 -18 25 -58 25h-25l18 96c-108 15 -200 63 -265 132l120 153c68 -45 151 -84 206 -84c27 0 31 9 31 20c0 19 -17 23 -118 52c-132 37 -206 101 -206 228c0 165 134 238 293 238c99 0 207 -39 288 -99l-97 -162
c-53 32 -122 59 -173 59c-27 0 -35 -7 -35 -18c0 -17 7 -19 127 -56c127 -40 185 -93 185 -214c0 -160 -105 -249 -274 -254l-3 -24c63 -5 104 -30 104 -91c0 -67 -42 -114 -131 -114c-45 0 -84 9 -107 18z" />
    <glyph glyph-name="scedilla" unicode="&#x15f;" horiz-adv-x="540" 
d="M158 -223l15 83c19 -4 44 -9 67 -9c29 0 38 6 38 21c0 20 -18 25 -58 25h-25l17 95c-81 12 -152 46 -212 102l100 119c51 -37 120 -63 149 -63c13 0 19 5 19 15c0 11 -16 14 -67 31c-100 34 -170 68 -170 170c0 122 107 179 246 179c92 0 181 -28 245 -75l-79 -125
c-48 24 -102 46 -132 46c-20 0 -23 -6 -23 -13c0 -10 15 -18 81 -39c107 -35 156 -78 156 -164c0 -119 -85 -183 -230 -188l-3 -23c63 -5 104 -30 104 -91c0 -67 -42 -114 -131 -114c-45 0 -84 9 -107 18z" />
    <glyph glyph-name="Scaron" unicode="&#x160;" horiz-adv-x="641" 
d="M0 122l120 153c68 -45 151 -84 206 -84c27 0 31 9 31 20c0 18 -17 25 -118 54c-132 37 -206 102 -206 229c0 165 134 241 293 241c99 0 207 -39 288 -99l-97 -162c-53 32 -122 59 -173 59c-27 0 -35 -7 -35 -18c0 -17 7 -22 127 -59c127 -40 185 -93 185 -214
c0 -164 -110 -257 -286 -257c-136 0 -255 53 -335 137zM387 759h-121l-126 119l89 73l98 -66l98 67l88 -75z" />
    <glyph glyph-name="scaron" unicode="&#x161;" horiz-adv-x="540" 
d="M0 94l100 119c51 -37 120 -63 149 -63c13 0 19 5 19 15c0 11 -16 14 -67 31c-100 34 -170 68 -170 170c0 122 107 179 246 179c92 0 181 -28 245 -75l-79 -125c-48 24 -102 46 -132 46c-20 0 -23 -6 -23 -13c0 -10 15 -18 81 -39c107 -35 156 -78 156 -164
c0 -123 -90 -188 -245 -188c-109 0 -203 36 -280 107zM330 576h-121l-126 144l97 73l90 -71l90 72l96 -75z" />
    <glyph glyph-name="Scommaaccent" unicode="&#x218;" horiz-adv-x="641" 
d="M0 122l120 153c68 -45 151 -84 206 -84c27 0 31 9 31 20c0 18 -17 25 -118 54c-132 37 -206 102 -206 229c0 165 134 241 293 241c99 0 207 -39 288 -99l-97 -162c-53 32 -122 59 -173 59c-27 0 -35 -7 -35 -18c0 -17 7 -22 127 -59c127 -40 185 -93 185 -214
c0 -164 -110 -257 -286 -257c-136 0 -255 53 -335 137zM211 -238l42 200l163 -39l-71 -194z" />
    <glyph glyph-name="scommaaccent" unicode="&#x219;" horiz-adv-x="540" 
d="M0 94l100 119c51 -37 120 -63 149 -63c13 0 19 5 19 15c0 11 -16 14 -67 31c-100 34 -170 68 -170 170c0 122 107 179 246 179c92 0 181 -28 245 -75l-79 -125c-48 24 -102 46 -132 46c-20 0 -23 -6 -23 -13c0 -10 15 -18 81 -39c107 -35 156 -78 156 -164
c0 -123 -90 -188 -245 -188c-109 0 -203 36 -280 107zM159 -238l42 200l163 -39l-71 -194z" />
    <glyph glyph-name="uni021A" unicode="&#x21a;" horiz-adv-x="660" 
d="M203 0v495h-193v225h640v-225h-193v-495h-254zM209 -238l42 200l163 -39l-71 -194z" />
    <glyph glyph-name="uni021B" unicode="&#x21b;" horiz-adv-x="418" 
d="M405 374h-83v-176c0 -19 6 -29 30 -29c15 0 28 2 40 5l20 -162c-56 -19 -103 -25 -160 -25c-125 0 -174 71 -174 164v223h-74v117l80 40l9 166h229v-164h83v-159zM133 -238l42 200l163 -39l-71 -194z" />
    <glyph glyph-name="Tcaron" unicode="&#x164;" horiz-adv-x="660" 
d="M203 0v495h-193v225h640v-225h-193v-495h-254zM390 759h-121l-126 119l89 73l98 -66l98 67l88 -75z" />
    <glyph glyph-name="tcaron" unicode="&#x165;" horiz-adv-x="497" 
d="M405 374h-83v-176c0 -19 6 -29 30 -29c15 0 28 2 40 5l20 -162c-56 -19 -103 -25 -160 -25c-125 0 -174 71 -174 164v223h-74v117l80 40l9 166h229v-164h83v-159zM356 591l24 222h173l-53 -222h-144z" />
    <glyph glyph-name="Tbar" unicode="&#x166;" horiz-adv-x="660" 
d="M104 261v143h99v91h-193v225h640v-225h-193v-91h98v-143h-98v-261h-254v261h-99z" />
    <glyph glyph-name="tbar" unicode="&#x167;" horiz-adv-x="418" 
d="M405 374h-83v-35h83v-123h-83v-18c0 -19 6 -29 30 -29c15 0 28 2 40 5l20 -162c-56 -19 -103 -25 -160 -25c-125 0 -174 71 -174 164v65h-74v123h74v35h-74v117l80 40l9 166h229v-164h83v-159z" />
    <glyph glyph-name="uni0162" unicode="&#x162;" horiz-adv-x="660" 
d="M203 0v495h-193v225h640v-225h-193v-495h-92l-5 -36c63 -5 104 -30 104 -91c0 -67 -42 -114 -131 -114c-45 0 -84 9 -107 18l15 83c19 -4 44 -9 67 -9c29 0 38 6 38 21c0 20 -18 25 -58 25h-25l19 103h-79z" />
    <glyph glyph-name="uni0163" unicode="&#x163;" horiz-adv-x="418" 
d="M127 -223l15 83c19 -4 44 -9 67 -9c29 0 38 6 38 21c0 20 -18 25 -58 25h-25l18 99c-75 23 -104 80 -104 155v223h-74v117l80 40l9 166h229v-164h83v-159h-83v-176c0 -19 6 -29 30 -29c15 0 28 2 40 5l20 -162c-51 -16 -96 -24 -148 -25l-3 -23c63 -5 104 -30 104 -91
c0 -67 -42 -114 -131 -114c-45 0 -84 9 -107 18z" />
    <glyph glyph-name="Utilde" unicode="&#x168;" horiz-adv-x="705" 
d="M30 720h254v-439c0 -55 28 -72 67 -72c37 0 70 17 70 72v439h254v-438c0 -201 -124 -297 -324 -297c-211 0 -321 94 -321 297v438zM466 947l107 -43c-16 -78 -49 -142 -117 -142c-56 0 -110 29 -136 29c-17 0 -26 -7 -41 -36l-104 46c21 72 55 139 119 139
c54 0 102 -28 133 -28c23 0 28 12 39 35z" />
    <glyph glyph-name="utilde" unicode="&#x169;" horiz-adv-x="614" 
d="M586 0h-193l-31 55c-35 -45 -82 -68 -150 -68c-112 0 -179 61 -179 174v372h245v-328c0 -24 9 -36 28 -36c13 0 29 7 36 16v348h244v-533zM407 771l107 -43c-16 -78 -49 -142 -117 -142c-56 0 -110 29 -136 29c-17 0 -26 -7 -41 -36l-104 46c21 72 55 139 119 139
c54 0 102 -28 133 -28c23 0 28 12 39 35z" />
    <glyph glyph-name="Umacron" unicode="&#x16a;" horiz-adv-x="705" 
d="M30 720h254v-439c0 -55 28 -72 67 -72c37 0 70 17 70 72v439h254v-438c0 -201 -124 -297 -324 -297c-211 0 -321 94 -321 297v438zM201 769v143h301v-143h-301z" />
    <glyph glyph-name="umacron" unicode="&#x16b;" horiz-adv-x="614" 
d="M586 0h-193l-31 55c-35 -45 -82 -68 -150 -68c-112 0 -179 61 -179 174v372h245v-328c0 -24 9 -36 28 -36c13 0 29 7 36 16v348h244v-533zM162 587v143h301v-143h-301z" />
    <glyph glyph-name="Ubreve" unicode="&#x16c;" horiz-adv-x="705" 
d="M30 720h254v-439c0 -55 28 -72 67 -72c37 0 70 17 70 72v439h254v-438c0 -201 -124 -297 -324 -297c-211 0 -321 94 -321 297v438zM355 868c36 0 44 16 51 49l131 -18c-9 -92 -63 -142 -182 -142c-120 0 -173 46 -185 142l134 19c7 -35 18 -50 51 -50z" />
    <glyph glyph-name="ubreve" unicode="&#x16d;" horiz-adv-x="614" 
d="M586 0h-193l-31 55c-35 -45 -82 -68 -150 -68c-112 0 -179 61 -179 174v372h245v-328c0 -24 9 -36 28 -36c13 0 29 7 36 16v348h244v-533zM310 693c36 0 44 20 51 56l131 -18c-8 -91 -64 -154 -182 -154c-120 0 -173 58 -185 154l134 19c7 -39 18 -57 51 -57z" />
    <glyph glyph-name="Uring" unicode="&#x16e;" horiz-adv-x="705" 
d="M30 720h254v-439c0 -55 28 -72 67 -72c37 0 70 17 70 72v439h254v-438c0 -201 -124 -297 -324 -297c-211 0 -321 94 -321 297v438zM320 842c0 -21 11 -31 33 -31c17 0 31 11 31 31c0 21 -12 30 -31 30c-22 0 -33 -10 -33 -30zM233 837c0 72 53 110 120 110
c65 0 118 -36 118 -105c0 -68 -53 -107 -118 -107c-73 0 -120 34 -120 102z" />
    <glyph glyph-name="uring" unicode="&#x16f;" horiz-adv-x="614" 
d="M586 0h-193l-31 55c-35 -45 -82 -68 -150 -68c-112 0 -179 61 -179 174v372h245v-328c0 -24 9 -36 28 -36c13 0 29 7 36 16v348h244v-533zM279 679c0 -21 11 -31 33 -31c17 0 31 11 31 31c0 21 -12 30 -31 30c-22 0 -33 -10 -33 -30zM192 674c0 72 53 110 120 110
c65 0 118 -36 118 -105c0 -68 -53 -107 -118 -107c-73 0 -120 34 -120 102z" />
    <glyph glyph-name="Uhungarumlaut" unicode="&#x170;" horiz-adv-x="705" 
d="M30 720h254v-439c0 -55 28 -72 67 -72c37 0 70 17 70 72v439h254v-438c0 -201 -124 -297 -324 -297c-211 0 -321 94 -321 297v438zM290 986l116 -71l-135 -168l-93 63zM487 973l108 -78l-140 -149l-90 65z" />
    <glyph glyph-name="uhungarumlaut" unicode="&#x171;" horiz-adv-x="614" 
d="M586 0h-193l-31 55c-35 -45 -82 -68 -150 -68c-112 0 -179 61 -179 174v372h245v-328c0 -24 9 -36 28 -36c13 0 29 7 36 16v348h244v-533zM254 806l109 -77l-128 -162l-93 63zM447 793l108 -78l-137 -151l-90 65z" />
    <glyph glyph-name="Uogonek" unicode="&#x172;" horiz-adv-x="705" 
d="M30 720h254v-437c0 -55 28 -72 67 -72c37 0 70 17 70 72v437h254v-436c0 -146 -50 -223 -160 -287c-53 -29 -88 -78 -88 -102c0 -13 7 -19 21 -19c13 0 24 1 47 8l26 -94c-31 -15 -84 -36 -140 -36c-92 0 -124 49 -124 97c0 52 30 95 74 136c-199 7 -301 101 -301 297
v436z" />
    <glyph glyph-name="uogonek" unicode="&#x173;" horiz-adv-x="614" 
d="M586 533v-533c-56 -41 -84 -84 -84 -105c0 -13 7 -19 21 -19c13 0 24 1 47 8l26 -94c-31 -15 -84 -36 -140 -36c-92 0 -124 49 -124 97c0 57 37 104 88 149h-27l-31 55c-35 -45 -82 -68 -150 -68c-112 0 -179 61 -179 174v372h245v-328c0 -24 9 -36 28 -36
c13 0 29 7 36 16v348h244z" />
    <glyph glyph-name="Wcircumflex" unicode="&#x174;" horiz-adv-x="934" 
d="M146 0l-156 720h261l48 -395h5l51 395h222l52 -397h5l47 397h263l-158 -720h-250l-69 389h-4l-68 -389h-249zM404 939h121l126 -119l-89 -73l-98 66l-98 -67l-88 75z" />
    <glyph glyph-name="wcircumflex" unicode="&#x175;" horiz-adv-x="850" 
d="M618 533h242l-152 -533h-247l-29 228h-5l-32 -228h-252l-153 533h242l46 -289h4l29 289h229l39 -289h4zM366 780h121l126 -144l-97 -73l-90 71l-90 -72l-96 75z" />
    <glyph glyph-name="Wgrave" unicode="&#x1e80;" horiz-adv-x="934" 
d="M146 0l-156 720h261l48 -395h5l51 395h222l52 -397h5l47 397h263l-158 -720h-250l-69 389h-4l-68 -389h-249zM394 982l206 -124l-63 -108l-217 96z" />
    <glyph glyph-name="wgrave" unicode="&#x1e81;" horiz-adv-x="850" 
d="M618 533h242l-152 -533h-247l-29 228h-5l-32 -228h-252l-153 533h242l46 -289h4l29 289h229l39 -289h4zM371 828l189 -171l-85 -93l-204 138z" />
    <glyph glyph-name="Wacute" unicode="&#x1e82;" horiz-adv-x="934" 
d="M146 0l-156 720h261l48 -395h5l51 395h222l52 -397h5l47 397h263l-158 -720h-250l-69 389h-4l-68 -389h-249zM320 858l206 124l74 -136l-217 -96z" />
    <glyph glyph-name="wacute" unicode="&#x1e83;" horiz-adv-x="850" 
d="M618 533h242l-152 -533h-247l-29 228h-5l-32 -228h-252l-153 533h242l46 -289h4l29 289h229l39 -289h4zM267 657l188 172l101 -125l-203 -140z" />
    <glyph glyph-name="Wdieresis" unicode="&#x1e84;" horiz-adv-x="934" 
d="M146 0l-156 720h261l48 -395h5l51 395h222l52 -397h5l47 397h263l-158 -720h-250l-69 389h-4l-68 -389h-249zM485 848c0 51 38 92 107 92c76 0 106 -41 106 -92c0 -53 -40 -89 -105 -89c-72 0 -108 33 -108 89zM223 848c0 51 38 92 107 92c76 0 106 -41 106 -92
c0 -53 -40 -89 -105 -89c-72 0 -108 33 -108 89z" />
    <glyph glyph-name="wdieresis" unicode="&#x1e85;" horiz-adv-x="850" 
d="M618 533h242l-152 -533h-247l-29 228h-5l-32 -228h-252l-153 533h242l46 -289h4l29 289h229l39 -289h4zM450 668c0 51 38 92 107 92c76 0 106 -41 106 -92c0 -53 -40 -89 -105 -89c-72 0 -108 33 -108 89zM188 668c0 51 38 92 107 92c76 0 106 -41 106 -92
c0 -53 -40 -89 -105 -89c-72 0 -108 33 -108 89z" />
    <glyph glyph-name="Ygrave" unicode="&#x1ef2;" horiz-adv-x="747" 
d="M240 0v237l-250 483h277l101 -254l105 254h284l-263 -482v-238h-254zM302 982l206 -124l-63 -108l-217 96z" />
    <glyph glyph-name="ygrave" unicode="&#x1ef3;" horiz-adv-x="599" 
d="M89 -200v177h74c29 0 32 10 32 25v16l-205 515h254l58 -286h4l52 286h251l-190 -493v-67c0 -115 -62 -173 -185 -173h-145zM238 828l189 -171l-85 -93l-204 138z" />
    <glyph glyph-name="Ycircumflex" unicode="&#x176;" horiz-adv-x="747" 
d="M240 0v237l-250 483h277l101 -254l105 254h284l-263 -482v-238h-254zM312 939h121l126 -119l-89 -73l-98 66l-98 -67l-88 75z" />
    <glyph glyph-name="ycircumflex" unicode="&#x177;" horiz-adv-x="599" 
d="M89 -200v177h74c29 0 32 10 32 25v16l-205 515h254l58 -286h4l52 286h251l-190 -493v-67c0 -115 -62 -173 -185 -173h-145zM242 780h121l126 -144l-97 -73l-90 71l-90 -72l-96 75z" />
    <glyph glyph-name="Ydieresis" unicode="&#x178;" horiz-adv-x="747" 
d="M240 0v237l-250 483h277l101 -254l105 254h284l-263 -482v-238h-254zM393 848c0 51 38 92 107 92c76 0 106 -41 106 -92c0 -53 -40 -89 -105 -89c-72 0 -108 33 -108 89zM131 848c0 51 38 92 107 92c76 0 106 -41 106 -92c0 -53 -40 -89 -105 -89c-72 0 -108 33 -108 89z
" />
    <glyph glyph-name="Zacute" unicode="&#x179;" horiz-adv-x="669" 
d="M15 0v158l249 345h-245v217h630v-90l-287 -413h286v-217h-633zM209 858l206 124l74 -136l-217 -96z" />
    <glyph glyph-name="zacute" unicode="&#x17a;" 
d="M23 0v145l150 212h-147v176h455v-92l-172 -266h174v-175h-460zM114 657l188 172l101 -125l-203 -140z" />
    <glyph glyph-name="Zdotaccent" unicode="&#x17b;" horiz-adv-x="669" 
d="M15 0v158l249 345h-245v217h630v-90l-287 -413h286v-217h-633zM198 856c0 69 56 102 129 102c76 0 131 -33 131 -102c0 -68 -54 -100 -131 -100c-72 0 -129 32 -129 100z" />
    <glyph glyph-name="zdotaccent" unicode="&#x17c;" 
d="M23 0v145l150 212h-147v176h455v-92l-172 -266h174v-175h-460zM125 664c0 69 56 102 129 102c76 0 131 -33 131 -102c0 -68 -54 -100 -131 -100c-72 0 -129 32 -129 100z" />
    <glyph glyph-name="Zcaron" unicode="&#x17d;" horiz-adv-x="669" 
d="M15 0v158l249 345h-245v217h630v-90l-287 -413h286v-217h-633zM390 759h-121l-126 119l89 73l98 -66l98 67l88 -75z" />
    <glyph glyph-name="zcaron" unicode="&#x17e;" 
d="M23 0v145l150 212h-147v176h455v-92l-172 -266h174v-175h-460zM320 576h-121l-126 144l97 73l90 -71l90 72l96 -75z" />
    <glyph glyph-name="Jcircumflex.alt" horiz-adv-x="451" 
d="M421 720v-473c0 -171 -82 -247 -261 -247h-140v223h79c56 0 67 17 67 65v432h255zM232 939h121l126 -119l-89 -73l-98 66l-98 -67l-88 75z" />
    <glyph glyph-name="jcircumflex.alt" horiz-adv-x="304" 
d="M274 533v-514c0 -159 -55 -223 -247 -223h-78v189h30c48 0 51 18 51 50v498h244zM87 780h121l126 -144l-97 -73l-90 71l-90 -72l-96 75z" />
    <glyph glyph-name="ygrave.alt" horiz-adv-x="596" 
d="M369 532h229l-190 -529c-59 -165 -117 -212 -242 -212c-61 0 -106 5 -133 12l21 159c17 -3 37 -4 64 -4c32 0 48 9 60 44l3 9l-180 521h230l67 -309h4zM244 828l189 -171l-85 -93l-204 138z" />
    <glyph glyph-name="ycircumflex.alt" horiz-adv-x="596" 
d="M369 532h229l-190 -529c-59 -165 -117 -212 -242 -212c-61 0 -106 5 -133 12l21 159c17 -3 37 -4 64 -4c32 0 48 9 60 44l3 9l-180 521h230l67 -309h4zM242 780h121l126 -144l-97 -73l-90 71l-90 -72l-96 75z" />
    <glyph glyph-name="ydieresis.alt" horiz-adv-x="596" 
d="M369 532h229l-190 -529c-59 -165 -117 -212 -242 -212c-61 0 -106 5 -133 12l21 159c17 -3 37 -4 64 -4c32 0 48 9 60 44l3 9l-180 521h230l67 -309h4zM326 668c0 51 38 92 107 92c76 0 106 -41 106 -92c0 -53 -40 -89 -105 -89c-72 0 -108 33 -108 89zM64 668
c0 51 38 92 107 92c76 0 106 -41 106 -92c0 -53 -40 -89 -105 -89c-72 0 -108 33 -108 89z" />
    <glyph glyph-name="yacute.alt" horiz-adv-x="596" 
d="M369 532h229l-190 -529c-59 -165 -117 -212 -242 -212c-61 0 -106 5 -133 12l21 159c17 -3 37 -4 64 -4c32 0 48 9 60 44l3 9l-180 521h230l67 -309h4zM169 647l188 172l101 -125l-203 -140z" />
    <glyph glyph-name="agrave.alt" horiz-adv-x="640" 
d="M400 0l-17 57c-29 -45 -82 -70 -147 -70c-151 0 -221 94 -221 278c0 201 122 280 237 280c51 0 101 -9 144 -54l18 42h198v-533h-212zM367 184v162c-11 12 -29 18 -44 18c-36 0 -50 -36 -50 -97c0 -67 15 -99 52 -99c15 0 31 4 42 16zM278 828l189 -171l-85 -93l-204 138
z" />
    <glyph glyph-name="a.alt" horiz-adv-x="640" 
d="M400 0l-17 57c-29 -45 -82 -70 -147 -70c-151 0 -221 94 -221 278c0 201 122 280 237 280c51 0 101 -9 144 -54l18 42h198v-533h-212zM367 184v162c-11 12 -29 18 -44 18c-36 0 -50 -36 -50 -97c0 -67 15 -99 52 -99c15 0 31 4 42 16z" />
    <glyph glyph-name="aacute.alt" horiz-adv-x="640" 
d="M400 0l-17 57c-29 -45 -82 -70 -147 -70c-151 0 -221 94 -221 278c0 201 122 280 237 280c51 0 101 -9 144 -54l18 42h198v-533h-212zM367 184v162c-11 12 -29 18 -44 18c-36 0 -50 -36 -50 -97c0 -67 15 -99 52 -99c15 0 31 4 42 16zM210 657l188 172l101 -125
l-203 -140z" />
    <glyph glyph-name="acircumflex.alt" horiz-adv-x="640" 
d="M400 0l-17 57c-29 -45 -82 -70 -147 -70c-151 0 -221 94 -221 278c0 201 122 280 237 280c51 0 101 -9 144 -54l18 42h198v-533h-212zM367 184v162c-11 12 -29 18 -44 18c-36 0 -50 -36 -50 -97c0 -67 15 -99 52 -99c15 0 31 4 42 16zM268 780h121l126 -144l-97 -73
l-90 71l-90 -72l-96 75z" />
    <glyph glyph-name="atilde.alt" horiz-adv-x="640" 
d="M400 0l-17 57c-29 -45 -82 -70 -147 -70c-151 0 -221 94 -221 278c0 201 122 280 237 280c51 0 101 -9 144 -54l18 42h198v-533h-212zM367 184v162c-11 12 -29 18 -44 18c-36 0 -50 -36 -50 -97c0 -67 15 -99 52 -99c15 0 31 4 42 16zM432 771l107 -43
c-16 -78 -49 -142 -117 -142c-56 0 -110 29 -136 29c-17 0 -26 -7 -41 -36l-104 46c21 72 55 139 119 139c54 0 102 -28 133 -28c23 0 28 12 39 35z" />
    <glyph glyph-name="adieresis.alt" horiz-adv-x="640" 
d="M400 0l-17 57c-29 -45 -82 -70 -147 -70c-151 0 -221 94 -221 278c0 201 122 280 237 280c51 0 101 -9 144 -54l18 42h198v-533h-212zM367 184v162c-11 12 -29 18 -44 18c-36 0 -50 -36 -50 -97c0 -67 15 -99 52 -99c15 0 31 4 42 16zM355 668c0 51 38 92 107 92
c76 0 106 -41 106 -92c0 -53 -40 -89 -105 -89c-72 0 -108 33 -108 89zM93 668c0 51 38 92 107 92c76 0 106 -41 106 -92c0 -53 -40 -89 -105 -89c-72 0 -108 33 -108 89z" />
    <glyph glyph-name="aring.alt" horiz-adv-x="640" 
d="M400 0l-17 57c-29 -45 -82 -70 -147 -70c-151 0 -221 94 -221 278c0 201 122 280 237 280c51 0 101 -9 144 -54l18 42h198v-533h-212zM367 184v162c-11 12 -29 18 -44 18c-36 0 -50 -36 -50 -97c0 -67 15 -99 52 -99c15 0 31 4 42 16zM304 679c0 -21 11 -31 33 -31
c17 0 31 11 31 31c0 21 -12 30 -31 30c-22 0 -33 -10 -33 -30zM217 674c0 72 53 110 120 110c65 0 118 -36 118 -105c0 -68 -53 -107 -118 -107c-73 0 -120 34 -120 102z" />
    <glyph glyph-name="amacron.alt" horiz-adv-x="640" 
d="M400 0l-17 57c-29 -45 -82 -70 -147 -70c-151 0 -221 94 -221 278c0 201 122 280 237 280c51 0 101 -9 144 -54l18 42h198v-533h-212zM367 184v162c-11 12 -29 18 -44 18c-36 0 -50 -36 -50 -97c0 -67 15 -99 52 -99c15 0 31 4 42 16zM190 587v143h301v-143h-301z" />
    <glyph glyph-name="abreve.alt" horiz-adv-x="640" 
d="M400 0l-17 57c-29 -45 -82 -70 -147 -70c-151 0 -221 94 -221 278c0 201 122 280 237 280c51 0 101 -9 144 -54l18 42h198v-533h-212zM367 184v162c-11 12 -29 18 -44 18c-36 0 -50 -36 -50 -97c0 -67 15 -99 52 -99c15 0 31 4 42 16zM339 693c36 0 44 20 51 56l131 -18
c-8 -91 -64 -154 -182 -154c-120 0 -173 58 -185 154l134 19c7 -39 18 -57 51 -57z" />
    <glyph glyph-name="aogonek.alt" horiz-adv-x="640" 
d="M400 0l-17 57c-29 -45 -82 -70 -147 -70c-151 0 -221 94 -221 278c0 201 122 280 237 280c51 0 101 -9 144 -54l18 42h198v-533c-55 -41 -83 -84 -83 -105c0 -13 7 -19 21 -19c13 0 24 1 47 8l26 -94c-31 -15 -84 -36 -140 -36c-92 0 -124 49 -124 97c0 57 37 104 88 149
h-47zM367 184v162c-11 12 -29 18 -44 18c-36 0 -50 -36 -50 -97c0 -67 15 -99 52 -99c15 0 31 4 42 16z" />
    <glyph glyph-name="gcircumflex.alt" horiz-adv-x="640" 
d="M612 533v-462c0 -210 -92 -271 -298 -271h-190v175h173c59 0 80 8 80 59v40c-36 -47 -91 -61 -139 -61c-120 0 -223 46 -223 249c0 176 90 283 234 283c61 0 112 -21 147 -54l18 42h198zM367 209v137c-12 11 -25 18 -44 18c-37 0 -50 -27 -50 -91c0 -60 16 -80 53 -80
c16 0 30 5 41 16zM269 780h121l126 -144l-97 -73l-90 71l-90 -72l-96 75z" />
    <glyph glyph-name="g.alt" horiz-adv-x="640" 
d="M612 533v-462c0 -210 -92 -271 -298 -271h-190v175h173c59 0 80 8 80 59v40c-36 -47 -91 -61 -139 -61c-120 0 -223 46 -223 249c0 176 90 283 234 283c61 0 112 -21 147 -54l18 42h198zM367 209v137c-12 11 -25 18 -44 18c-37 0 -50 -27 -50 -91c0 -60 16 -80 53 -80
c16 0 30 5 41 16z" />
    <glyph glyph-name="gbreve.alt" horiz-adv-x="640" 
d="M612 533v-462c0 -210 -92 -271 -298 -271h-190v175h173c59 0 80 8 80 59v40c-36 -47 -91 -61 -139 -61c-120 0 -223 46 -223 249c0 176 90 283 234 283c61 0 112 -21 147 -54l18 42h198zM367 209v137c-12 11 -25 18 -44 18c-37 0 -50 -27 -50 -91c0 -60 16 -80 53 -80
c16 0 30 5 41 16zM334 693c36 0 44 20 51 56l131 -18c-8 -91 -64 -154 -182 -154c-120 0 -173 58 -185 154l134 19c7 -39 18 -57 51 -57z" />
    <glyph glyph-name="gdotaccent.alt" horiz-adv-x="640" 
d="M612 533v-462c0 -210 -92 -271 -298 -271h-190v175h173c59 0 80 8 80 59v40c-36 -47 -91 -61 -139 -61c-120 0 -223 46 -223 249c0 176 90 283 234 283c61 0 112 -21 147 -54l18 42h198zM367 209v137c-12 11 -25 18 -44 18c-37 0 -50 -27 -50 -91c0 -60 16 -80 53 -80
c16 0 30 5 41 16zM201 664c0 69 56 102 129 102c76 0 131 -33 131 -102c0 -68 -54 -100 -131 -100c-72 0 -129 32 -129 100z" />
    <glyph glyph-name="gcommaaccent.alt" horiz-adv-x="640" 
d="M612 533v-462c0 -210 -92 -271 -298 -271h-190v175h173c59 0 80 8 80 59v40c-36 -47 -91 -61 -139 -61c-120 0 -223 46 -223 249c0 176 90 283 234 283c61 0 112 -21 147 -54l18 42h198zM367 209v137c-12 11 -25 18 -44 18c-37 0 -50 -27 -50 -91c0 -60 16 -80 53 -80
c16 0 30 5 41 16zM441 764l-42 -200l-164 38l71 194z" />
    <glyph glyph-name="longs" unicode="&#x17f;" horiz-adv-x="396" 
d="M74 0v374h-70v125l70 26v10c0 133 65 197 205 197c51 0 87 -4 127 -15l-11 -155c-17 5 -33 8 -46 8c-25 0 -31 -14 -31 -27v-543h-244z" />
    <glyph glyph-name="dotlessj" unicode="&#x237;" horiz-adv-x="304" 
d="M274 533v-544c0 -133 -65 -197 -205 -197c-48 0 -88 5 -121 15l11 154c13 -3 26 -4 38 -4c25 0 33 7 33 34v542h244z" />
    <glyph glyph-name="ft" unicode="&#xf603;" horiz-adv-x="733" 
d="M720 374h-83v-176c0 -19 6 -29 30 -29c15 0 28 2 40 5l20 -162c-56 -19 -103 -25 -160 -25c-125 0 -174 71 -174 164v223h-75v-374h-244v374h-70v125l70 26v11c0 133 60 197 200 197c33 0 57 -4 93 -11v-154c-9 3 -14 3 -23 3c-23 0 -26 -14 -26 -27v-11h81l9 164h229
v-164h83v-159z" />
    <glyph glyph-name="fft" horiz-adv-x="1056" 
d="M1043 374h-83v-176c0 -19 6 -29 30 -29c15 0 28 2 40 5l20 -162c-56 -19 -103 -25 -160 -25c-125 0 -174 71 -174 164v223h-75v-374h-244v374h-79v-374h-244v374h-70v125l70 26v11c0 128 64 197 200 197c36 0 70 -5 106 -13l-13 -152c-9 3 -14 3 -23 3
c-23 0 -26 -14 -26 -27v-11h79v3c0 133 60 197 200 197c33 0 57 -4 93 -11v-154c-9 3 -14 3 -23 3c-23 0 -26 -14 -26 -27v-11h81l9 164h229v-164h83v-159z" />
    <glyph glyph-name="perthousand" unicode="&#x2030;" horiz-adv-x="1218" 
d="M551 172c0 122 92 189 187 189c67 0 109 -21 141 -54c29 29 73 54 142 54c92 0 182 -58 182 -184c0 -120 -79 -190 -184 -190c-57 0 -113 19 -142 54c-35 -35 -83 -54 -143 -54c-100 0 -183 64 -183 185zM172 0l439 720h186l-442 -720h-183zM15 544c0 122 92 189 203 189
c109 0 200 -64 200 -184s-91 -190 -200 -190c-111 0 -203 59 -203 185zM699 170c0 -33 19 -57 55 -57c35 0 53 27 53 58s-18 58 -53 58c-36 0 -55 -27 -55 -59zM163 542c0 -33 19 -57 55 -57c35 0 53 27 53 58s-18 58 -53 58c-36 0 -55 -27 -55 -59zM948 170
c0 -33 19 -57 55 -57c35 0 53 27 53 58s-18 58 -53 58c-36 0 -55 -27 -55 -59z" />
    <glyph glyph-name="percent" unicode="%" horiz-adv-x="1107" 
d="M177 517c0 -39 21 -65 64 -65c40 0 63 30 63 67c0 36 -22 66 -63 66c-43 0 -64 -29 -64 -68zM14 520c0 136 102 214 227 214c124 0 224 -75 224 -210c0 -134 -100 -214 -224 -214c-125 0 -227 69 -227 210zM799 193c0 -39 21 -65 64 -65c40 0 63 30 63 67
c0 36 -22 66 -63 66c-43 0 -64 -29 -64 -68zM636 196c0 136 102 214 227 214c124 0 224 -75 224 -210c0 -134 -100 -214 -224 -214c-125 0 -227 69 -227 210zM239 0l439 720h186l-442 -720h-183z" />
    <glyph glyph-name="fraction" unicode="&#x2044;" horiz-adv-x="139" 
d="M-251 0l447 720h187l-444 -720h-190z" />
    <glyph glyph-name="zerosuperior" unicode="&#x2070;" horiz-adv-x="435" 
d="M253 596c0 47 -11 70 -34 70c-25 0 -38 -24 -38 -71c0 -43 12 -68 37 -68c24 0 35 30 35 69zM12 594c0 120 79 199 209 199c124 0 202 -78 202 -195c0 -127 -79 -205 -206 -205s-205 65 -205 201z" />
    <glyph glyph-name="onesuperior" unicode="&#xb9;" horiz-adv-x="326" 
d="M296 400h-193v205h-76l-14 111c51 12 98 34 129 69h154v-385z" />
    <glyph glyph-name="twosuperior" unicode="&#xb2;" horiz-adv-x="398" 
d="M32 400v105l100 65c24 16 53 32 53 53c0 13 -8 19 -23 19c-23 0 -66 -19 -91 -34l-66 104c51 44 124 81 216 81c84 0 160 -40 160 -120c0 -55 -28 -89 -79 -124l-38 -26h114v-123h-346z" />
    <glyph glyph-name="threesuperior" unicode="&#xb3;" horiz-adv-x="380" 
d="M-3 445l44 92c31 -15 74 -29 106 -29c27 0 41 3 41 20c0 15 -10 19 -41 19c-16 0 -33 -1 -48 -4v96c43 1 75 6 75 25c0 15 -12 15 -27 15c-24 0 -62 -12 -89 -23l-40 92c43 24 99 45 178 45c101 0 149 -36 149 -99c0 -45 -29 -76 -80 -91c59 -7 93 -36 93 -88
c0 -85 -80 -122 -181 -122c-65 0 -135 17 -180 52z" />
    <glyph glyph-name="foursuperior" unicode="&#x2074;" horiz-adv-x="438" 
d="M215 670l-62 -102h62v102zM215 400v52h-193v116l135 217h218v-217h42v-116h-42v-52h-160z" />
    <glyph glyph-name="fivesuperior" unicode="&#x2075;" horiz-adv-x="374" 
d="M24 552l18 233h293l-11 -121h-159l-5 -34c15 4 43 8 70 8c79 0 128 -30 128 -110c0 -90 -79 -135 -178 -135c-77 0 -141 31 -176 67l50 86c29 -16 76 -30 101 -30c24 0 40 6 40 23s-10 20 -25 20c-13 0 -19 -3 -24 -6v-1h-122z" />
    <glyph glyph-name="sixsuperior" unicode="&#x2076;" horiz-adv-x="407" 
d="M22 579c0 96 58 214 212 214c52 0 104 -11 141 -26l-29 -106c-29 10 -56 15 -81 15c-40 0 -71 -15 -74 -58c28 16 58 24 89 24c76 0 116 -45 116 -109c0 -107 -95 -140 -181 -140c-144 0 -193 71 -193 186zM215 557c-8 0 -17 -4 -24 -8c-3 -24 2 -46 22 -46
c19 0 23 15 23 27c0 11 -1 27 -21 27z" />
    <glyph glyph-name="sevensuperior" unicode="&#x2077;" horiz-adv-x="376" 
d="M366 679l-113 -279h-207v16l116 216h-142v153h346v-106z" />
    <glyph glyph-name="eightsuperior" unicode="&#x2078;" horiz-adv-x="400" 
d="M160 523c0 -18 11 -27 33 -27c17 0 26 8 26 23c0 16 -17 24 -42 33c-9 -7 -17 -14 -17 -29zM187 680c0 -11 11 -20 34 -27c7 8 11 16 11 27c0 13 -8 20 -23 20s-22 -9 -22 -20zM11 504c0 60 34 82 61 98c-24 11 -49 34 -49 81c0 64 58 110 177 110
c121 0 177 -40 177 -101c0 -45 -26 -71 -46 -84c35 -21 59 -41 59 -92c0 -83 -84 -123 -195 -123c-109 0 -184 38 -184 111z" />
    <glyph glyph-name="ninesuperior" unicode="&#x2079;" horiz-adv-x="412" 
d="M392 607c0 -96 -58 -214 -212 -214c-52 0 -104 11 -141 26l29 106c29 -10 56 -15 81 -15c40 0 71 15 74 58c-28 -16 -58 -24 -89 -24c-76 0 -116 45 -116 109c0 107 95 140 181 140c135 0 193 -71 193 -186zM199 629c8 0 17 4 24 8c3 24 -2 46 -22 46
c-19 0 -23 -15 -23 -27c0 -11 1 -27 21 -27z" />
    <glyph glyph-name="zeroinferior" unicode="&#x2080;" horiz-adv-x="435" 
d="M253 100c0 47 -11 70 -34 70c-25 0 -38 -24 -38 -71c0 -43 12 -68 37 -68c24 0 35 30 35 69zM12 98c0 120 79 199 209 199c124 0 202 -78 202 -195c0 -127 -79 -205 -206 -205s-205 65 -205 201z" />
    <glyph glyph-name="oneinferior" unicode="&#x2081;" horiz-adv-x="326" 
d="M296 -96h-193v205h-76l-14 111c51 12 98 34 129 69h154v-385z" />
    <glyph glyph-name="twoinferior" unicode="&#x2082;" horiz-adv-x="398" 
d="M32 -96v105l100 65c24 16 53 32 53 53c0 13 -8 19 -23 19c-23 0 -66 -19 -91 -34l-66 104c51 44 124 81 216 81c84 0 160 -40 160 -120c0 -55 -28 -89 -79 -124l-38 -26h114v-123h-346z" />
    <glyph glyph-name="threeinferior" unicode="&#x2083;" horiz-adv-x="380" 
d="M-3 -51l44 92c31 -15 74 -29 106 -29c27 0 41 3 41 20c0 15 -10 19 -41 19c-16 0 -33 -1 -48 -4v96c43 1 75 6 75 25c0 15 -12 15 -27 15c-24 0 -62 -12 -89 -23l-40 92c43 24 99 45 178 45c101 0 149 -36 149 -99c0 -45 -29 -76 -80 -91c59 -7 93 -36 93 -88
c0 -85 -80 -122 -181 -122c-65 0 -135 17 -180 52z" />
    <glyph glyph-name="fourinferior" unicode="&#x2084;" horiz-adv-x="438" 
d="M215 174l-62 -102h62v102zM215 -96v52h-193v116l135 217h218v-217h42v-116h-42v-52h-160z" />
    <glyph glyph-name="fiveinferior" unicode="&#x2085;" horiz-adv-x="374" 
d="M30 56l18 233h293l-11 -121h-159l-5 -34c15 4 43 8 70 8c79 0 128 -30 128 -110c0 -90 -79 -135 -178 -135c-77 0 -141 31 -176 67l50 86c29 -16 76 -30 101 -30c24 0 40 6 40 23s-10 20 -25 20c-13 0 -19 -3 -24 -6v-1h-122z" />
    <glyph glyph-name="sixinferior" unicode="&#x2086;" horiz-adv-x="407" 
d="M22 83c0 96 58 214 212 214c52 0 104 -11 141 -26l-29 -106c-29 10 -56 15 -81 15c-40 0 -71 -15 -74 -58c28 16 58 24 89 24c76 0 116 -45 116 -109c0 -107 -95 -140 -181 -140c-144 0 -193 71 -193 186zM215 61c-8 0 -17 -4 -24 -8c-3 -24 2 -46 22 -46
c19 0 23 15 23 27c0 11 -1 27 -21 27z" />
    <glyph glyph-name="seveninferior" unicode="&#x2087;" horiz-adv-x="376" 
d="M366 183l-113 -279h-207v16l116 216h-142v153h346v-106z" />
    <glyph glyph-name="eightinferior" unicode="&#x2088;" horiz-adv-x="400" 
d="M160 27c0 -18 11 -27 33 -27c17 0 26 8 26 23c0 16 -17 24 -42 33c-9 -7 -17 -14 -17 -29zM187 184c0 -11 11 -20 34 -27c7 8 11 16 11 27c0 13 -8 20 -23 20s-22 -9 -22 -20zM11 8c0 60 34 82 61 98c-24 11 -49 34 -49 81c0 64 58 110 177 110c121 0 177 -40 177 -101
c0 -45 -26 -71 -46 -84c35 -21 59 -41 59 -92c0 -83 -84 -123 -195 -123c-109 0 -184 38 -184 111z" />
    <glyph glyph-name="nineinferior" unicode="&#x2089;" horiz-adv-x="412" 
d="M392 111c0 -96 -58 -214 -212 -214c-52 0 -104 11 -141 26l29 106c29 -10 56 -15 81 -15c40 0 71 15 74 58c-28 -16 -58 -24 -89 -24c-76 0 -116 45 -116 109c0 107 95 140 181 140c135 0 193 -71 193 -186zM199 133c8 0 17 4 24 8c3 24 -2 46 -22 46
c-19 0 -23 -15 -23 -27c0 -11 1 -27 21 -27z" />
    <glyph glyph-name="zero.num" horiz-adv-x="435" 
d="M253 546c0 47 -11 70 -34 70c-25 0 -38 -24 -38 -71c0 -43 12 -68 37 -68c24 0 35 30 35 69zM12 544c0 120 79 199 209 199c124 0 202 -78 202 -195c0 -127 -79 -205 -206 -205s-205 65 -205 201z" />
    <glyph glyph-name="one.num" horiz-adv-x="326" 
d="M296 350h-193v205h-76l-14 111c51 12 98 34 129 69h154v-385z" />
    <glyph glyph-name="two.num" horiz-adv-x="398" 
d="M32 350v105l100 65c24 16 53 32 53 53c0 13 -8 19 -23 19c-23 0 -66 -19 -91 -34l-66 104c51 44 124 81 216 81c84 0 160 -40 160 -120c0 -55 -28 -89 -79 -124l-38 -26h114v-123h-346z" />
    <glyph glyph-name="three.num" horiz-adv-x="380" 
d="M-3 395l44 92c31 -15 74 -29 106 -29c27 0 41 3 41 20c0 15 -10 19 -41 19c-16 0 -33 -1 -48 -4v96c43 1 75 6 75 25c0 15 -12 15 -27 15c-24 0 -62 -12 -89 -23l-40 92c43 24 99 45 178 45c101 0 149 -36 149 -99c0 -45 -29 -76 -80 -91c59 -7 93 -36 93 -88
c0 -85 -80 -122 -181 -122c-65 0 -135 17 -180 52z" />
    <glyph glyph-name="four.num" horiz-adv-x="438" 
d="M215 620l-62 -102h62v102zM215 350v52h-193v116l135 217h218v-217h42v-116h-42v-52h-160z" />
    <glyph glyph-name="five.num" horiz-adv-x="374" 
d="M30 502l18 233h293l-11 -121h-159l-5 -34c15 4 43 8 70 8c79 0 128 -30 128 -110c0 -90 -79 -135 -178 -135c-77 0 -141 31 -176 67l50 86c29 -16 76 -30 101 -30c24 0 40 6 40 23s-10 20 -25 20c-13 0 -19 -3 -24 -6v-1h-122z" />
    <glyph glyph-name="six.num" horiz-adv-x="407" 
d="M22 529c0 96 58 214 212 214c52 0 104 -11 141 -26l-29 -106c-29 10 -56 15 -81 15c-40 0 -71 -15 -74 -58c28 16 58 24 89 24c76 0 116 -45 116 -109c0 -107 -95 -140 -181 -140c-144 0 -193 71 -193 186zM215 507c-8 0 -17 -4 -24 -8c-3 -24 2 -46 22 -46
c19 0 23 15 23 27c0 11 -1 27 -21 27z" />
    <glyph glyph-name="seven.num" horiz-adv-x="376" 
d="M366 629l-113 -279h-207v16l116 216h-142v153h346v-106z" />
    <glyph glyph-name="eight.num" horiz-adv-x="400" 
d="M160 473c0 -18 11 -27 33 -27c17 0 26 8 26 23c0 16 -17 24 -42 33c-9 -7 -17 -14 -17 -29zM187 630c0 -11 11 -20 34 -27c7 8 11 16 11 27c0 13 -8 20 -23 20s-22 -9 -22 -20zM11 454c0 60 34 82 61 98c-24 11 -49 34 -49 81c0 64 58 110 177 110
c121 0 177 -40 177 -101c0 -45 -26 -71 -46 -84c35 -21 59 -41 59 -92c0 -83 -84 -123 -195 -123c-109 0 -184 38 -184 111z" />
    <glyph glyph-name="nine.num" horiz-adv-x="412" 
d="M392 557c0 -96 -58 -214 -212 -214c-52 0 -104 11 -141 26l29 106c29 -10 56 -15 81 -15c40 0 71 15 74 58c-28 -16 -58 -24 -89 -24c-76 0 -116 45 -116 109c0 107 95 140 181 140c135 0 193 -71 193 -186zM199 579c8 0 17 4 24 8c3 24 -2 46 -22 46
c-19 0 -23 -15 -23 -27c0 -11 1 -27 21 -27z" />
    <glyph glyph-name="zero.denom" horiz-adv-x="435" 
d="M253 196c0 47 -11 70 -34 70c-25 0 -38 -24 -38 -71c0 -43 12 -68 37 -68c24 0 35 30 35 69zM12 194c0 120 79 199 209 199c124 0 202 -78 202 -195c0 -127 -79 -205 -206 -205s-205 65 -205 201z" />
    <glyph glyph-name="one.denom" horiz-adv-x="326" 
d="M296 0h-193v205h-76l-14 111c51 12 98 34 129 69h154v-385z" />
    <glyph glyph-name="two.denom" horiz-adv-x="398" 
d="M32 0v105l100 65c24 16 53 32 53 53c0 13 -8 19 -23 19c-23 0 -66 -19 -91 -34l-66 104c51 44 124 81 216 81c84 0 160 -40 160 -120c0 -55 -28 -89 -79 -124l-38 -26h114v-123h-346z" />
    <glyph glyph-name="three.denom" horiz-adv-x="380" 
d="M-3 45l44 92c31 -15 74 -29 106 -29c27 0 41 3 41 20c0 15 -10 19 -41 19c-16 0 -33 -1 -48 -4v96c43 1 75 6 75 25c0 15 -12 15 -27 15c-24 0 -62 -12 -89 -23l-40 92c43 24 99 45 178 45c101 0 149 -36 149 -99c0 -45 -29 -76 -80 -91c59 -7 93 -36 93 -88
c0 -85 -80 -122 -181 -122c-65 0 -135 17 -180 52z" />
    <glyph glyph-name="four.denom" horiz-adv-x="438" 
d="M215 270l-62 -102h62v102zM215 0v52h-193v116l135 217h218v-217h42v-116h-42v-52h-160z" />
    <glyph glyph-name="five.denom" horiz-adv-x="374" 
d="M30 152l18 233h293l-11 -121h-159l-5 -34c15 4 43 8 70 8c79 0 128 -30 128 -110c0 -90 -79 -135 -178 -135c-77 0 -141 31 -176 67l50 86c29 -16 76 -30 101 -30c24 0 40 6 40 23s-10 20 -25 20c-13 0 -19 -3 -24 -6v-1h-122z" />
    <glyph glyph-name="six.denom" horiz-adv-x="407" 
d="M22 179c0 96 58 214 212 214c52 0 104 -11 141 -26l-29 -106c-29 10 -56 15 -81 15c-40 0 -71 -15 -74 -58c28 16 58 24 89 24c76 0 116 -45 116 -109c0 -107 -95 -140 -181 -140c-144 0 -193 71 -193 186zM215 157c-8 0 -17 -4 -24 -8c-3 -24 2 -46 22 -46
c19 0 23 15 23 27c0 11 -1 27 -21 27z" />
    <glyph glyph-name="seven.denom" horiz-adv-x="376" 
d="M366 279l-113 -279h-207v16l116 216h-142v153h346v-106z" />
    <glyph glyph-name="eight.denom" horiz-adv-x="400" 
d="M160 123c0 -18 11 -27 33 -27c17 0 26 8 26 23c0 16 -17 24 -42 33c-9 -7 -17 -14 -17 -29zM187 280c0 -11 11 -20 34 -27c7 8 11 16 11 27c0 13 -8 20 -23 20s-22 -9 -22 -20zM11 104c0 60 34 82 61 98c-24 11 -49 34 -49 81c0 64 58 110 177 110
c121 0 177 -40 177 -101c0 -45 -26 -71 -46 -84c35 -21 59 -41 59 -92c0 -83 -84 -123 -195 -123c-109 0 -184 38 -184 111z" />
    <glyph glyph-name="nine.denom" horiz-adv-x="412" 
d="M392 207c0 -96 -58 -214 -212 -214c-52 0 -104 11 -141 26l29 106c29 -10 56 -15 81 -15c40 0 71 15 74 58c-28 -16 -58 -24 -89 -24c-76 0 -116 45 -116 109c0 107 95 140 181 140c135 0 193 -71 193 -186zM199 229c8 0 17 4 24 8c3 24 -2 46 -22 46
c-19 0 -23 -15 -23 -27c0 -11 1 -27 21 -27z" />
    <glyph glyph-name="onehalf" unicode="&#xbd;" horiz-adv-x="980" 
d="M323 350h-193v205h-76l-14 111c51 12 98 34 129 69h154v-385zM137 0l447 720h187l-444 -720h-190zM581 0v105l100 65c24 16 53 32 53 53c0 13 -8 19 -23 19c-23 0 -66 -19 -91 -34l-66 104c51 44 124 81 216 81c84 0 160 -40 160 -120c0 -55 -28 -89 -79 -124l-38 -26
h114v-123h-346z" />
    <glyph glyph-name="onequarter" unicode="&#xbc;" horiz-adv-x="980" 
d="M327 350h-193v205h-76l-14 111c51 12 98 34 129 69h154v-385zM158 0l447 720h187l-444 -720h-190zM722 270l-62 -102h62v102zM722 0v52h-193v116l135 217h218v-217h42v-116h-42v-52h-160z" />
    <glyph glyph-name="threequarters" unicode="&#xbe;" horiz-adv-x="980" 
d="M49 395l44 92c31 -15 74 -29 106 -29c27 0 41 3 41 20c0 15 -10 19 -41 19c-16 0 -33 -1 -48 -4v96c43 1 75 6 75 25c0 15 -12 15 -27 15c-24 0 -62 -12 -89 -23l-40 92c43 24 99 45 178 45c101 0 149 -36 149 -99c0 -45 -29 -76 -80 -91c59 -7 93 -36 93 -88
c0 -85 -80 -122 -181 -122c-65 0 -135 17 -180 52zM177 0l447 720h187l-444 -720h-190zM724 270l-62 -102h62v102zM724 0v52h-193v116l135 217h218v-217h42v-116h-42v-52h-160z" />
    <glyph glyph-name="onethird" unicode="&#x2153;" horiz-adv-x="980" 
d="M330 350h-193v205h-76l-14 111c51 12 98 34 129 69h154v-385zM139 0l447 720h187l-444 -720h-190zM562 45l44 92c31 -15 74 -29 106 -29c27 0 41 3 41 20c0 15 -10 19 -41 19c-16 0 -33 -1 -48 -4v96c43 1 75 6 75 25c0 15 -12 15 -27 15c-24 0 -62 -12 -89 -23l-40 92
c43 24 99 45 178 45c101 0 149 -36 149 -99c0 -45 -29 -76 -80 -91c59 -7 93 -36 93 -88c0 -85 -80 -122 -181 -122c-65 0 -135 17 -180 52z" />
    <glyph glyph-name="twothirds" unicode="&#x2154;" horiz-adv-x="980" 
d="M42 350v105l100 65c24 16 53 32 53 53c0 13 -8 19 -23 19c-23 0 -66 -19 -91 -34l-66 104c51 44 124 81 216 81c84 0 160 -40 160 -120c0 -55 -28 -89 -79 -124l-38 -26h114v-123h-346zM194 0l447 720h187l-444 -720h-190zM606 45l44 92c31 -15 74 -29 106 -29
c27 0 41 3 41 20c0 15 -10 19 -41 19c-16 0 -33 -1 -48 -4v96c43 1 75 6 75 25c0 15 -12 15 -27 15c-24 0 -62 -12 -89 -23l-40 92c43 24 99 45 178 45c101 0 149 -36 149 -99c0 -45 -29 -76 -80 -91c59 -7 93 -36 93 -88c0 -85 -80 -122 -181 -122c-65 0 -135 17 -180 52z
" />
    <glyph glyph-name="onefifth" unicode="&#xf500;" horiz-adv-x="980" 
d="M337 350h-193v205h-76l-14 111c51 12 98 34 129 69h154v-385zM145 0l447 720h187l-444 -720h-190zM589 152l18 233h293l-11 -121h-159l-5 -34c15 4 43 8 70 8c79 0 128 -30 128 -110c0 -90 -79 -135 -178 -135c-77 0 -141 31 -176 67l50 86c29 -16 76 -30 101 -30
c24 0 40 6 40 23s-10 20 -25 20c-13 0 -19 -3 -24 -6v-1h-122z" />
    <glyph glyph-name="twofifths" unicode="&#xf501;" horiz-adv-x="980" 
d="M53 350v105l100 65c24 16 53 32 53 53c0 13 -8 19 -23 19c-23 0 -66 -19 -91 -34l-66 104c51 44 124 81 216 81c84 0 160 -40 160 -120c0 -55 -28 -89 -79 -124l-38 -26h114v-123h-346zM203 0l447 720h187l-444 -720h-190zM629 152l18 233h293l-11 -121h-159l-5 -34
c15 4 43 8 70 8c79 0 128 -30 128 -110c0 -90 -79 -135 -178 -135c-77 0 -141 31 -176 67l50 86c29 -16 76 -30 101 -30c24 0 40 6 40 23s-10 20 -25 20c-13 0 -19 -3 -24 -6v-1h-122z" />
    <glyph glyph-name="threefifths" unicode="&#xf502;" horiz-adv-x="980" 
d="M56 395l44 92c31 -15 74 -29 106 -29c27 0 41 3 41 20c0 15 -10 19 -41 19c-16 0 -33 -1 -48 -4v96c43 1 75 6 75 25c0 15 -12 15 -27 15c-24 0 -62 -12 -89 -23l-40 92c43 24 99 45 178 45c101 0 149 -36 149 -99c0 -45 -29 -76 -80 -91c59 -7 93 -36 93 -88
c0 -85 -80 -122 -181 -122c-65 0 -135 17 -180 52zM168 0l447 720h187l-444 -720h-190zM595 152l18 233h293l-11 -121h-159l-5 -34c15 4 43 8 70 8c79 0 128 -30 128 -110c0 -90 -79 -135 -178 -135c-77 0 -141 31 -176 67l50 86c29 -16 76 -30 101 -30c24 0 40 6 40 23
s-10 20 -25 20c-13 0 -19 -3 -24 -6v-1h-122z" />
    <glyph glyph-name="fourfifths" unicode="&#xf503;" horiz-adv-x="980" 
d="M227 620l-62 -102h62v102zM227 350v52h-193v116l135 217h218v-217h42v-116h-42v-52h-160zM198 0l447 720h187l-444 -720h-190zM619 152l18 233h293l-11 -121h-159l-5 -34c15 4 43 8 70 8c79 0 128 -30 128 -110c0 -90 -79 -135 -178 -135c-77 0 -141 31 -176 67l50 86
c29 -16 76 -30 101 -30c24 0 40 6 40 23s-10 20 -25 20c-13 0 -19 -3 -24 -6v-1h-122z" />
    <glyph glyph-name="onesixth" unicode="&#xf504;" horiz-adv-x="980" 
d="M333 350h-193v205h-76l-14 111c51 12 98 34 129 69h154v-385zM154 0l447 720h187l-444 -720h-190zM553 179c0 96 58 214 212 214c52 0 104 -11 141 -26l-29 -106c-29 10 -56 15 -81 15c-40 0 -71 -15 -74 -58c28 16 58 24 89 24c76 0 116 -45 116 -109
c0 -107 -95 -140 -181 -140c-144 0 -193 71 -193 186zM746 157c-8 0 -17 -4 -24 -8c-3 -24 2 -46 22 -46c19 0 23 15 23 27c0 11 -1 27 -21 27z" />
    <glyph glyph-name="fivesixths" unicode="&#xf505;" horiz-adv-x="980" 
d="M72 502l18 233h293l-11 -121h-159l-5 -34c15 4 43 8 70 8c79 0 128 -30 128 -110c0 -90 -79 -135 -178 -135c-77 0 -141 31 -176 67l50 86c29 -16 76 -30 101 -30c24 0 40 6 40 23s-10 20 -25 20c-13 0 -19 -3 -24 -6v-1h-122zM168 0l447 720h187l-444 -720h-190z
M554 179c0 96 58 214 212 214c52 0 104 -11 141 -26l-29 -106c-29 10 -56 15 -81 15c-40 0 -71 -15 -74 -58c28 16 58 24 89 24c76 0 116 -45 116 -109c0 -107 -95 -140 -181 -140c-144 0 -193 71 -193 186zM747 157c-8 0 -17 -4 -24 -8c-3 -24 2 -46 22 -46
c19 0 23 15 23 27c0 11 -1 27 -21 27z" />
    <glyph glyph-name="oneeighth" unicode="&#x215b;" horiz-adv-x="980" 
d="M326 350h-193v205h-76l-14 111c51 12 98 34 129 69h154v-385zM146 0l447 720h187l-444 -720h-190zM709 123c0 -18 11 -27 33 -27c17 0 26 8 26 23c0 16 -17 24 -42 33c-9 -7 -17 -14 -17 -29zM736 280c0 -11 11 -20 34 -27c7 8 11 16 11 27c0 13 -8 20 -23 20
s-22 -9 -22 -20zM560 104c0 60 34 82 61 98c-24 11 -49 34 -49 81c0 64 58 110 177 110c121 0 177 -40 177 -101c0 -45 -26 -71 -46 -84c35 -21 59 -41 59 -92c0 -83 -84 -123 -195 -123c-109 0 -184 38 -184 111z" />
    <glyph glyph-name="threeeighths" unicode="&#x215c;" horiz-adv-x="980" 
d="M45 395l44 92c31 -15 74 -29 106 -29c27 0 41 3 41 20c0 15 -10 19 -41 19c-16 0 -33 -1 -48 -4v96c43 1 75 6 75 25c0 15 -12 15 -27 15c-24 0 -62 -12 -89 -23l-40 92c43 24 99 45 178 45c101 0 149 -36 149 -99c0 -45 -29 -76 -80 -91c59 -7 93 -36 93 -88
c0 -85 -80 -122 -181 -122c-65 0 -135 17 -180 52zM162 0l447 720h187l-444 -720h-190zM713 123c0 -18 11 -27 33 -27c17 0 26 8 26 23c0 16 -17 24 -42 33c-9 -7 -17 -14 -17 -29zM740 280c0 -11 11 -20 34 -27c7 8 11 16 11 27c0 13 -8 20 -23 20s-22 -9 -22 -20zM564 104
c0 60 34 82 61 98c-24 11 -49 34 -49 81c0 64 58 110 177 110c121 0 177 -40 177 -101c0 -45 -26 -71 -46 -84c35 -21 59 -41 59 -92c0 -83 -84 -123 -195 -123c-109 0 -184 38 -184 111z" />
    <glyph glyph-name="fiveeighths" unicode="&#x215d;" horiz-adv-x="980" 
d="M66 502l18 233h293l-11 -121h-159l-5 -34c15 4 43 8 70 8c79 0 128 -30 128 -110c0 -90 -79 -135 -178 -135c-77 0 -141 31 -176 67l50 86c29 -16 76 -30 101 -30c24 0 40 6 40 23s-10 20 -25 20c-13 0 -19 -3 -24 -6v-1h-122zM158 0l447 720h187l-444 -720h-190z
M707 123c0 -18 11 -27 33 -27c17 0 26 8 26 23c0 16 -17 24 -42 33c-9 -7 -17 -14 -17 -29zM734 280c0 -11 11 -20 34 -27c7 8 11 16 11 27c0 13 -8 20 -23 20s-22 -9 -22 -20zM558 104c0 60 34 82 61 98c-24 11 -49 34 -49 81c0 64 58 110 177 110c121 0 177 -40 177 -101
c0 -45 -26 -71 -46 -84c35 -21 59 -41 59 -92c0 -83 -84 -123 -195 -123c-109 0 -184 38 -184 111z" />
    <glyph glyph-name="seveneighths" unicode="&#x215e;" horiz-adv-x="980" 
d="M406 629l-113 -279h-207v16l116 216h-142v153h346v-106zM128 0l447 720h187l-444 -720h-190zM693 123c0 -18 11 -27 33 -27c17 0 26 8 26 23c0 16 -17 24 -42 33c-9 -7 -17 -14 -17 -29zM720 280c0 -11 11 -20 34 -27c7 8 11 16 11 27c0 13 -8 20 -23 20s-22 -9 -22 -20z
M544 104c0 60 34 82 61 98c-24 11 -49 34 -49 81c0 64 58 110 177 110c121 0 177 -40 177 -101c0 -45 -26 -71 -46 -84c35 -21 59 -41 59 -92c0 -83 -84 -123 -195 -123c-109 0 -184 38 -184 111z" />
    <glyph glyph-name="oneseventh" unicode="&#xf506;" horiz-adv-x="980" 
d="M316 350h-193v205h-76l-14 111c51 12 98 34 129 69h154v-385zM135 0l447 720h187l-444 -720h-190zM944 279l-113 -279h-207v16l116 216h-142v153h346v-106z" />
    <glyph glyph-name="twosevenths" unicode="&#xf507;" horiz-adv-x="980" 
d="M40 350v105l100 65c24 16 53 32 53 53c0 13 -8 19 -23 19c-23 0 -66 -19 -91 -34l-66 104c51 44 124 81 216 81c84 0 160 -40 160 -120c0 -55 -28 -89 -79 -124l-38 -26h114v-123h-346zM185 0l447 720h187l-444 -720h-190zM977 279l-113 -279h-207v16l116 216h-142v153
h346v-106z" />
    <glyph glyph-name="threesevenths" unicode="&#xf508;" horiz-adv-x="980" 
d="M43 395l44 92c31 -15 74 -29 106 -29c27 0 41 3 41 20c0 15 -10 19 -41 19c-16 0 -33 -1 -48 -4v96c43 1 75 6 75 25c0 15 -12 15 -27 15c-24 0 -62 -12 -89 -23l-40 92c43 24 99 45 178 45c101 0 149 -36 149 -99c0 -45 -29 -76 -80 -91c59 -7 93 -36 93 -88
c0 -85 -80 -122 -181 -122c-65 0 -135 17 -180 52zM161 0l447 720h187l-444 -720h-190zM952 279l-113 -279h-207v16l116 216h-142v153h346v-106z" />
    <glyph glyph-name="foursevenths" unicode="&#xf509;" horiz-adv-x="980" 
d="M210 620l-62 -102h62v102zM210 350v52h-193v116l135 217h218v-217h42v-116h-42v-52h-160zM179 0l447 720h187l-444 -720h-190zM969 279l-113 -279h-207v16l116 216h-142v153h346v-106z" />
    <glyph glyph-name="fivesevenths" unicode="&#xf50a;" horiz-adv-x="980" 
d="M63 502l18 233h293l-11 -121h-159l-5 -34c15 4 43 8 70 8c79 0 128 -30 128 -110c0 -90 -79 -135 -178 -135c-77 0 -141 31 -176 67l50 86c29 -16 76 -30 101 -30c24 0 40 6 40 23s-10 20 -25 20c-13 0 -19 -3 -24 -6v-1h-122zM154 0l447 720h187l-444 -720h-190z
M946 279l-113 -279h-207v16l116 216h-142v153h346v-106z" />
    <glyph glyph-name="sixsevenths" unicode="&#xf50b;" horiz-adv-x="980" 
d="M30 529c0 96 58 214 212 214c52 0 104 -11 141 -26l-29 -106c-29 10 -56 15 -81 15c-40 0 -71 -15 -74 -58c28 16 58 24 89 24c76 0 116 -45 116 -109c0 -107 -95 -140 -181 -140c-144 0 -193 71 -193 186zM223 507c-8 0 -17 -4 -24 -8c-3 -24 2 -46 22 -46
c19 0 23 15 23 27c0 11 -1 27 -21 27zM156 0l447 720h187l-444 -720h-190zM957 279l-113 -279h-207v16l116 216h-142v153h346v-106z" />
    <glyph glyph-name="oneninth" unicode="&#xf50c;" horiz-adv-x="980" 
d="M320 350h-193v205h-76l-14 111c51 12 98 34 129 69h154v-385zM140 0l447 720h187l-444 -720h-190zM934 207c0 -96 -58 -214 -212 -214c-52 0 -104 11 -141 26l29 106c29 -10 56 -15 81 -15c40 0 71 15 74 58c-28 -16 -58 -24 -89 -24c-76 0 -116 45 -116 109
c0 107 95 140 181 140c135 0 193 -71 193 -186zM741 229c8 0 17 4 24 8c3 24 -2 46 -22 46c-19 0 -23 -15 -23 -27c0 -11 1 -27 21 -27z" />
    <glyph glyph-name="twoninths" unicode="&#xf50d;" horiz-adv-x="980" 
d="M49 350v105l100 65c24 16 53 32 53 53c0 13 -8 19 -23 19c-23 0 -66 -19 -91 -34l-66 104c51 44 124 81 216 81c84 0 160 -40 160 -120c0 -55 -28 -89 -79 -124l-38 -26h114v-123h-346zM192 0l447 720h187l-444 -720h-190zM971 207c0 -96 -58 -214 -212 -214
c-52 0 -104 11 -141 26l29 106c29 -10 56 -15 81 -15c40 0 71 15 74 58c-28 -16 -58 -24 -89 -24c-76 0 -116 45 -116 109c0 107 95 140 181 140c135 0 193 -71 193 -186zM778 229c8 0 17 4 24 8c3 24 -2 46 -22 46c-19 0 -23 -15 -23 -27c0 -11 1 -27 21 -27z" />
    <glyph glyph-name="fourninths" unicode="&#xf50e;" horiz-adv-x="980" 
d="M221 620l-62 -102h62v102zM221 350v52h-193v116l135 217h218v-217h42v-116h-42v-52h-160zM191 0l447 720h187l-444 -720h-190zM963 207c0 -96 -58 -214 -212 -214c-52 0 -104 11 -141 26l29 106c29 -10 56 -15 81 -15c40 0 71 15 74 58c-28 -16 -58 -24 -89 -24
c-76 0 -116 45 -116 109c0 107 95 140 181 140c135 0 193 -71 193 -186zM770 229c8 0 17 4 24 8c3 24 -2 46 -22 46c-19 0 -23 -15 -23 -27c0 -11 1 -27 21 -27z" />
    <glyph glyph-name="fiveninths" unicode="&#xf50f;" horiz-adv-x="980" 
d="M69 502l18 233h293l-11 -121h-159l-5 -34c15 4 43 8 70 8c79 0 128 -30 128 -110c0 -90 -79 -135 -178 -135c-77 0 -141 31 -176 67l50 86c29 -16 76 -30 101 -30c24 0 40 6 40 23s-10 20 -25 20c-13 0 -19 -3 -24 -6v-1h-122zM157 0l447 720h187l-444 -720h-190z
M930 207c0 -96 -58 -214 -212 -214c-52 0 -104 11 -141 26l29 106c29 -10 56 -15 81 -15c40 0 71 15 74 58c-28 -16 -58 -24 -89 -24c-76 0 -116 45 -116 109c0 107 95 140 181 140c135 0 193 -71 193 -186zM737 229c8 0 17 4 24 8c3 24 -2 46 -22 46c-19 0 -23 -15 -23 -27
c0 -11 1 -27 21 -27z" />
    <glyph glyph-name="sevenninths" unicode="&#xf510;" horiz-adv-x="980" 
d="M391 629l-113 -279h-207v16l116 216h-142v153h346v-106zM125 0l447 720h187l-444 -720h-190zM921 207c0 -96 -58 -214 -212 -214c-52 0 -104 11 -141 26l29 106c29 -10 56 -15 81 -15c40 0 71 15 74 58c-28 -16 -58 -24 -89 -24c-76 0 -116 45 -116 109
c0 107 95 140 181 140c135 0 193 -71 193 -186zM728 229c8 0 17 4 24 8c3 24 -2 46 -22 46c-19 0 -23 -15 -23 -27c0 -11 1 -27 21 -27z" />
    <glyph glyph-name="eightninths" unicode="&#xf511;" horiz-adv-x="980" 
d="M190 473c0 -18 11 -27 33 -27c17 0 26 8 26 23c0 16 -17 24 -42 33c-9 -7 -17 -14 -17 -29zM217 630c0 -11 11 -20 34 -27c7 8 11 16 11 27c0 13 -8 20 -23 20s-22 -9 -22 -20zM41 454c0 60 34 82 61 98c-24 11 -49 34 -49 81c0 64 58 110 177 110
c121 0 177 -40 177 -101c0 -45 -26 -71 -46 -84c35 -21 59 -41 59 -92c0 -83 -84 -123 -195 -123c-109 0 -184 38 -184 111zM168 0l447 720h187l-444 -720h-190zM934 207c0 -96 -58 -214 -212 -214c-52 0 -104 11 -141 26l29 106c29 -10 56 -15 81 -15c40 0 71 15 74 58
c-28 -16 -58 -24 -89 -24c-76 0 -116 45 -116 109c0 107 95 140 181 140c135 0 193 -71 193 -186zM741 229c8 0 17 4 24 8c3 24 -2 46 -22 46c-19 0 -23 -15 -23 -27c0 -11 1 -27 21 -27z" />
    <glyph glyph-name="minus" unicode="&#x2212;" horiz-adv-x="600" 
d="M560 373v-142h-520v142h520z" />
    <glyph glyph-name="uni2215" unicode="&#x2215;" horiz-adv-x="139" 
d="M-251 0l447 720h187l-444 -720h-190z" />
    <glyph glyph-name="uni2219" unicode="&#x2219;" horiz-adv-x="350" 
d="M54 325c0 68 45 109 118 109c72 0 117 -41 117 -109c0 -65 -43 -111 -116 -111c-76 0 -119 46 -119 111z" />
    <glyph glyph-name="approxequal" unicode="&#x2248;" horiz-adv-x="740" 
d="M639 491l53 -128c-57 -39 -120 -63 -197 -63c-47 0 -88 12 -135 23l-13 3c-40 11 -74 20 -105 20c-39 0 -86 -15 -143 -46l-54 128c57 39 120 63 197 63c87 0 184 -46 253 -46c7 0 16 1 24 2c35 5 73 19 120 44zM642 267l53 -128c-57 -39 -120 -63 -197 -63
c-47 0 -88 12 -135 23l-13 3c-40 11 -74 20 -105 20c-39 0 -86 -15 -143 -46l-54 128c57 39 120 63 197 63c87 0 184 -46 253 -46c7 0 16 1 24 2c35 5 73 19 120 44z" />
    <glyph glyph-name="notequal" unicode="&#x2260;" horiz-adv-x="600" 
d="M560 252v-144h-277l-66 -108h-180l67 108h-65v144h154l34 55h-188v144h278l51 82h178l-51 -82h65v-144h-154l-34 -55h188z" />
    <glyph glyph-name="lessequal" unicode="&#x2264;" horiz-adv-x="600" 
d="M560 145v-145h-520v145h520zM498 165l-458 200v113l455 201l63 -151l-251 -106l253 -105z" />
    <glyph glyph-name="greaterequal" unicode="&#x2265;" horiz-adv-x="600" 
d="M40 0v145h520v-145h-520zM560 365l-458 -200l-62 152l253 105l-251 106l63 151l455 -201v-113z" />
    <glyph glyph-name="less" unicode="&#x3c;" horiz-adv-x="600" 
d="M537 24l-508 220v113l505 221l63 -151l-290 -126l292 -125z" />
    <glyph glyph-name="equal" unicode="=" horiz-adv-x="600" 
d="M560 252v-144h-521v144h521zM560 451v-144h-521v144h521z" />
    <glyph glyph-name="greater" unicode="&#x3e;" horiz-adv-x="600" 
d="M575 244l-508 -220l-62 152l292 125l-290 126l63 151l505 -221v-113z" />
    <glyph glyph-name="logicalnot" unicode="&#xac;" horiz-adv-x="600" 
d="M569 114h-151v165h-386v141h537v-306z" />
    <glyph glyph-name="plus" unicode="+" horiz-adv-x="600" 
d="M375 563v-190h186v-142h-186v-191h-149v191h-188v142h188v190h149z" />
    <glyph glyph-name="plusminus" unicode="&#xb1;" horiz-adv-x="600" 
d="M560 142v-142h-520v142h185v112h-185v136h185v152h150v-152h185v-136h-185v-112h185z" />
    <glyph glyph-name="divide" unicode="&#xf7;" horiz-adv-x="600" 
d="M300 563c44 0 80 -35 80 -82c0 -43 -33 -80 -80 -80s-82 35 -82 80s38 82 82 82zM40 231v142h520v-142h-520zM299 207c44 0 81 -39 81 -82s-33 -81 -82 -81c-45 0 -81 36 -81 81s38 82 82 82z" />
    <glyph glyph-name="multiply" unicode="&#xd7;" horiz-adv-x="600" 
d="M538 433l-134 -134l134 -136l-100 -100l-134 136l-136 -136l-106 106l136 136l-136 134l100 100l136 -134l134 134z" />
    <glyph glyph-name="partialdiff" unicode="&#x2202;" horiz-adv-x="629" 
d="M255 -12c-124 0 -234 67 -234 224c0 149 89 259 239 259c51 0 94 -17 126 -54c3 65 -20 106 -100 106c-40 0 -102 -9 -141 -25l-29 153c80 39 154 50 223 50c172 0 257 -114 257 -286c0 -217 -104 -427 -341 -427zM289 178c44 0 65 48 65 84c0 29 -15 51 -46 51
c-44 0 -64 -44 -64 -80c0 -31 14 -55 45 -55z" />
    <glyph glyph-name="Omega" unicode="&#x2126;" horiz-adv-x="824" 
d="M447 0v192c65 45 80 108 80 165c0 68 -28 147 -113 147s-113 -79 -113 -147c0 -67 16 -128 76 -165v-192h-347v217h112c-56 29 -108 95 -108 193c0 175 136 323 380 323s380 -133 380 -302c0 -111 -55 -182 -116 -214h116v-217h-347z" />
    <glyph glyph-name="Delta" unicode="&#x2206;" horiz-adv-x="776" 
d="M262 720h251l263 -720h-776zM310 172h140l-63 302z" />
    <glyph glyph-name="product" unicode="&#x220f;" horiz-adv-x="726" 
d="M35 -140v860h656v-860h-254v646h-148v-646h-254z" />
    <glyph glyph-name="summation" unicode="&#x2211;" horiz-adv-x="636" 
d="M605 503h-245l126 -189l-126 -216h255v-217h-640v90l209 343l-209 316v90h630v-217z" />
    <glyph glyph-name="uni0394" unicode="&#x394;" horiz-adv-x="776" 
d="M262 720h251l263 -720h-776zM310 172h140l-63 302z" />
    <glyph glyph-name="uni03A9" unicode="&#x3a9;" horiz-adv-x="824" 
d="M447 0v192c65 45 80 108 80 165c0 68 -28 147 -113 147s-113 -79 -113 -147c0 -67 16 -128 76 -165v-192h-347v217h112c-56 29 -108 95 -108 193c0 175 136 323 380 323s380 -133 380 -302c0 -111 -55 -182 -116 -214h116v-217h-347z" />
    <glyph glyph-name="uni03BC" unicode="&#x3bc;" horiz-adv-x="620" 
d="M581 0h-187v38c-16 -24 -44 -43 -76 -50c-24 -4 -38 -4 -45 -4v-184h-245v733h245v-348c0 -31 3 -56 39 -56c7 0 15 1 25 3v401h244v-533z" />
    <glyph glyph-name="pi" unicode="&#x3c0;" horiz-adv-x="762" 
d="M40 370v163h682v-163h-61v-370h-244v370h-62v-370h-244v370h-71z" />
    <glyph glyph-name="mu" unicode="&#xb5;" horiz-adv-x="620" 
d="M581 0h-187v38c-16 -24 -44 -43 -76 -50c-24 -4 -38 -4 -45 -4v-184h-245v733h245v-348c0 -31 3 -56 39 -56c7 0 15 1 25 3v401h244v-533z" />
    <glyph glyph-name="radical" unicode="&#x221a;" horiz-adv-x="808" 
d="M43 197v167h283l99 -264l236 724h211l-335 -990h-223l-146 363h-125z" />
    <glyph glyph-name="infinity" unicode="&#x221e;" horiz-adv-x="820" 
d="M780 314c0 -112 -80 -184 -167 -184c-105 0 -155 40 -202 82c-61 -51 -113 -82 -193 -82c-104 0 -178 62 -178 171c0 104 71 180 190 180c79 0 132 -33 184 -88c61 58 116 89 196 89c117 0 170 -77 170 -168zM624 306c0 31 -15 46 -46 46c-27 0 -51 -20 -78 -45
c17 -21 50 -47 78 -47c31 0 46 19 46 46zM326 304c-28 28 -51 48 -78 48c-33 0 -50 -20 -50 -48c0 -31 17 -46 50 -46c24 0 53 15 78 46z" />
    <glyph glyph-name="integral" unicode="&#x222b;" horiz-adv-x="357" 
d="M-44 -26h60c32 0 53 13 53 52v567c0 133 74 197 215 197h98v-172h-45c-33 0 -50 -10 -50 -62v-563c0 -124 -72 -193 -231 -193h-100v174z" />
    <glyph glyph-name="lozenge" unicode="&#x25ca;" horiz-adv-x="652" 
d="M244 0l-199 352l199 348h156l207 -346l-207 -354h-156zM324 503l-84 -154l84 -154l87 154z" />
    <glyph glyph-name="zero.tf" horiz-adv-x="600" 
d="M249 350c0 -109 5 -159 50 -159c44 0 52 51 52 159c0 112 -3 168 -52 168c-48 0 -50 -55 -50 -168zM13 350c0 241 87 370 286 370c200 0 287 -130 287 -364c0 -249 -87 -369 -287 -369s-286 119 -286 363z" />
    <glyph glyph-name="one.tf" horiz-adv-x="600" 
d="M86 0v181h124v248c-42 -13 -86 -16 -133 -10l-28 157c77 23 157 73 208 133h189v-528h115v-181h-475z" />
    <glyph glyph-name="two.tf" horiz-adv-x="600" 
d="M42 0v141l199 214c49 53 71 83 71 116c0 31 -20 42 -52 42c-47 0 -102 -33 -153 -69l-95 147c75 75 175 129 283 129c142 0 256 -66 256 -216c0 -87 -37 -136 -111 -213l-94 -98h222v-193h-526z" />
    <glyph glyph-name="three.tf" horiz-adv-x="600" 
d="M24 87l64 148c49 -27 116 -51 167 -51c41 0 77 11 77 51c0 36 -32 46 -77 46c-25 0 -54 -3 -75 -7l-5 153c77 3 136 22 136 62c0 25 -20 38 -53 38c-47 0 -90 -15 -130 -35l-85 144c81 55 157 84 264 84c132 0 224 -66 224 -177c0 -80 -50 -140 -133 -171
c92 -11 154 -66 154 -167c0 -153 -122 -218 -277 -218c-88 0 -186 33 -251 100z" />
    <glyph glyph-name="four.tf" horiz-adv-x="600" 
d="M208 307h100v191zM308 0v129h-291v175l231 405h278v-402h68v-178h-68v-129h-218z" />
    <glyph glyph-name="five.tf" horiz-adv-x="600" 
d="M57 272l34 437h427l-13 -186h-254l-7 -77c24 15 60 27 116 27c111 0 198 -72 198 -225c0 -176 -127 -261 -276 -261c-93 0 -191 36 -248 99l63 147c65 -32 107 -49 163 -49c32 0 74 18 74 75c0 43 -21 63 -57 63c-19 0 -38 -6 -49 -17l-4 -33h-167z" />
    <glyph glyph-name="six.tf" horiz-adv-x="600" 
d="M26 336c0 220 102 384 303 384c69 0 136 -14 216 -54l-55 -149c-39 17 -93 25 -133 25c-64 0 -111 -45 -114 -129c32 28 82 51 141 51c100 0 196 -58 196 -207c0 -200 -131 -270 -268 -270c-202 0 -286 149 -286 349zM307 179c36 0 53 23 53 66c0 36 -15 59 -51 59
c-19 0 -43 -10 -56 -27c0 -52 5 -98 54 -98z" />
    <glyph glyph-name="seven.tf" horiz-adv-x="600" 
d="M554 571l-221 -571h-247v21l221 495h-261v193h508v-138z" />
    <glyph glyph-name="eight.tf" horiz-adv-x="600" 
d="M226 216c0 -27 14 -48 61 -48c27 0 48 15 48 38c0 37 -41 56 -82 75c-15 -16 -27 -44 -27 -65zM270 519c0 -23 21 -40 62 -64c13 17 25 42 25 63c0 25 -23 37 -46 37c-24 0 -41 -15 -41 -36zM21 187c0 97 62 154 104 177c-37 21 -88 74 -88 149c0 120 99 207 262 207
c164 0 258 -71 258 -186c0 -76 -52 -127 -81 -151c51 -35 106 -85 106 -175c0 -147 -114 -221 -283 -221c-171 0 -278 69 -278 200z" />
    <glyph glyph-name="nine.tf" horiz-adv-x="600" 
d="M576 394c0 -229 -102 -408 -294 -408c-79 0 -146 14 -225 50l51 154c41 -16 98 -29 140 -29c71 0 96 51 104 130c-32 -28 -76 -45 -128 -45c-113 0 -202 70 -202 210c0 190 135 264 268 264c195 0 286 -118 286 -326zM295 529c-36 0 -54 -19 -54 -57c0 -36 16 -57 52 -57
c19 0 43 10 56 27c3 39 -9 87 -54 87z" />
    <glyph glyph-name="dollar.tf" horiz-adv-x="600" 
d="M227 -88v95c-81 16 -151 55 -207 115l104 132c62 -41 134 -79 181 -79c21 0 32 6 32 19c0 17 -15 28 -116 60c-117 37 -183 100 -183 212c0 124 82 189 190 210v84h162v-87c60 -15 119 -40 163 -77l-80 -140c-49 28 -104 54 -155 54c-30 0 -45 -8 -45 -23
c0 -20 14 -30 121 -65c115 -37 176 -89 176 -204c0 -117 -67 -189 -180 -212v-94h-163z" />
    <glyph glyph-name="Euro.tf" horiz-adv-x="600" 
d="M-18 284l11 147h64c24 165 130 289 309 289c87 0 170 -29 242 -89l-82 -137c-45 28 -98 42 -141 42c-59 0 -90 -45 -101 -105h203l-10 -147h-196c11 -63 48 -101 107 -101c45 0 105 20 153 48l71 -143c-91 -71 -170 -101 -263 -101c-160 0 -277 120 -296 297h-71z" />
    <glyph glyph-name="cent.tf" horiz-adv-x="600" 
d="M236 -17v105c-112 27 -207 117 -207 264c0 135 75 234 208 263v104h162v-102c124 -23 173 -102 169 -222h-186c0 40 -16 60 -49 60c-43 0 -63 -36 -63 -99c0 -72 34 -103 82 -103c51 0 92 14 155 49l57 -134c-44 -35 -100 -64 -165 -79v-106h-163z" />
    <glyph glyph-name="sterling.tf" horiz-adv-x="600" 
d="M341 243c0 -17 -10 -44 -23 -57h238v-186h-515v165l76 16c19 13 28 40 28 63c0 19 -7 45 -12 57h-92v135h50c-9 15 -25 53 -25 100c0 104 85 184 244 184c95 0 191 -39 255 -98l-87 -137c-44 32 -85 48 -132 48c-44 0 -59 -19 -59 -46c0 -15 6 -39 13 -51h127v-135h-98
c7 -15 12 -42 12 -58z" />
    <glyph glyph-name="yen.tf" horiz-adv-x="600" 
d="M565 384v-167h-157v-217h-224v217h-146v167h94l-163 325h238l90 -218l96 218h239l-170 -325h103z" />
    <glyph glyph-name="florin.tf" horiz-adv-x="600" 
d="M21 -32h38c27 0 40 12 47 43l59 268h-83v154h115l11 64c24 132 63 212 219 212h114v-173h-65c-27 0 -38 -16 -43 -44l-10 -59h84v-154h-115l-59 -277c-24 -109 -74 -202 -222 -202h-90v168z" />
    <glyph glyph-name="zero.osf" horiz-adv-x="666" 
d="M257 302c0 -67 22 -111 75 -111c55 0 77 41 77 113c0 77 -26 106 -77 106s-75 -40 -75 -108zM20 299c0 197 118 313 312 313c211 0 314 -114 314 -310c0 -180 -103 -315 -314 -315c-208 0 -312 130 -312 312z" />
    <glyph glyph-name="one.osf" horiz-adv-x="542" 
d="M57 0v181h124v141c-42 -13 -86 -16 -133 -10l-28 157c77 23 157 73 208 133h189v-421h115v-181h-475z" />
    <glyph glyph-name="two.osf" horiz-adv-x="577" 
d="M34 0v135l180 140c56 43 85 63 85 94c0 27 -15 40 -46 40c-49 0 -102 -33 -154 -72l-95 147c75 75 175 128 294 128c131 0 237 -46 237 -182c0 -91 -35 -135 -128 -199l-56 -38h209v-193h-526z" />
    <glyph glyph-name="three.osf" horiz-adv-x="560" 
d="M6 28l64 148c49 -27 116 -51 168 -51c39 0 69 9 69 37c0 29 -30 36 -75 36c-25 0 -56 -3 -77 -7l-5 153c67 3 136 11 136 47c0 23 -20 28 -53 28c-39 0 -90 -15 -130 -35l-85 144c83 56 162 84 270 84c133 0 218 -53 218 -164c0 -80 -61 -132 -133 -159
c92 -16 154 -63 154 -156c0 -148 -130 -204 -274 -204c-88 0 -183 36 -247 99z" />
    <glyph glyph-name="four.osf" horiz-adv-x="650" 
d="M222 247h118v164zM340 -60v129h-311v175l251 357h278v-354h78v-178h-78v-129h-218z" />
    <glyph glyph-name="five.osf" horiz-adv-x="565" 
d="M40 185l32 416h426l-13 -186h-254l-7 -67c24 15 69 27 120 27c108 0 195 -54 195 -195c0 -168 -127 -251 -276 -251c-93 0 -191 35 -248 98l64 141c65 -32 107 -45 163 -45c32 0 71 14 71 62c0 31 -19 46 -50 46c-24 0 -41 -8 -52 -19l-4 -27h-167z" />
    <glyph glyph-name="six.osf" horiz-adv-x="612" 
d="M29 336c0 220 102 384 303 384c69 0 136 -14 216 -54l-55 -149c-39 17 -93 25 -133 25c-64 0 -111 -45 -114 -129c32 28 82 51 141 51c100 0 196 -58 196 -207c0 -200 -131 -270 -268 -270c-202 0 -286 149 -286 349zM310 179c36 0 53 23 53 66c0 36 -15 59 -51 59
c-19 0 -43 -10 -56 -27c0 -52 5 -98 54 -98z" />
    <glyph glyph-name="seven.osf" horiz-adv-x="538" 
d="M528 463l-201 -523h-237v21l197 447h-267v193h508v-138z" />
    <glyph glyph-name="eight.osf" horiz-adv-x="594" 
d="M223 216c0 -27 14 -48 61 -48c27 0 48 15 48 38c0 37 -41 56 -82 75c-15 -16 -27 -44 -27 -65zM267 519c0 -23 21 -40 62 -64c13 17 25 42 25 63c0 25 -23 37 -46 37c-24 0 -41 -15 -41 -36zM18 187c0 97 62 154 104 177c-37 21 -88 74 -88 149c0 120 99 207 262 207
c164 0 258 -71 258 -186c0 -76 -52 -127 -81 -151c51 -35 106 -85 106 -175c0 -147 -114 -221 -283 -221c-171 0 -278 69 -278 200z" />
    <glyph glyph-name="nine.osf" horiz-adv-x="610" 
d="M580 292c0 -220 -102 -363 -294 -363c-79 0 -146 13 -225 49l51 154c41 -16 98 -29 140 -29c72 0 102 28 103 93c-32 -28 -74 -49 -133 -49c-100 0 -196 62 -196 211c0 193 135 254 268 254c202 0 286 -119 286 -320zM299 421c-36 0 -54 -19 -54 -58c0 -36 16 -57 52 -57
c19 0 43 10 56 27c3 42 -9 88 -54 88z" />
    <glyph glyph-name="dollar.osf" horiz-adv-x="573" 
d="M208 -88v95c-81 16 -151 55 -207 115l104 132c62 -41 134 -79 181 -79c21 0 32 6 32 19c0 17 -15 28 -116 60c-117 37 -183 100 -183 212c0 124 82 189 190 210v84h162v-87c60 -15 119 -40 163 -77l-80 -140c-49 28 -104 54 -155 54c-30 0 -45 -8 -45 -23
c0 -20 14 -30 121 -65c115 -37 176 -89 176 -204c0 -117 -67 -189 -180 -212v-94h-163z" />
    <glyph glyph-name="Euro.osf" horiz-adv-x="641" 
d="M-2 284l11 147h64c24 165 130 289 309 289c87 0 170 -29 242 -89l-82 -137c-45 28 -98 42 -141 42c-59 0 -90 -45 -101 -105h203l-10 -147h-196c11 -63 48 -101 107 -101c45 0 105 20 153 48l71 -143c-91 -71 -170 -101 -263 -101c-160 0 -277 120 -296 297h-71z" />
    <glyph glyph-name="cent.osf" horiz-adv-x="585" 
d="M231 -98v105c-112 27 -207 117 -207 264c0 135 75 234 208 263v104h162v-102c124 -23 173 -102 169 -222h-186c0 40 -16 60 -49 60c-43 0 -63 -36 -63 -99c0 -72 34 -103 82 -103c51 0 92 14 155 49l57 -134c-44 -35 -100 -64 -165 -79v-106h-163z" />
    <glyph glyph-name="sterling.osf" horiz-adv-x="565" 
d="M331 243c0 -17 -10 -44 -23 -57h238v-186h-515v165l76 16c19 13 28 40 28 63c0 19 -7 45 -12 57h-92v135h50c-9 15 -25 53 -25 100c0 104 85 184 244 184c95 0 191 -39 255 -98l-87 -137c-44 32 -85 48 -132 48c-44 0 -59 -19 -59 -46c0 -15 6 -39 13 -51h127v-135h-98
c7 -15 12 -42 12 -58z" />
    <glyph glyph-name="yen.osf" horiz-adv-x="633" 
d="M591 384v-167h-167v-217h-224v217h-156v167h104l-163 325h238l90 -218l96 218h239l-170 -325h113z" />
    <glyph glyph-name="florin.osf" horiz-adv-x="525" 
d="M-9 -32h38c27 0 40 12 47 43l59 268h-83v154h115l11 64c24 132 63 212 219 212h114v-173h-65c-27 0 -38 -16 -43 -44l-10 -59h84v-154h-115l-59 -277c-24 -109 -74 -202 -222 -202h-90v168z" />
    <glyph glyph-name="zero.tosf" unicode="&#xf81e;" horiz-adv-x="600" 
d="M250 304c0 -68 6 -113 49 -113s51 41 51 113c0 77 -15 106 -51 106c-37 0 -49 -41 -49 -106zM17 299c0 197 98 313 282 313c199 0 284 -115 284 -310c0 -180 -85 -315 -284 -315s-282 130 -282 312z" />
    <glyph glyph-name="one.tosf" unicode="&#xf81f;" horiz-adv-x="600" 
d="M96 0v181h124v141c-42 -13 -86 -16 -133 -10l-28 157c77 23 157 73 208 133h189v-421h115v-181h-475z" />
    <glyph glyph-name="two.tosf" unicode="&#xf820;" horiz-adv-x="600" 
d="M52 0v135l180 140c56 43 85 63 85 94c0 27 -15 40 -46 40c-49 0 -102 -33 -154 -72l-95 147c75 75 175 128 294 128c131 0 237 -46 237 -182c0 -91 -35 -135 -128 -199l-56 -38h209v-193h-526z" />
    <glyph glyph-name="three.tosf" unicode="&#xf821;" horiz-adv-x="600" 
d="M27 28l64 148c49 -27 116 -51 168 -51c39 0 69 9 69 37c0 29 -30 36 -75 36c-25 0 -56 -3 -77 -7l-5 153c67 3 136 11 136 47c0 23 -20 28 -53 28c-39 0 -90 -15 -130 -35l-85 144c83 56 162 84 270 84c133 0 218 -53 218 -164c0 -80 -61 -132 -133 -159
c92 -16 154 -63 154 -156c0 -148 -130 -204 -274 -204c-88 0 -183 36 -247 99z" />
    <glyph glyph-name="four.tosf" unicode="&#xf822;" horiz-adv-x="600" 
d="M206 247h97v164zM303 -60v129h-281v175l221 357h278v-354h68v-178h-68v-129h-218z" />
    <glyph glyph-name="five.tosf" unicode="&#xf823;" horiz-adv-x="600" 
d="M63 185l32 416h426l-13 -186h-254l-7 -67c24 15 69 27 120 27c108 0 195 -54 195 -195c0 -168 -127 -251 -276 -251c-93 0 -191 35 -248 98l64 141c65 -32 107 -45 163 -45c32 0 71 14 71 62c0 31 -19 46 -50 46c-24 0 -41 -8 -52 -19l-4 -27h-167z" />
    <glyph glyph-name="six.tosf" unicode="&#xf824;" horiz-adv-x="600" 
d="M29 336c0 220 102 384 303 384c69 0 136 -14 216 -54l-55 -149c-39 17 -93 25 -133 25c-64 0 -111 -45 -114 -129c32 28 82 51 141 51c100 0 196 -58 196 -207c0 -200 -131 -270 -268 -270c-202 0 -286 149 -286 349zM310 179c36 0 53 23 53 66c0 36 -15 59 -51 59
c-19 0 -43 -10 -56 -27c0 -52 5 -98 54 -98z" />
    <glyph glyph-name="seven.tosf" unicode="&#xf825;" horiz-adv-x="600" 
d="M554 463l-201 -523h-237v21l197 447h-267v193h508v-138z" />
    <glyph glyph-name="eight.tosf" unicode="&#xf826;" horiz-adv-x="600" 
d="M223 216c0 -27 14 -48 61 -48c27 0 48 15 48 38c0 37 -41 56 -82 75c-15 -16 -27 -44 -27 -65zM267 519c0 -23 21 -40 62 -64c13 17 25 42 25 63c0 25 -23 37 -46 37c-24 0 -41 -15 -41 -36zM18 187c0 97 62 154 104 177c-37 21 -88 74 -88 149c0 120 99 207 262 207
c164 0 258 -71 258 -186c0 -76 -52 -127 -81 -151c51 -35 106 -85 106 -175c0 -147 -114 -221 -283 -221c-171 0 -278 69 -278 200z" />
    <glyph glyph-name="nine.tosf" unicode="&#xf827;" horiz-adv-x="600" 
d="M577 292c0 -220 -102 -363 -294 -363c-79 0 -146 13 -225 49l51 154c41 -16 98 -29 140 -29c72 0 102 28 103 93c-32 -28 -74 -49 -133 -49c-100 0 -196 62 -196 211c0 193 135 254 268 254c202 0 286 -119 286 -320zM296 421c-36 0 -54 -19 -54 -58c0 -36 16 -57 52 -57
c19 0 43 10 56 27c3 42 -9 88 -54 88z" />
    <glyph glyph-name="dollar.tosf" horiz-adv-x="600" 
d="M228 -88v95c-81 16 -151 55 -207 115l104 132c62 -41 134 -79 181 -79c21 0 32 6 32 19c0 17 -15 28 -116 60c-117 37 -183 100 -183 212c0 124 82 189 190 210v84h162v-87c60 -15 119 -40 163 -77l-80 -140c-49 28 -104 54 -155 54c-30 0 -45 -8 -45 -23
c0 -20 14 -30 121 -65c115 -37 176 -89 176 -204c0 -117 -67 -189 -180 -212v-94h-163z" />
    <glyph glyph-name="Euro.tosf" horiz-adv-x="600" 
d="M-19 284l11 147h64c24 165 130 289 309 289c87 0 170 -29 242 -89l-82 -137c-45 28 -98 42 -141 42c-59 0 -90 -45 -101 -105h203l-10 -147h-196c11 -63 48 -101 107 -101c45 0 105 20 153 48l71 -143c-91 -71 -170 -101 -263 -101c-160 0 -277 120 -296 297h-71z" />
    <glyph glyph-name="cent.tosf" horiz-adv-x="600" 
d="M229 -98v105c-112 27 -207 117 -207 264c0 135 75 234 208 263v104h162v-102c124 -23 173 -102 169 -222h-186c0 40 -16 60 -49 60c-43 0 -63 -36 -63 -99c0 -72 34 -103 82 -103c51 0 92 14 155 49l57 -134c-44 -35 -100 -64 -165 -79v-106h-163z" />
    <glyph glyph-name="sterling.tosf" horiz-adv-x="600" 
d="M341 243c0 -17 -10 -44 -23 -57h238v-186h-515v165l76 16c19 13 28 40 28 63c0 19 -7 45 -12 57h-92v135h50c-9 15 -25 53 -25 100c0 104 85 184 244 184c95 0 191 -39 255 -98l-87 -137c-44 32 -85 48 -132 48c-44 0 -59 -19 -59 -46c0 -15 6 -39 13 -51h127v-135h-98
c7 -15 12 -42 12 -58z" />
    <glyph glyph-name="yen.tosf" horiz-adv-x="600" 
d="M575 384v-167h-167v-217h-224v217h-156v167h104l-163 325h238l90 -218l96 218h239l-170 -325h113z" />
    <glyph glyph-name="florin.tosf" horiz-adv-x="600" 
d="M10 -32h38c27 0 40 12 47 43l59 268h-83v154h115l11 64c24 132 63 212 219 212h114v-173h-65c-27 0 -38 -16 -43 -44l-10 -59h84v-154h-115l-59 -277c-24 -109 -74 -202 -222 -202h-90v168z" />
    <glyph glyph-name="currency" unicode="&#xa4;" horiz-adv-x="576" 
d="M345 339c0 37 -22 56 -57 56c-28 0 -58 -19 -58 -56c0 -43 23 -59 58 -59s57 26 57 59zM30 493l95 103l76 -81c28 11 56 17 85 17c31 0 56 -3 83 -14l75 76l101 -102l-77 -76c12 -27 19 -50 19 -79s-7 -57 -20 -83l77 -73l-101 -101l-75 78c-31 -13 -57 -17 -82 -17
c-27 0 -54 6 -82 17l-77 -78l-96 100l75 76c-11 23 -18 52 -18 81c0 27 7 52 18 79z" />
    <glyph glyph-name="apple" horiz-adv-x="2406" 
d="M1677 -97l-17 -8c5 -11 9 -22 9 -37c0 -61 -92 -112 -242 -112c-80 0 -146 21 -190 57c-49 -25 -103 -43 -159 -43c-60 0 -115 15 -148 43c-43 -61 -146 -85 -250 -85c-100 0 -246 56 -241 172c-27 15 -48 36 -55 56c-32 -13 -70 -22 -118 -22c-113 0 -162 98 -138 205
c16 77 87 149 172 189c-23 33 -30 79 -19 122c24 108 98 163 156 163c5 0 9 0 12 -1c40 40 127 56 187 56c51 0 108 -7 155 -26c49 68 135 111 227 111c7 0 12 -1 19 -2c47 66 159 103 289 103c111 0 202 -54 247 -134c53 17 111 23 168 23c68 0 242 -25 274 -115
c16 9 35 15 54 15c77 0 131 -57 115 -125c-5 -25 -9 -34 -20 -49c55 -33 88 -100 68 -189c-9 -32 -20 -59 -34 -80c67 -45 80 -129 64 -196c-21 -99 -123 -124 -206 -124c-21 0 -43 3 -66 8c-19 -24 -67 -46 -127 -46c-59 0 -127 29 -148 88l-28 -12
c13 -83 99 -123 187 -123c55 0 96 9 159 40l1 -2c-47 -25 -99 -42 -159 -42c-92 0 -180 32 -198 122zM692 505c17 0 34 -2 50 -7c2 24 8 49 17 74c-28 8 -59 13 -94 13c-47 0 -96 -8 -149 -29c6 -11 9 -24 9 -39c0 -75 -46 -119 -88 -119c-31 0 -47 28 -39 63
c4 21 19 39 38 54c-9 13 -13 31 -8 50c3 14 10 26 19 35c-2 1 -5 1 -10 1c-56 0 -121 -53 -145 -161c-11 -39 -7 -85 13 -120c39 16 76 27 115 27c31 0 56 -20 51 -43c-4 -23 -25 -35 -74 -35c-43 0 -75 17 -95 44c-77 -40 -134 -113 -150 -181c-27 -117 12 -206 114 -206
c47 0 85 9 117 22c-11 25 -12 52 -3 83c9 39 42 62 67 62s30 -30 26 -51c-5 -33 -33 -70 -84 -94c7 -21 24 -39 51 -53c0 7 1 13 3 19c15 65 72 113 137 121l1 -1c-61 -8 -108 -56 -123 -120c-3 -9 -3 -17 -4 -26c27 -11 58 -13 90 -4v-1c-32 -11 -63 -9 -90 0
c0 -104 122 -163 226 -163c101 0 209 23 249 84c-23 21 -34 47 -26 80c2 11 7 23 16 34c-7 7 -15 13 -26 18c-65 -52 -139 -95 -200 -95c-46 0 -95 23 -82 75c11 43 84 51 137 51c37 0 83 -4 122 -19c82 60 159 129 262 134c-7 19 -13 39 -16 59c-19 -15 -40 -23 -62 -23
c-35 0 -40 39 -35 71l35 158h-80l-43 -213c-16 -85 -91 -128 -146 -128c-35 0 -74 11 -102 44l2 2c21 -19 37 -30 68 -30c69 0 94 72 104 114c15 55 34 140 50 211h-45c0 3 0 6 1 8h46l17 68c17 80 77 127 140 127c32 0 100 -7 116 -64c19 9 62 26 99 26c40 0 58 -10 47 -66
c-5 -24 -13 -56 -21 -89c80 12 124 63 143 120c-31 7 -61 32 -61 71c0 31 16 60 43 87c-29 37 -72 59 -111 59c-56 0 -86 -32 -86 -69c0 -19 8 -39 27 -50l-3 -2c-19 11 -37 33 -37 52c0 43 36 73 99 73c39 0 84 -23 113 -60c33 31 81 56 137 72c-43 76 -129 129 -245 129
c-118 0 -228 -34 -276 -101c31 -9 60 -34 49 -71c-5 -21 -21 -31 -47 -31c-24 0 -43 26 -35 62c4 15 10 29 18 42c-5 1 -10 1 -17 1c-92 0 -169 -45 -218 -113c47 -20 80 -52 89 -99c3 -9 3 -24 -4 -35l-2 2c4 9 6 24 3 33c-9 45 -43 76 -88 96c-12 -15 -22 -33 -30 -53
c36 -11 102 -39 91 -95c-6 -25 -64 -50 -99 -66c-49 -20 -92 -46 -112 -87c-16 -32 -16 -81 18 -97c8 86 75 129 115 129c47 0 67 -38 46 -74c-23 -36 -57 -51 -98 -59c-3 -43 12 -75 35 -75c19 0 35 10 46 25c-7 11 -13 16 -10 27c2 8 8 12 19 12c5 0 9 -2 10 -7
s0 -11 -3 -16s-5 -10 -9 -14c11 -15 27 -30 22 -57c-7 -31 -46 -55 -98 -55c-42 0 -138 38 -212 73c-19 -11 -43 -18 -70 -18c-35 0 -73 22 -73 62c0 19 14 29 21 29c13 0 34 -19 71 -39c4 11 9 19 12 26l88 224c26 66 80 85 114 85zM1421 148c40 0 63 35 78 92
c8 35 3 54 -6 77l2 1c13 -27 17 -51 10 -82c-15 -67 -47 -102 -116 -102c-47 0 -75 62 -59 126c16 67 72 96 108 96c20 0 34 -5 41 -15c15 9 31 14 49 14h27l15 68c17 80 77 127 140 127c20 0 44 -2 72 -14l10 -6c13 9 27 14 42 18c-3 7 -3 15 -2 26c3 23 17 36 34 51l3 -1
c-15 -17 -21 -34 -24 -50c-3 -8 -1 -17 0 -24c9 1 18 2 26 2c39 0 68 -21 84 -52c33 11 50 37 57 61c4 18 4 34 0 48c-13 -9 -23 -19 -30 -29c-4 -5 -8 -10 -11 -15c0 15 16 35 39 50c-30 89 -198 116 -269 116c-59 0 -114 -8 -165 -24c20 -39 28 -83 17 -130
c-16 -57 -73 -102 -128 -102c-3 0 -8 0 -11 1c-19 -60 -65 -115 -148 -127c-16 -66 -34 -137 -40 -165c-9 -47 -4 -79 35 -79c21 0 23 3 50 16l3 -3c-37 -25 -77 -34 -109 -34c-43 0 -68 29 -53 89c11 48 31 114 47 174h-118l-36 -160c-3 -16 0 -38 15 -38c5 0 9 2 14 5
c0 9 -1 18 -1 27c0 45 15 65 34 65c17 0 18 -15 14 -34c-7 -32 -19 -41 -34 -60c3 -24 8 -47 15 -70c36 -1 53 -9 51 -26c-1 -9 -6 -13 -13 -14c5 1 8 5 9 14c2 15 -13 23 -46 24c7 -20 18 -37 33 -38c-21 1 -35 15 -43 38c-88 -5 -147 -82 -238 -143c11 -5 19 -10 26 -17
c32 35 91 52 147 52c37 0 70 -9 105 -22c3 9 3 19 6 28c13 63 102 104 135 104c13 0 7 -17 16 -29c19 -23 38 -31 69 -31c67 0 96 72 106 114l48 211h-25c-19 0 -32 -6 -43 -13c4 -7 6 -14 6 -20c0 -11 -7 -18 -18 -18s-16 8 -16 16c0 12 7 19 16 26c-5 5 -10 8 -21 8
c-25 0 -46 -32 -61 -97c-13 -56 5 -101 30 -101zM2149 211l3 1c12 -4 21 -9 32 -14c11 21 21 47 28 78c19 83 -5 144 -50 179c-29 -44 -69 -49 -80 -49c-19 0 -46 11 -46 34s23 42 50 42c25 0 48 -6 68 -17c8 14 14 31 19 50c16 66 -35 117 -104 117c-19 0 -37 -8 -52 -19
c5 -15 5 -33 1 -53c-7 -25 -25 -51 -61 -63c11 -23 14 -46 8 -71c-16 -60 -73 -79 -130 -79h-72c-15 -55 -25 -107 -38 -160c-3 -16 1 -38 17 -38c7 0 15 6 22 13c-7 20 -8 41 -2 63c5 28 22 45 33 45c18 0 13 -27 10 -38c-8 -30 -18 -54 -31 -71c7 -29 23 -49 47 -61
c8 45 36 59 63 59c19 0 37 -15 30 -35c-3 -21 -24 -35 -51 -35c-9 0 -18 1 -27 3c0 -39 24 -63 60 -74c15 31 50 52 90 52c9 0 19 -1 28 -5l-1 -2c-9 3 -18 5 -27 5c-37 0 -70 -21 -83 -52c9 -2 18 -3 29 -3c71 0 124 34 153 98c-15 -4 -36 -6 -51 -6c-75 0 -103 57 -92 103
c13 55 57 82 101 82c51 0 86 -47 73 -127c-4 -20 -6 -28 -15 -43c34 13 61 38 81 75c-11 7 -21 11 -33 16zM1745 68l2 -2c-43 -43 -69 -81 -62 -148l28 9c-13 47 1 94 46 129l3 -3c-48 -35 -56 -88 -45 -123c48 16 106 29 154 29h21c-3 11 -3 25 -1 40c1 5 1 11 4 16
c-44 11 -77 39 -74 82c-25 11 -43 30 -54 55c-23 -25 -46 -34 -73 -34c-35 0 -39 39 -34 71c11 53 22 105 34 158h-74l-46 -212c-19 -86 -89 -129 -145 -129c-35 0 -75 9 -102 44c-10 15 -2 30 -13 30c-37 0 -122 -52 -125 -137c43 -19 84 -43 127 -62c62 37 148 71 205 71
c53 0 105 -15 132 -48c8 5 16 8 23 11c-7 64 22 110 69 153zM1998 -101c0 -6 -3 -13 -8 -20c23 -5 45 -8 66 -8c72 0 165 29 189 129c14 63 12 138 -50 186c-24 -35 -56 -59 -96 -71c-32 -68 -92 -104 -167 -104c-11 0 -21 1 -30 2c-1 -3 -3 -7 -4 -14c-2 -16 -2 -30 1 -41
c63 -5 99 -26 99 -59zM747 498l8 -3c9 -4 20 -15 16 -26c-3 -7 -9 -11 -18 -10c-7 1 -12 13 -11 24v10c-7 3 -15 4 -22 4c-35 0 -63 -41 -76 -81l-70 -220c-7 -21 -20 -40 -39 -55c72 -35 151 -72 204 -72c75 0 96 54 89 81c-1 7 -7 13 -14 20c-16 -23 -45 -36 -82 -36
c-38 0 -69 40 -66 91c-39 11 -46 66 -30 100c21 41 73 71 122 88c34 11 83 42 88 65c14 54 -39 78 -79 91c-11 -24 -17 -48 -20 -71zM948 -159c-3 -11 -7 -21 -14 -32c3 -3 6 -7 10 -10c32 -27 87 -36 134 -36c59 0 101 22 144 51c-35 36 -52 82 -49 134
c-35 13 -69 22 -105 22c-56 0 -110 -20 -135 -61c11 -13 17 -29 17 -48c0 -7 1 -12 -2 -20zM1918 492c-36 0 -72 21 -83 52c-13 -3 -25 -10 -36 -19c11 -7 15 -18 15 -26c0 -13 -7 -19 -22 -19c-16 0 -23 9 -23 18c0 6 2 11 6 15c3 7 9 9 13 13c-33 17 -51 15 -63 15
c-36 0 -71 -39 -83 -95l-20 -91h17c61 0 126 41 131 76c-1 8 0 22 9 22c7 0 12 -8 9 -15c-3 -9 -4 -19 -8 -28c-7 -19 -13 -36 -16 -55h67c42 0 102 15 118 72c7 21 4 46 -4 67c-8 -1 -16 -2 -27 -2zM1134 531c-31 11 -40 10 -51 10c-37 0 -75 -39 -88 -95l-19 -91h19
c56 0 122 29 146 91h2l-21 -91h119c9 31 17 59 22 79c11 41 -14 61 -42 61c-15 0 -25 -5 -34 -12l-4 -1c1 -4 2 -8 2 -11c0 -11 -2 -20 -14 -20c-7 0 -14 6 -10 17c3 7 9 12 18 16c-7 23 -26 39 -45 47zM1656 -142c0 12 -3 22 -7 33c-59 -27 -121 -51 -186 -51
c-44 0 -82 12 -121 28c-29 -20 -63 -42 -100 -62c43 -36 105 -58 185 -58c147 0 229 49 229 110zM1589 577c11 47 3 90 -16 129c-55 -19 -100 -45 -131 -78c15 -23 24 -48 24 -79c0 -23 -4 -47 -11 -71c2 -1 5 -1 9 -1c51 0 111 43 125 100zM2100 160c18 87 -19 128 -57 128
c-49 0 -79 -46 -80 -95c-3 -31 6 -66 39 -81c10 -3 21 -5 32 -5c17 0 37 2 53 7c7 15 10 23 13 46zM1893 -42h-22c-55 0 -105 -17 -152 -37c19 -59 88 -88 144 -88s97 24 112 49c-40 12 -73 36 -82 76zM1521 -50c-27 0 -50 -7 -75 -18c-35 -16 -67 -39 -102 -62
c39 -16 76 -29 119 -29c60 0 104 23 155 47l25 12c-21 35 -69 50 -122 50zM693 -157c52 0 112 51 175 104c-39 13 -83 18 -120 18c-48 0 -116 -12 -126 -51c-13 -44 26 -71 71 -71zM640 655c-64 0 -141 -18 -178 -55c25 -7 42 -20 53 -41c51 19 105 27 150 27
c35 0 67 -4 95 -12c7 19 16 37 29 55c-47 19 -101 26 -149 26zM521 517c0 13 -3 26 -8 38l-7 -3c-20 -9 -43 -21 -62 -37c7 -13 19 -19 36 -18c1 -1 1 -1 1 -2c-19 -3 -31 5 -42 16c-15 -15 -27 -30 -31 -50c-7 -35 2 -61 29 -61c37 0 84 48 84 117zM420 345
c-40 0 -77 -11 -113 -28c17 -27 47 -47 90 -47c47 0 65 11 70 34c4 23 -18 41 -47 41zM389 29c-5 -28 -8 -53 -1 -77c48 24 73 59 80 90c2 15 3 49 -21 49c-19 0 -49 -22 -58 -62zM1229 -180c28 17 54 43 85 59l-54 27c-25 13 -47 24 -71 35c-4 -45 11 -88 40 -121zM795 346
c-21 0 -39 -23 -54 -68l-11 -47c40 9 75 23 92 58c4 7 6 14 6 21c0 19 -12 36 -33 36zM1462 549c0 29 -8 55 -23 76c-20 -23 -32 -49 -32 -77c0 -36 19 -62 44 -69c7 24 11 47 11 70zM2082 408c11 0 44 11 69 54c-18 12 -40 18 -65 18c-24 0 -45 -17 -45 -40s25 -32 41 -32z
M1095 668c12 35 -16 59 -47 68c-9 -13 -16 -26 -20 -42c-8 -38 9 -54 24 -54c23 0 38 9 43 28zM1863 91c21 0 36 8 43 33c3 11 -3 32 -22 32c-28 0 -44 -23 -48 -62c8 -2 17 -3 27 -3zM392 177c0 -19 14 -48 38 -48c19 0 32 17 43 34l-54 29c-7 4 -12 6 -16 6
c-3 0 -11 -5 -11 -21zM1918 494c9 0 18 1 26 3c-12 29 -36 52 -73 52c-8 0 -17 -1 -25 -2c8 -31 37 -53 72 -53zM443 565c-5 -17 -5 -32 -1 -45c20 15 43 26 62 34l8 3c-11 23 -30 36 -51 41c-9 -9 -15 -20 -18 -33zM1980 -101c0 32 -29 51 -80 58c9 -37 39 -60 76 -73
c3 5 4 10 4 15zM1771 170c3 5 6 9 8 14c13 23 20 49 20 48c3 5 9 37 -4 37c-8 0 -17 -17 -24 -44c-4 -19 -4 -37 0 -55zM921 -121c-8 -28 -3 -51 12 -68c9 15 13 32 13 50c0 19 -6 32 -15 45c-5 -7 -8 -16 -10 -27zM1126 164c15 15 24 27 28 48c3 15 6 32 -7 32
c-11 0 -22 -19 -22 -63c0 -5 0 -12 1 -17zM1782 498c0 -8 3 -16 10 -16c12 0 18 6 18 17s-5 19 -15 23c-7 -7 -13 -13 -13 -24zM752 491c-2 0 -4 0 -6 1v-9c-1 -11 1 -22 8 -23c5 0 9 3 12 9c5 11 -6 17 -14 22zM1480 332c-7 -3 -13 -12 -13 -21c0 -7 3 -11 8 -11
c8 0 11 7 11 14s-2 13 -6 18zM814 179l9 12c1 4 2 7 2 9c1 7 -1 11 -6 11s-10 -9 -11 -13c-1 -7 1 -13 6 -19zM1180 471v9c-8 -3 -12 -9 -15 -13c-3 -8 1 -14 6 -14c9 0 9 7 9 18z" />
    <glyph glyph-name="arrowright" unicode="&#x2192;" 
d="M0 166v187h222l-70 75l116 101l232 -267l-240 -267l-109 101l67 70h-218z" />
    <glyph glyph-name="arrowleft" unicode="&#x2190;" 
d="M500 353v-187h-218l67 -70l-109 -101l-240 267l232 267l116 -101l-70 -75h222z" />
    <glyph glyph-name="arroewup" 
d="M346 11h-187v222l-75 -70l-101 116l267 238l267 -246l-101 -109l-70 67v-218z" />
    <glyph glyph-name="arrowdown" unicode="&#x2193;" 
d="M159 511h187v-218l70 67l101 -109l-267 -246l-267 238l101 116l75 -70v222z" />
    <glyph glyph-name="arrowNW" 
d="M491 148l-133 -132l-157 157v-97h-157v377h389v-151h-96z" />
    <glyph glyph-name="arrowNE" 
d="M145 16l-133 132l154 154h-96v151h389v-377h-157v97z" />
    <glyph glyph-name="arrowSE" 
d="M7 332l133 132l157 -157v97h157v-377h-389v151h96z" />
    <glyph glyph-name="arrowSW" 
d="M360 464l133 -132l-154 -154h96v-151h-389v377h157v-97z" />
    <glyph glyph-name="arrowLeftRight" horiz-adv-x="1000" 
d="M718 166h-436l67 -70l-109 -101l-240 267l232 267l116 -101l-70 -75h444l-70 75l116 101l232 -267l-240 -267l-109 101z" />
    <glyph glyph-name="arrowUpDown" horiz-adv-x="750" 
d="M471 439v-436l70 67l101 -109l-267 -240l-267 232l101 116l75 -70v444l-75 -70l-101 116l267 232l267 -240l-101 -109z" />
    <glyph glyph-name="arrowright.750" horiz-adv-x="750" 
d="M0 166v187h472l-70 75l116 101l232 -267l-240 -267l-109 101l67 70h-468z" />
    <glyph glyph-name="arrowup.750" horiz-adv-x="750" 
d="M471 -108h-187v468l-75 -70l-101 116l267 238l267 -246l-101 -109l-70 67v-464z" />
    <glyph glyph-name="arrowleft.750" horiz-adv-x="750" 
d="M750 353v-187h-468l67 -70l-109 -101l-240 267l232 267l116 -101l-70 -75h472z" />
    <glyph glyph-name="arrowdown.750" horiz-adv-x="750" 
d="M284 630h187v-464l70 67l101 -109l-267 -246l-267 238l101 116l75 -70v468z" />
    <glyph glyph-name="arrowNW.750" horiz-adv-x="750" 
d="M675 66l-133 -132l-311 309v-97h-157v377h389v-151h-96z" />
    <glyph glyph-name="arrowNE.750" horiz-adv-x="750" 
d="M207 -71l-133 132l308 306h-96v151h389v-377h-157v97z" />
    <glyph glyph-name="arrowSE.750" horiz-adv-x="750" 
d="M74 462l133 132l311 -309v97h157v-377h-389v151h96z" />
    <glyph glyph-name="arrowSW.750" horiz-adv-x="750" 
d="M542 594l133 -132l-308 -306h96v-151h-389v377h157v-97z" />
    <glyph glyph-name="arrowCircleLeft" horiz-adv-x="750" 
d="M367 320v-58l70 67l101 -109l-267 -246l-267 238l101 116l75 -70v75c0 156 109 246 272 246c175 0 265 -74 265 -231v-33h-181v23c0 51 -16 91 -84 91c-71 0 -85 -48 -85 -109z" />
    <glyph glyph-name="arrowCircleRight" horiz-adv-x="750" 
d="M383 262v58c0 61 -14 109 -85 109c-68 0 -84 -40 -84 -91v-23h-181v33c0 157 99 231 278 231c167 0 259 -70 259 -238v-83l75 70l101 -116l-267 -238l-267 246l101 109z" />
    <glyph glyph-name="arrowDubLeft" horiz-adv-x="750" 
d="M225 261l27 -29h430v-119h-316l26 -27l-128 -115l-264 291l258 298l134 -115l-30 -33h320v-119h-428z" />
    <glyph glyph-name="arrowDubTop" horiz-adv-x="750" 
d="M411 429l-29 28l-32 -29v-428h-119v320l-33 -30l-115 134l298 258l291 -264l-115 -128l-27 26v-316h-119v429z" />
    <glyph glyph-name="arrowDubRight" horiz-adv-x="750" 
d="M476 232l28 29l-29 32h-428v119h320l-30 33l134 115l258 -298l-264 -291l-128 115l26 27h-316v119h429z" />
    <glyph glyph-name="arrowDubDown" horiz-adv-x="750" 
d="M377 99l29 27v430h119v-316l27 26l115 -128l-291 -264l-298 258l115 134l33 -30v320h119v-428z" />
    <glyph glyph-name="triangleBlackLeft" horiz-adv-x="610" 
d="M574 23l-485 235v2l485 230c3 3 1 -13 1 -48v-185c0 -87 1 -176 1 -215v-18c-1 0 -1 -1 -2 -1z" />
    <glyph glyph-name="triangleBlackRight" horiz-adv-x="610" 
d="M548 258l-485 -235c-1 0 -1 1 -2 1v18c0 39 1 128 1 215v185c0 35 -2 51 1 48l485 -230v-2z" />
    <glyph glyph-name="triangleWhiteLeft" horiz-adv-x="610" 
d="M484 353l-179 -93l178 -99c0 64 1 128 1 192zM576 490v-465l-486 234v2z" />
    <glyph glyph-name="triangleWhiteRight" horiz-adv-x="610" 
d="M333 260l-179 93c0 -64 1 -128 1 -192zM62 25v465l486 -229v-2z" />
    <glyph glyph-name="square" horiz-adv-x="610" 
d="M479 151h-349v349h349v-349z" />
    <glyph glyph-name="square.open" horiz-adv-x="610" 
d="M434 196v259h-259v-259h259zM479 151h-349v349h349v-349z" />
    <glyph glyph-name="circle" unicode="&#x25cb;" horiz-adv-x="610" 
d="M305 119c-113 0 -205 92 -205 205s92 205 205 205s205 -92 205 -205s-92 -205 -205 -205z" />
    <glyph glyph-name="circle.open" horiz-adv-x="610" 
d="M305 119c-113 0 -205 92 -205 205s92 205 205 205s205 -92 205 -205s-92 -205 -205 -205zM305 167c85 0 151 75 151 160s-66 153 -151 153s-150 -71 -150 -156s65 -157 150 -157z" />
    <glyph glyph-name="triangle.left" horiz-adv-x="425" 
d="M275 203l-185 117l185 114v-231z" />
    <glyph glyph-name="triangle" unicode="&#x25b3;" horiz-adv-x="425" 
d="M335 320l-185 -117v231z" />
    <glyph glyph-name="raute" horiz-adv-x="610" 
d="M514 325l-210 -209l-209 210l210 209z" />
    <glyph glyph-name="circumflex" unicode="&#x2c6;" 
d="M191 780h121l126 -144l-97 -73l-90 71l-90 -72l-96 75z" />
    <glyph glyph-name="caron" unicode="&#x2c7;" 
d="M312 576h-121l-126 144l97 73l90 -71l90 72l96 -75z" />
    <glyph glyph-name="uni02C9" unicode="&#x2c9;" 
d="M100 587v143h301v-143h-301z" />
    <glyph glyph-name="breve" unicode="&#x2d8;" 
d="M250 693c36 0 44 20 51 56l131 -18c-8 -91 -64 -154 -182 -154c-120 0 -173 58 -185 154l134 19c7 -39 18 -57 51 -57z" />
    <glyph glyph-name="dieresis" unicode="&#xa8;" 
d="M275 668c0 51 38 92 107 92c76 0 106 -41 106 -92c0 -53 -40 -89 -105 -89c-72 0 -108 33 -108 89zM13 668c0 51 38 92 107 92c76 0 106 -41 106 -92c0 -53 -40 -89 -105 -89c-72 0 -108 33 -108 89z" />
    <glyph glyph-name="macron" unicode="&#xaf;" 
d="M100 587v143h301v-143h-301z" />
    <glyph glyph-name="degree" unicode="&#xb0;" horiz-adv-x="377" 
d="M140 677c0 -33 18 -55 51 -55c27 0 49 23 49 55s-22 54 -49 54c-33 0 -51 -22 -51 -54zM55 675c0 76 62 132 136 132c72 0 131 -56 131 -132c0 -75 -59 -131 -131 -131c-81 0 -136 50 -136 131z" />
    <glyph glyph-name="acute" unicode="&#xb4;" 
d="M103 657l188 172l101 -125l-203 -140z" />
    <glyph glyph-name="grave" unicode="`" 
d="M206 828l189 -171l-85 -93l-204 138z" />
    <glyph glyph-name="cedilla" unicode="&#xb8;" 
d="M131 -223l15 83c19 -4 44 -9 67 -9c29 0 37 8 37 23c0 20 -21 23 -57 23h-25l20 107h86l-6 -40c63 -5 101 -30 101 -91c0 -67 -42 -114 -131 -114c-45 0 -84 9 -107 18z" />
    <glyph glyph-name="dotaccent" unicode="&#x2d9;" 
d="M120 664c0 69 56 102 129 102c76 0 131 -33 131 -102c0 -68 -54 -100 -131 -100c-72 0 -129 32 -129 100z" />
    <glyph glyph-name="ring" unicode="&#x2da;" 
d="M218 679c0 -21 11 -31 33 -31c17 0 31 11 31 31c0 21 -12 30 -31 30c-22 0 -33 -10 -33 -30zM131 674c0 72 53 110 120 110c65 0 118 -36 118 -105c0 -68 -53 -107 -118 -107c-73 0 -120 34 -120 102z" />
    <glyph glyph-name="ogonek" unicode="&#x2db;" 
d="M228 24l125 -10v-12c-41 -43 -71 -86 -71 -107c0 -13 7 -19 21 -19c13 0 24 1 47 8l26 -94c-31 -15 -84 -36 -140 -36c-92 0 -124 49 -124 97c0 68 52 120 116 173z" />
    <glyph glyph-name="tilde" unicode="&#x2dc;" 
d="M348 771l107 -43c-16 -78 -49 -142 -117 -142c-56 0 -110 29 -136 29c-17 0 -26 -7 -41 -36l-104 46c21 72 55 139 119 139c54 0 102 -28 133 -28c23 0 28 12 39 35z" />
    <glyph glyph-name="hungarumlaut" unicode="&#x2dd;" 
d="M150 806l109 -77l-128 -162l-93 63zM343 793l108 -78l-137 -151l-90 65z" />
    <glyph glyph-name="commaaccent" 
d="M151 -238l42 200l163 -39l-71 -194z" />
    <glyph glyph-name="revcommaaccent" 
d="M352 764l-42 -200l-164 38l71 194z" />
    <glyph glyph-name="tilde.cap" 
d="M348 947l107 -43c-16 -78 -49 -142 -117 -142c-56 0 -110 29 -136 29c-17 0 -26 -7 -41 -36l-104 46c21 72 55 139 119 139c54 0 102 -28 133 -28c23 0 28 12 39 35z" />
    <glyph glyph-name="ring.cap" 
d="M218 842c0 -21 11 -31 33 -31c17 0 31 11 31 31c0 21 -12 30 -31 30c-22 0 -33 -10 -33 -30zM131 837c0 72 53 110 120 110c65 0 118 -36 118 -105c0 -68 -53 -107 -118 -107c-73 0 -120 34 -120 102z" />
    <glyph glyph-name="circumflex.cap" 
d="M191 939h121l126 -119l-89 -73l-98 66l-98 -67l-88 75z" />
    <glyph glyph-name="acute.cap" 
d="M111 858l206 124l74 -136l-217 -96z" />
    <glyph glyph-name="grave.cap" 
d="M185 982l206 -124l-63 -108l-217 96z" />
    <glyph glyph-name="dieresis.cap" 
d="M275 848c0 51 38 92 107 92c76 0 106 -41 106 -92c0 -53 -40 -89 -105 -89c-72 0 -108 33 -108 89zM13 848c0 51 38 92 107 92c76 0 106 -41 106 -92c0 -53 -40 -89 -105 -89c-72 0 -108 33 -108 89z" />
    <glyph glyph-name="caron.cap" 
d="M312 759h-121l-126 119l89 73l98 -66l98 67l88 -75z" />
    <glyph glyph-name="macron.cap" 
d="M99 769v143h301v-143h-301z" />
    <glyph glyph-name="dotaccent.cap" 
d="M120 856c0 69 56 102 129 102c76 0 131 -33 131 -102c0 -68 -54 -100 -131 -100c-72 0 -129 32 -129 100z" />
    <glyph glyph-name="cedilla.cap" 
d="M131 -223l15 83c19 -4 44 -9 67 -9c29 0 37 8 37 23c0 20 -21 23 -57 23h-25l20 107h86l-6 -40c63 -5 101 -30 101 -91c0 -67 -42 -114 -131 -114c-45 0 -84 9 -107 18z" />
    <glyph glyph-name="hungarumlaut.cap" 
d="M162 986l116 -71l-135 -168l-93 63zM359 973l108 -78l-140 -149l-90 65z" />
    <glyph glyph-name="apostrophe" unicode="&#x2bc;" 
d="M177 657c0 43 33 76 80 76c57 0 88 -41 88 -97c0 -83 -51 -137 -139 -154l-21 59c44 15 53 29 60 52c-11 -3 -27 1 -36 5c-23 12 -32 35 -32 59z" />
    <glyph glyph-name="commaaccent.cap" 
d="M151 -238l42 200l163 -39l-71 -194z" />
    <glyph glyph-name="breve.cap" 
d="M250 868c36 0 44 16 51 49l131 -18c-9 -92 -63 -142 -182 -142c-120 0 -173 46 -185 142l134 19c7 -35 18 -50 51 -50z" />
    <glyph glyph-name="caron.alt" 
d="M143 498l24 222h173l-53 -222h-144z" />
    <glyph glyph-name="ogonek.cap" 
d="M228 24l125 -10v-12c-41 -43 -71 -86 -71 -107c0 -13 7 -19 21 -19c13 0 24 1 47 8l26 -94c-31 -15 -84 -36 -140 -36c-92 0 -124 49 -124 97c0 68 52 120 116 173z" />
    <glyph glyph-name="uni00A0" unicode="&#xa0;" horiz-adv-x="130" 
 />
    <glyph glyph-name="quotedbl" unicode="&#x22;" horiz-adv-x="392" 
d="M362 720v-298h-144v298h144zM174 720v-298h-144v298h144z" />
    <glyph glyph-name="quotesingle" unicode="'" horiz-adv-x="204" 
d="M174 720v-298h-144v298h144z" />
    </font>
</defs>
</svg>
